<?xml version="1.0" standalone="no"?>
<!DOCTYPE svg PUBLIC "-//W3C//DTD SVG 20010904//EN"
 "http://www.w3.org/TR/2001/REC-SVG-20010904/DTD/svg10.dtd">
<svg version="1.0" xmlns="http://www.w3.org/2000/svg"
 width="3508.000000pt" height="2480.000000pt" viewBox="0 0 3508.000000 2480.000000"
 preserveAspectRatio="xMidYMid meet">

<g transform="translate(0.000000,2480.000000) scale(0.100000,-0.100000)"
fill="#000000" stroke="none">
<path d="M17170 18070 c-313 -67 -636 -280 -1074 -710 -1600 -1571 -3806
-5457 -4225 -7445 -75 -352 -100 -694 -67 -894 79 -471 385 -741 1120 -986
817 -272 2100 -445 3676 -496 402 -13 1484 -7 1830 11 1646 82 2817 269 3578
571 587 234 837 501 893 954 22 172 -4 492 -61 776 -236 1160 -1091 3027
-2218 4839 -810 1303 -1630 2351 -2267 2899 -478 412 -835 556 -1185 481z
m-1242 -2467 l54 -6 80 -121 c595 -891 1690 -1718 2936 -2215 644 -257 1343
-434 1945 -493 l129 -12 30 -59 c16 -33 27 -61 25 -64 -8 -8 -377 36 -566 67
-1055 174 -2123 598 -3021 1201 -708 475 -1240 999 -1637 1612 -68 106 -70
102 25 90z m-704 -320 c45 -92 162 -287 257 -428 172 -255 361 -477 635 -745
971 -950 2412 -1663 3849 -1904 380 -64 605 -81 1052 -81 l371 0 26 -52 26
-53 -28 -7 c-15 -5 -198 -8 -407 -8 -406 0 -547 9 -905 61 -1350 194 -2741
814 -3764 1678 -180 152 -474 442 -621 613 -237 276 -395 503 -539 779 l-59
111 32 47 c18 25 35 46 39 46 4 0 20 -26 36 -57z m-99 -153 c107 -213 279
-484 437 -688 112 -144 633 -680 787 -809 1147 -960 2675 -1583 4156 -1693
250 -18 734 -10 921 15 l41 6 36 -80 c21 -44 37 -84 37 -88 0 -4 -26 -16 -58
-25 -32 -10 -87 -37 -121 -60 -34 -24 -72 -48 -84 -55 -37 -19 -368 -36 -656
-32 -261 4 -274 5 -285 24 -6 11 -30 39 -53 61 -57 58 -134 86 -249 92 -115 5
-180 -14 -232 -68 l-36 -37 -135 24 c-398 70 -816 180 -1198 315 -73 26 -113
45 -113 54 0 29 -40 91 -85 133 -108 100 -303 139 -402 81 l-32 -19 -278 139
c-267 134 -507 268 -688 385 -79 50 -85 57 -85 88 0 50 -44 129 -104 185 -94
89 -216 135 -302 113 -45 -11 -45 -11 -107 36 -87 67 -316 265 -415 359 l-84
79 -2 70 c-2 90 -45 174 -124 246 -71 65 -122 90 -194 97 l-59 5 -58 71 c-73
90 -178 236 -249 346 -63 97 -192 334 -192 353 0 11 220 347 227 347 1 0 19
-31 38 -70z m-197 -515 c106 -189 290 -471 355 -542 19 -21 19 -23 2 -59 -36
-76 5 -203 97 -300 88 -93 188 -137 267 -117 l38 10 139 -130 c77 -71 202
-182 279 -247 l140 -117 1 -51 c3 -99 103 -225 221 -280 71 -32 176 -42 218
-19 27 14 31 12 162 -70 258 -162 586 -340 831 -452 71 -32 92 -46 92 -62 0
-106 173 -234 333 -246 77 -6 137 6 170 35 16 14 39 9 270 -66 425 -138 757
-218 1193 -287 22 -4 40 -17 58 -43 100 -143 393 -178 510 -60 l40 40 246 -1
c220 -1 432 8 592 25 l56 6 -5 -43 c-3 -24 -7 -46 -9 -48 -11 -13 -347 -85
-489 -106 -234 -33 -403 -45 -650 -45 -333 0 -680 29 -1005 83 l-134 23 -21
38 c-69 132 -280 223 -451 196 -72 -12 -92 -19 -140 -56 l-32 -23 -159 49
c-173 54 -357 119 -553 198 -186 74 -175 68 -189 121 -24 96 -134 199 -268
252 -77 30 -209 33 -271 5 l-42 -19 -127 73 c-258 149 -477 294 -703 467 -193
147 -186 140 -194 198 -3 27 -16 69 -27 92 -56 117 -206 223 -314 223 -52 0
-52 0 -126 78 -135 141 -268 306 -368 455 l-52 78 22 45 c18 38 21 57 17 115
-16 212 -238 417 -363 335 -34 -22 -65 -89 -65 -141 0 -37 23 -141 33 -152 3
-2 31 39 63 91 l59 96 3 -175 2 -174 27 -20 c14 -12 43 -26 64 -33 29 -8 45
-22 64 -53 65 -112 260 -363 408 -526 l70 -76 1 -69 c2 -86 34 -150 116 -228
89 -85 191 -125 272 -107 33 8 40 4 134 -71 227 -180 558 -403 826 -553 93
-53 118 -72 118 -89 0 -11 11 -45 25 -74 82 -176 372 -293 527 -212 l40 21
136 -57 c174 -73 446 -170 631 -226 125 -37 145 -46 153 -68 29 -79 116 -153
220 -190 157 -55 307 -40 390 37 l27 26 128 -22 c399 -66 668 -85 1086 -78
421 7 708 41 1012 121 l125 33 43 -21 c35 -18 59 -21 147 -20 88 0 116 4 175
27 38 14 70 25 71 24 19 -25 278 -687 271 -693 -21 -21 -377 -129 -561 -170
-171 -38 -540 -94 -618 -94 -5 0 -8 -45 -8 -100 0 -117 -18 -108 162 -80 341
53 724 156 1021 275 l57 24 15 -35 c52 -126 175 -566 220 -789 56 -281 70
-495 41 -656 -18 -101 -38 -140 -100 -196 -460 -416 -1974 -709 -4056 -783
-666 -24 -1673 -9 -2370 35 -1325 84 -2449 291 -2999 551 -212 101 -363 221
-395 316 -27 83 -39 249 -27 388 55 648 408 1642 1029 2902 l195 397 61 -52
c33 -29 111 -97 172 -153 602 -542 1463 -1086 2309 -1458 1194 -527 2421 -814
3594 -843 258 -6 264 -6 257 13 -19 47 -29 146 -19 189 l10 44 -51 5 c-28 3
-107 10 -176 16 -1273 108 -2712 630 -3800 1378 -251 173 -535 398 -719 569
-73 67 -74 70 -76 120 -5 140 -174 312 -326 330 l-49 6 0 -179 0 -179 35 -28
c63 -50 136 -81 198 -83 57 -3 59 -3 145 -82 881 -802 2094 -1435 3367 -1757
418 -106 768 -166 1240 -215 72 -7 51 -8 -105 -4 -1494 36 -3278 595 -4655
1459 -471 295 -994 697 -1269 974 l-69 69 63 118 c292 550 698 1237 1083 1836
10 16 15 12 35 -30 13 -26 49 -92 80 -147z"/>
<path d="M20273 10652 c-154 -55 -231 -169 -221 -331 7 -122 66 -212 175 -266
50 -25 70 -29 143 -30 73 0 93 4 142 28 62 30 115 83 150 149 20 37 23 58 23
143 0 92 -2 104 -30 154 -75 135 -243 203 -382 153z"/>
<path d="M15695 10566 c-250 -49 -403 -187 -435 -393 -26 -167 43 -320 194
-427 122 -88 211 -120 507 -186 107 -23 217 -72 271 -119 53 -46 82 -121 75
-197 -14 -181 -187 -303 -429 -304 -133 0 -233 36 -318 116 -75 70 -130 195
-130 294 l0 30 -110 0 -110 0 0 -34 c0 -19 6 -67 14 -108 47 -243 200 -404
445 -470 57 -15 108 -20 201 -21 218 0 377 54 501 170 77 73 124 154 144 250
67 316 -122 503 -613 603 -180 37 -270 76 -347 153 -42 43 -57 67 -70 112 -37
126 14 236 141 299 74 37 143 49 258 44 92 -3 107 -7 164 -37 100 -54 177
-154 207 -271 l11 -45 113 -3 112 -3 -6 48 c-33 253 -155 407 -379 479 -100
32 -299 42 -411 20z"/>
<path d="M13260 9670 l0 -880 110 0 110 0 0 880 0 880 -110 0 -110 0 0 -880z"/>
<path d="M13780 9671 l0 -881 418 0 c467 0 508 5 632 71 332 177 362 592 57
790 l-57 37 34 21 c44 28 110 99 134 148 64 124 57 307 -15 432 -61 104 -172
193 -292 233 -63 21 -86 22 -488 26 l-423 3 0 -880z m875 647 c106 -56 166
-151 167 -263 0 -106 -48 -181 -155 -237 -41 -22 -52 -23 -354 -26 l-313 -3 0
281 0 282 303 -4 302 -3 50 -27z m35 -761 c66 -34 134 -98 162 -152 13 -24 23
-67 26 -106 4 -56 1 -75 -20 -121 -47 -102 -140 -168 -265 -188 -32 -6 -178
-10 -325 -10 l-268 0 0 306 0 305 318 -3 317 -3 55 -28z"/>
<path d="M19670 9725 c-57 -18 -124 -75 -151 -128 -29 -57 -35 -140 -15 -209
49 -171 273 -236 434 -126 l42 29 0 104 0 105 -120 0 -120 0 0 -50 0 -50 65 0
65 0 0 -30 c0 -92 -187 -85 -243 9 -65 111 9 261 130 261 47 0 75 -11 109 -42
22 -19 22 -19 69 5 l48 24 -40 40 c-67 67 -171 89 -273 58z"/>
<path d="M16810 9470 l0 -260 55 0 55 0 0 260 0 260 -55 0 -55 0 0 -260z"/>
<path d="M17022 9473 l3 -258 53 -3 52 -3 0 165 c0 92 3 166 8 166 4 0 61 -75
127 -166 l120 -165 50 3 50 3 3 258 2 257 -55 0 -55 0 0 -155 c0 -85 -3 -155
-7 -155 -5 1 -59 70 -121 155 l-113 155 -60 0 -59 0 2 -257z"/>
<path d="M17560 9680 l0 -50 75 0 75 0 0 -210 0 -210 55 0 55 0 0 210 0 210
75 0 75 0 0 50 0 50 -205 0 -205 0 0 -50z"/>
<path d="M18040 9470 l0 -260 183 2 182 3 3 48 3 47 -130 0 -131 0 0 60 0 60
125 0 125 0 0 50 0 50 -125 0 -125 0 0 50 0 49 128 3 127 3 3 48 3 47 -185 0
-186 0 0 -260z"/>
<path d="M18490 9470 l0 -260 165 0 165 0 0 50 0 50 -110 0 -110 0 0 210 0
210 -55 0 -55 0 0 -260z"/>
<path d="M18900 9470 l0 -260 163 2 162 3 3 48 3 47 -110 0 -111 0 0 210 0
210 -55 0 -55 0 0 -260z"/>
<path d="M19300 9470 l0 -260 55 0 55 0 0 260 0 260 -55 0 -55 0 0 -260z"/>
<path d="M20070 9470 l0 -260 183 2 182 3 3 48 3 47 -130 0 -131 0 0 60 0 60
125 0 125 0 0 50 0 50 -125 0 -125 0 0 50 0 49 128 3 127 3 3 48 3 47 -185 0
-186 0 0 -260z"/>
<path d="M20522 9473 l3 -258 53 -3 52 -3 0 165 c0 92 3 166 8 166 4 -1 61
-75 126 -166 l120 -165 50 3 51 3 3 258 2 257 -55 0 -55 0 -2 -161 -3 -161
-118 161 -119 161 -59 0 -59 0 2 -257z"/>
<path d="M21060 9680 l0 -50 75 0 75 0 0 -210 0 -210 55 0 55 0 0 210 0 210
75 0 75 0 0 50 0 50 -205 0 -205 0 0 -50z"/>
<path d="M17565 9065 c-5 -2 -22 -6 -38 -9 -41 -10 -67 -40 -67 -82 0 -63 17
-78 116 -104 52 -13 72 -33 54 -55 -17 -21 -79 -19 -117 5 l-32 19 -16 -22
c-22 -31 -20 -36 28 -57 50 -23 105 -25 152 -6 39 17 55 42 55 86 0 58 -19 75
-116 100 -23 5 -48 17 -55 26 -32 39 57 55 113 21 16 -10 22 -9 34 7 8 11 14
23 14 28 0 17 -97 51 -125 43z"/>
<path d="M18570 9059 c-43 -9 -80 -51 -80 -88 0 -47 32 -77 106 -97 36 -9 68
-24 71 -31 16 -42 -68 -58 -124 -24 l-31 20 -17 -25 c-20 -31 -15 -38 40 -60
102 -39 200 3 200 86 0 52 -18 68 -102 95 -50 17 -68 27 -68 40 0 33 30 42 82
23 44 -16 49 -16 65 -1 25 22 23 29 -14 46 -45 20 -87 26 -128 16z"/>
<path d="M18848 9058 c-50 -13 -73 -41 -73 -90 0 -48 25 -72 88 -88 67 -17 87
-28 87 -49 0 -36 -73 -43 -125 -11 l-32 20 -14 -26 c-12 -24 -12 -28 9 -45 27
-21 98 -34 146 -25 51 10 76 35 83 81 7 56 -20 87 -94 109 -72 20 -88 30 -80
50 10 26 53 30 97 8 l40 -19 15 23 c20 31 20 31 -12 47 -39 20 -92 25 -135 15z"/>
<path d="M19262 9060 c-50 -12 -82 -46 -82 -90 0 -47 28 -73 102 -95 66 -19
87 -37 68 -60 -17 -21 -79 -19 -117 5 l-32 19 -16 -22 c-22 -32 -20 -36 31
-59 116 -51 236 16 202 113 -11 33 -42 52 -111 70 -58 14 -74 31 -52 53 20 19
38 20 90 1 34 -12 42 -12 54 0 39 39 -55 83 -137 65z"/>
<path d="M20917 9055 c-72 -25 -107 -75 -107 -152 0 -68 26 -113 80 -140 24
-13 60 -23 80 -23 52 0 120 38 142 80 26 50 24 128 -5 170 -41 62 -122 90
-190 65z m111 -68 c24 -19 42 -73 36 -104 -21 -104 -155 -113 -185 -13 -22 71
38 147 105 135 16 -3 36 -11 44 -18z"/>
<path d="M16810 8905 l0 -155 104 0 c87 0 108 3 127 19 32 26 33 95 3 120 -21
17 -21 18 -3 40 27 33 24 77 -6 106 -22 23 -31 25 -125 25 l-100 0 0 -155z
m178 63 c4 -31 -20 -42 -79 -36 -30 3 -34 7 -37 36 l-3 33 58 -3 c55 -3 58 -4
61 -30z m6 -110 c20 -33 -4 -53 -65 -53 -49 0 -54 2 -57 23 -7 45 4 53 59 50
36 -2 55 -8 63 -20z"/>
<path d="M17120 8948 c0 -70 5 -122 13 -137 43 -84 200 -95 248 -17 16 26 19
50 19 149 l0 117 -29 0 -29 0 -4 -109 c-4 -126 -16 -151 -75 -151 -61 0 -73
24 -73 150 l0 110 -35 0 -35 0 0 -112z"/>
<path d="M17750 8905 l0 -155 30 0 30 0 0 155 0 155 -30 0 -30 0 0 -155z"/>
<path d="M17880 8905 l0 -155 35 0 34 0 3 96 3 95 68 -95 c64 -89 71 -96 103
-96 l34 0 0 155 0 155 -35 0 -34 0 -3 -92 -3 -92 -69 92 c-62 85 -71 92 -102
92 l-34 0 0 -155z"/>
<path d="M18220 8905 l0 -155 115 0 115 0 0 25 c0 25 -1 25 -80 25 l-80 0 0
40 0 40 75 0 c73 0 75 1 75 25 0 24 -2 25 -75 25 l-75 0 0 35 0 35 80 0 80 0
0 30 0 30 -115 0 -115 0 0 -155z"/>
<path d="M19532 9040 c-102 -62 -96 -227 11 -279 118 -57 237 14 237 140 0 99
-60 159 -160 159 -37 0 -66 -6 -88 -20z m155 -61 c29 -28 37 -70 23 -114 -14
-44 -44 -65 -91 -65 -72 0 -116 78 -82 147 31 65 99 79 150 32z"/>
<path d="M19830 8905 l0 -155 100 0 100 0 0 25 c0 24 -2 25 -65 25 l-65 0 0
130 0 130 -35 0 -35 0 0 -155z"/>
<path d="M20072 8935 c3 -124 3 -125 33 -155 59 -58 187 -51 226 14 16 26 19
50 19 149 l0 117 -35 0 -35 0 0 -114 c0 -107 -1 -116 -22 -130 -31 -22 -74
-20 -98 4 -18 18 -20 33 -20 130 l0 110 -36 0 -36 0 4 -125z"/>
<path d="M20400 9030 c0 -29 2 -30 45 -30 l45 0 0 -125 0 -125 35 0 35 0 0
125 0 125 45 0 c43 0 45 1 45 30 l0 30 -125 0 -125 0 0 -30z"/>
<path d="M20690 8905 l0 -155 35 0 35 0 0 155 0 155 -35 0 -35 0 0 -155z"/>
<path d="M21180 8905 l0 -155 35 0 34 0 3 97 3 98 70 -98 c63 -89 72 -97 102
-97 l33 0 0 155 0 155 -30 0 -29 0 -3 -97 -3 -97 -73 97 c-67 90 -75 97 -107
97 l-35 0 0 -155z"/>
</g>
</svg>
