<?xml version="1.0" encoding="UTF-8"?>
<svg id="Layer_1" data-name="Layer 1" xmlns="http://www.w3.org/2000/svg" xmlns:xlink="http://www.w3.org/1999/xlink" viewBox="0 0 1140 1106">
  <defs>
    <style>
      .cls-1 {
        fill: none;
      }

      .cls-2 {
        fill: #26bcff;
      }

      .cls-3 {
        fill: #fff;
      }
    </style>
    <clipPath id="clippath">
      <rect class="cls-1" x="-2406.15" y="276.23" width="527.41" height="364.8"/>
    </clipPath>
    <clipPath id="clippath-1">
      <rect class="cls-1" x="-2702.05" y="-1174.97" width="3222.14" height="3580.97"/>
    </clipPath>
    <clipPath id="clippath-2">
      <rect class="cls-1" x="-2406.15" y="276.23" width="527.41" height="1123.16"/>
    </clipPath>
    <clipPath id="clippath-3">
      <rect class="cls-1" x="-2702.05" y="-1174.97" width="3222.14" height="3580.97"/>
    </clipPath>
    <clipPath id="clippath-4">
      <rect class="cls-1" x="-2406.15" y="276.23" width="527.41" height="1123.16"/>
    </clipPath>
    <clipPath id="clippath-5">
      <rect class="cls-1" x="-2702.05" y="-1174.97" width="3222.14" height="3580.97"/>
    </clipPath>
    <clipPath id="clippath-6">
      <rect class="cls-1" x="-2535.07" y="147.43" width="941.65" height="1476.77"/>
    </clipPath>
    <clipPath id="clippath-7">
      <rect class="cls-1" x="-2702.05" y="-1174.97" width="3222.14" height="3580.97"/>
    </clipPath>
    <clipPath id="clippath-8">
      <rect class="cls-1" x="-2702.05" y="-7.23" width="1108.63" height="1657.65"/>
    </clipPath>
    <clipPath id="clippath-10">
      <rect class="cls-1" x="-2702.05" y="-1174.97" width="3222.14" height="3580.97"/>
    </clipPath>
    <clipPath id="clippath-11">
      <rect class="cls-1" x="-2406.15" y="276.23" width="527.41" height="1123.16"/>
    </clipPath>
    <clipPath id="clippath-12">
      <rect class="cls-1" x="-2702.05" y="-1174.97" width="3222.14" height="3580.97"/>
    </clipPath>
    <clipPath id="clippath-13">
      <rect class="cls-1" x="-2406.15" y="276.23" width="527.41" height="1123.16"/>
    </clipPath>
    <clipPath id="clippath-14">
      <rect class="cls-1" x="-2702.05" y="-1174.97" width="3222.14" height="3580.97"/>
    </clipPath>
    <clipPath id="clippath-15">
      <rect class="cls-1" x="-2535.07" y="147.43" width="941.65" height="1476.77"/>
    </clipPath>
    <clipPath id="clippath-16">
      <rect class="cls-1" x="-2702.05" y="-1174.97" width="3222.14" height="3580.97"/>
    </clipPath>
    <clipPath id="clippath-17">
      <rect class="cls-1" x="-2702.05" y="-7.23" width="1108.63" height="1657.65"/>
    </clipPath>
    <clipPath id="clippath-19">
      <rect class="cls-1" x="-2702.05" y="-1174.97" width="3222.14" height="3580.97"/>
    </clipPath>
    <clipPath id="clippath-20">
      <rect class="cls-1" x="-2406.15" y="276.23" width="527.41" height="1123.16"/>
    </clipPath>
    <clipPath id="clippath-21">
      <rect class="cls-1" x="-2702.05" y="-1174.97" width="3222.14" height="3580.97"/>
    </clipPath>
    <clipPath id="clippath-22">
      <rect class="cls-1" x="-2406.15" y="276.23" width="527.41" height="1123.16"/>
    </clipPath>
    <clipPath id="clippath-23">
      <rect class="cls-1" x="-2702.05" y="-1174.97" width="3222.14" height="3580.97"/>
    </clipPath>
    <clipPath id="clippath-24">
      <rect class="cls-1" x="-2535.07" y="147.43" width="941.65" height="1476.77"/>
    </clipPath>
    <clipPath id="clippath-25">
      <rect class="cls-1" x="-2702.05" y="-1174.97" width="3222.14" height="3580.97"/>
    </clipPath>
    <clipPath id="clippath-26">
      <rect class="cls-1" x="-2702.05" y="-7.23" width="1108.63" height="1657.65"/>
    </clipPath>
    <clipPath id="clippath-28">
      <rect class="cls-1" x="-2702.05" y="-1174.97" width="3222.14" height="3580.97"/>
    </clipPath>
    <clipPath id="clippath-29">
      <rect class="cls-1" x="-2406.15" y="276.23" width="527.41" height="1123.16"/>
    </clipPath>
    <clipPath id="clippath-30">
      <rect class="cls-1" x="-2702.05" y="-1174.97" width="3222.14" height="3580.97"/>
    </clipPath>
    <clipPath id="clippath-31">
      <rect class="cls-1" x="-2406.15" y="276.23" width="527.41" height="1123.16"/>
    </clipPath>
    <clipPath id="clippath-32">
      <rect class="cls-1" x="-2702.05" y="-1174.97" width="3222.14" height="3580.97"/>
    </clipPath>
    <clipPath id="clippath-33">
      <rect class="cls-1" x="-2535.07" y="147.43" width="941.65" height="1476.77"/>
    </clipPath>
    <clipPath id="clippath-34">
      <rect class="cls-1" x="-2702.05" y="-1174.97" width="3222.14" height="3580.97"/>
    </clipPath>
    <clipPath id="clippath-35">
      <rect class="cls-1" x="-2702.05" y="-7.23" width="1108.63" height="1657.65"/>
    </clipPath>
    <clipPath id="clippath-37">
      <rect class="cls-1" x="-2702.05" y="-1174.97" width="3222.14" height="3580.97"/>
    </clipPath>
    <clipPath id="clippath-38">
      <rect class="cls-1" x="-2406.15" y="276.23" width="527.41" height="1123.16"/>
    </clipPath>
    <clipPath id="clippath-39">
      <rect class="cls-1" x="-2702.05" y="-1174.97" width="3222.14" height="3580.97"/>
    </clipPath>
    <clipPath id="clippath-40">
      <rect class="cls-1" x="-2406.15" y="276.23" width="527.41" height="1123.16"/>
    </clipPath>
    <clipPath id="clippath-41">
      <rect class="cls-1" x="-2702.05" y="-1174.97" width="3222.14" height="3580.97"/>
    </clipPath>
    <clipPath id="clippath-42">
      <rect class="cls-1" x="-2535.07" y="147.43" width="941.65" height="1476.77"/>
    </clipPath>
    <clipPath id="clippath-43">
      <rect class="cls-1" x="-2702.05" y="-1174.97" width="3222.14" height="3580.97"/>
    </clipPath>
    <clipPath id="clippath-44">
      <rect class="cls-1" x="-2702.05" y="-7.23" width="1108.63" height="1657.65"/>
    </clipPath>
    <clipPath id="clippath-46">
      <rect class="cls-1" x="-2702.05" y="-1174.97" width="3222.14" height="3580.97"/>
    </clipPath>
    <clipPath id="clippath-47">
      <rect class="cls-1" x="-2406.15" y="276.23" width="527.41" height="1123.16"/>
    </clipPath>
    <clipPath id="clippath-48">
      <rect class="cls-1" x="-2702.05" y="-1174.97" width="3222.14" height="3580.97"/>
    </clipPath>
    <clipPath id="clippath-49">
      <rect class="cls-1" x="-2406.15" y="276.23" width="527.41" height="1123.16"/>
    </clipPath>
    <clipPath id="clippath-50">
      <rect class="cls-1" x="-2702.05" y="-1174.97" width="3222.14" height="3580.97"/>
    </clipPath>
    <clipPath id="clippath-51">
      <rect class="cls-1" x="-2535.07" y="147.43" width="941.65" height="1476.77"/>
    </clipPath>
    <clipPath id="clippath-52">
      <rect class="cls-1" x="-2702.05" y="-1174.97" width="3222.14" height="3580.97"/>
    </clipPath>
    <clipPath id="clippath-53">
      <rect class="cls-1" x="-2702.05" y="-7.23" width="1108.63" height="1657.65"/>
    </clipPath>
    <clipPath id="clippath-55">
      <rect class="cls-1" x="-2702.05" y="-1174.97" width="3222.14" height="3580.97"/>
    </clipPath>
    <clipPath id="clippath-56">
      <rect class="cls-1" x="-2406.15" y="276.23" width="527.41" height="1123.16"/>
    </clipPath>
    <clipPath id="clippath-57">
      <rect class="cls-1" x="-2702.05" y="-1174.97" width="3222.14" height="3580.97"/>
    </clipPath>
    <clipPath id="clippath-58">
      <rect class="cls-1" x="-2406.15" y="276.23" width="527.41" height="1123.16"/>
    </clipPath>
    <clipPath id="clippath-59">
      <rect class="cls-1" x="-2702.05" y="-1174.97" width="3222.14" height="3580.97"/>
    </clipPath>
    <clipPath id="clippath-60">
      <rect class="cls-1" x="-2535.07" y="147.43" width="941.65" height="1476.77"/>
    </clipPath>
    <clipPath id="clippath-61">
      <rect class="cls-1" x="-2702.05" y="-1174.97" width="3222.14" height="3580.97"/>
    </clipPath>
    <clipPath id="clippath-62">
      <rect class="cls-1" x="-2702.05" y="-7.23" width="1108.63" height="1657.65"/>
    </clipPath>
    <clipPath id="clippath-64">
      <rect class="cls-1" x="-2702.05" y="-1174.97" width="3222.14" height="3580.97"/>
    </clipPath>
    <clipPath id="clippath-65">
      <rect class="cls-1" x="-2406.15" y="276.23" width="527.41" height="1123.16"/>
    </clipPath>
    <clipPath id="clippath-66">
      <rect class="cls-1" x="-2702.05" y="-1174.97" width="3222.14" height="3580.97"/>
    </clipPath>
    <clipPath id="clippath-67">
      <rect class="cls-1" x="-2406.15" y="276.23" width="527.41" height="1123.16"/>
    </clipPath>
    <clipPath id="clippath-68">
      <rect class="cls-1" x="-2702.05" y="-1174.97" width="3222.14" height="3580.97"/>
    </clipPath>
    <clipPath id="clippath-69">
      <rect class="cls-1" x="-2535.07" y="147.43" width="941.65" height="1476.77"/>
    </clipPath>
    <clipPath id="clippath-70">
      <rect class="cls-1" x="-2702.05" y="-1174.97" width="3222.14" height="3580.97"/>
    </clipPath>
    <clipPath id="clippath-71">
      <rect class="cls-1" x="-2702.05" y="-7.23" width="1108.63" height="1657.65"/>
    </clipPath>
    <clipPath id="clippath-73">
      <rect class="cls-1" x="-2702.05" y="-1174.97" width="3222.14" height="3580.97"/>
    </clipPath>
    <clipPath id="clippath-74">
      <rect class="cls-1" x="-2406.15" y="276.23" width="527.41" height="1123.16"/>
    </clipPath>
    <clipPath id="clippath-75">
      <rect class="cls-1" x="-2702.05" y="-1174.97" width="3222.14" height="3580.97"/>
    </clipPath>
    <clipPath id="clippath-76">
      <rect class="cls-1" x="-2406.15" y="276.23" width="527.41" height="1123.16"/>
    </clipPath>
    <clipPath id="clippath-77">
      <rect class="cls-1" x="-2702.05" y="-1174.97" width="3222.14" height="3580.97"/>
    </clipPath>
    <clipPath id="clippath-78">
      <rect class="cls-1" x="-2535.07" y="147.43" width="941.65" height="1476.77"/>
    </clipPath>
    <clipPath id="clippath-79">
      <rect class="cls-1" x="-2702.05" y="-1174.97" width="3222.14" height="3580.97"/>
    </clipPath>
    <clipPath id="clippath-80">
      <rect class="cls-1" x="-2702.05" y="-7.23" width="1108.63" height="1657.65"/>
    </clipPath>
    <clipPath id="clippath-82">
      <rect class="cls-1" x="-2702.05" y="-1174.97" width="3222.14" height="3580.97"/>
    </clipPath>
    <clipPath id="clippath-83">
      <rect class="cls-1" x="-2406.15" y="276.23" width="527.41" height="1123.16"/>
    </clipPath>
    <clipPath id="clippath-84">
      <rect class="cls-1" x="-2702.05" y="-1174.97" width="3222.14" height="3580.97"/>
    </clipPath>
    <clipPath id="clippath-85">
      <rect class="cls-1" x="-2406.15" y="276.23" width="527.41" height="1123.16"/>
    </clipPath>
    <clipPath id="clippath-86">
      <rect class="cls-1" x="-2702.05" y="-1174.97" width="3222.14" height="3580.97"/>
    </clipPath>
    <clipPath id="clippath-87">
      <rect class="cls-1" x="-2535.07" y="147.43" width="941.65" height="1476.77"/>
    </clipPath>
    <clipPath id="clippath-88">
      <rect class="cls-1" x="-2702.05" y="-1174.97" width="3222.14" height="3580.97"/>
    </clipPath>
    <clipPath id="clippath-89">
      <rect class="cls-1" x="-2702.05" y="-7.23" width="1108.63" height="1657.65"/>
    </clipPath>
    <clipPath id="clippath-91">
      <rect class="cls-1" x="-2702.05" y="-1174.97" width="3222.14" height="3580.97"/>
    </clipPath>
    <clipPath id="clippath-92">
      <rect class="cls-1" x="-2406.15" y="276.23" width="527.41" height="1123.16"/>
    </clipPath>
    <clipPath id="clippath-93">
      <rect class="cls-1" x="-2702.05" y="-1174.97" width="3222.14" height="3580.97"/>
    </clipPath>
    <clipPath id="clippath-94">
      <rect class="cls-1" x="-2406.15" y="276.23" width="527.41" height="1123.16"/>
    </clipPath>
    <clipPath id="clippath-95">
      <rect class="cls-1" x="-2702.05" y="-1174.97" width="3222.14" height="3580.97"/>
    </clipPath>
    <clipPath id="clippath-96">
      <rect class="cls-1" x="-2535.07" y="147.43" width="941.65" height="1476.77"/>
    </clipPath>
    <clipPath id="clippath-97">
      <rect class="cls-1" x="-2702.05" y="-1174.97" width="3222.14" height="3580.97"/>
    </clipPath>
    <clipPath id="clippath-98">
      <rect class="cls-1" x="-2702.05" y="-7.23" width="1108.63" height="1657.65"/>
    </clipPath>
  </defs>
  <path class="cls-2" d="M553.32,28.25c-31.3,6.7-63.6,28-107.4,71C285.92,256.35,65.32,644.95,23.42,843.75c-7.5,35.2-10,69.4-6.7,89.4,7.9,47.1,38.5,74.1,112,98.6,81.7,27.2,210,44.5,367.6,49.6,40.2,1.3,148.4.7,183-1.1,164.6-8.2,281.7-26.9,357.8-57.1,58.7-23.4,83.7-50.1,89.3-95.4,2.2-17.2-.4-49.2-6.1-77.6-23.6-116-109.1-302.7-221.8-483.9-81-130.3-163-235.1-226.7-289.9-47.8-41.2-83.5-55.6-118.5-48.1ZM429.12,274.95l5.4.6,8,12.1c59.5,89.1,169,171.8,293.6,221.5,64.4,25.7,134.3,43.4,194.5,49.3l12.9,1.2,3,5.9c1.6,3.3,2.7,6.1,2.5,6.4-.8.8-37.7-3.6-56.6-6.7-105.5-17.4-212.3-59.8-302.1-120.1-70.8-47.5-124-99.9-163.7-161.2-6.8-10.6-7-10.2,2.5-9ZM358.72,306.95c4.5,9.2,16.2,28.7,25.7,42.8,17.2,25.5,36.1,47.7,63.5,74.5,97.1,95,241.2,166.3,384.9,190.4,38,6.4,60.5,8.1,105.2,8.1h37.1l2.6,5.2,2.6,5.3-2.8.7c-1.5.5-19.8.8-40.7.8-40.6,0-54.7-.9-90.5-6.1-135-19.4-274.1-81.4-376.4-167.8-18-15.2-47.4-44.2-62.1-61.3-23.7-27.6-39.5-50.3-53.9-77.9l-5.9-11.1,3.2-4.7c1.8-2.5,3.5-4.6,3.9-4.6s2,2.6,3.6,5.7ZM348.82,322.25c10.7,21.3,27.9,48.4,43.7,68.8,11.2,14.4,63.3,68,78.7,80.9,114.7,96,267.5,158.3,415.6,169.3,25,1.8,73.4,1,92.1-1.5l4.1-.6,3.6,8c2.1,4.4,3.7,8.4,3.7,8.8s-2.6,1.6-5.8,2.5c-3.2,1-8.7,3.7-12.1,6-3.4,2.4-7.2,4.8-8.4,5.5-3.7,1.9-36.8,3.6-65.6,3.2-26.1-.4-27.4-.5-28.5-2.4-.6-1.1-3-3.9-5.3-6.1-5.7-5.8-13.4-8.6-24.9-9.2-11.5-.5-18,1.4-23.2,6.8l-3.6,3.7-13.5-2.4c-39.8-7-81.6-18-119.8-31.5-7.3-2.6-11.3-4.5-11.3-5.4,0-2.9-4-9.1-8.5-13.3-10.8-10-30.3-13.9-40.2-8.1l-3.2,1.9-27.8-13.9c-26.7-13.4-50.7-26.8-68.8-38.5-7.9-5-8.5-5.7-8.5-8.8,0-5-4.4-12.9-10.4-18.5-9.4-8.9-21.6-13.5-30.2-11.3q-4.5,1.1-10.7-3.6c-8.7-6.7-31.6-26.5-41.5-35.9l-8.4-7.9-.2-7c-.2-9-4.5-17.4-12.4-24.6-7.1-6.5-12.2-9-19.4-9.7l-5.9-.5-5.8-7.1c-7.3-9-17.8-23.6-24.9-34.6-6.3-9.7-19.2-33.4-19.2-35.3,0-1.1,22-34.7,22.7-34.7.1,0,1.9,3.1,3.8,7ZM329.12,373.75c10.6,18.9,29,47.1,35.5,54.2,1.9,2.1,1.9,2.3.2,5.9-3.6,7.6.5,20.3,9.7,30,8.8,9.3,18.8,13.7,26.7,11.7l3.8-1,13.9,13c7.7,7.1,20.2,18.2,27.9,24.7l14,11.7.1,5.1c.3,9.9,10.3,22.5,22.1,28,7.1,3.2,17.6,4.2,21.8,1.9,2.7-1.4,3.1-1.2,16.2,7,25.8,16.2,58.6,34,83.1,45.2,7.1,3.2,9.2,4.6,9.2,6.2,0,10.6,17.3,23.4,33.3,24.6,7.7.6,13.7-.6,17-3.5,1.6-1.4,3.9-.9,27,6.6,42.5,13.8,75.7,21.8,119.3,28.7,2.2.4,4,1.7,5.8,4.3,10,14.3,39.3,17.8,51,6l4-4,24.6.1c22,.1,43.2-.8,59.2-2.5l5.6-.6-.5,4.3c-.3,2.4-.7,4.6-.9,4.8-1.1,1.3-34.7,8.5-48.9,10.6-23.4,3.3-40.3,4.5-65,4.5-33.3,0-68-2.9-100.5-8.3l-13.4-2.3-2.1-3.8c-6.9-13.2-28-22.3-45.1-19.6-7.2,1.2-9.2,1.9-14,5.6l-3.2,2.3-15.9-4.9c-17.3-5.4-35.7-11.9-55.3-19.8-18.6-7.4-17.5-6.8-18.9-12.1-2.4-9.6-13.4-19.9-26.8-25.2-7.7-3-20.9-3.3-27.1-.5l-4.2,1.9-12.7-7.3c-25.8-14.9-47.7-29.4-70.3-46.7-19.3-14.7-18.6-14-19.4-19.8-.3-2.7-1.6-6.9-2.7-9.2-5.6-11.7-20.6-22.3-31.4-22.3q-5.2,0-12.6-7.8c-13.5-14.1-26.8-30.6-36.8-45.5l-5.2-7.8,2.2-4.5c1.8-3.8,2.1-5.7,1.7-11.5-1.6-21.2-23.8-41.7-36.3-33.5-3.4,2.2-6.5,8.9-6.5,14.1,0,3.7,2.3,14.1,3.3,15.2.3.2,3.1-3.9,6.3-9.1l5.9-9.6.3,17.5.2,17.4,2.7,2c1.4,1.2,4.3,2.6,6.4,3.3,2.9.8,4.5,2.2,6.4,5.3,6.5,11.2,26,36.3,40.8,52.6l7,7.6.1,6.9c.2,8.6,3.4,15,11.6,22.8,8.9,8.5,19.1,12.5,27.2,10.7,3.3-.8,4-.4,13.4,7.1,22.7,18,55.8,40.3,82.6,55.3,9.3,5.3,11.8,7.2,11.8,8.9,0,1.1,1.1,4.5,2.5,7.4,8.2,17.6,37.2,29.3,52.7,21.2l4-2.1,13.6,5.7c17.4,7.3,44.6,17,63.1,22.6,12.5,3.7,14.5,4.6,15.3,6.8,2.9,7.9,11.6,15.3,22,19,15.7,5.5,30.7,4,39-3.7l2.7-2.6,12.8,2.2c39.9,6.6,66.8,8.5,108.6,7.8,42.1-.7,70.8-4.1,101.2-12.1l12.5-3.3,4.3,2.1c3.5,1.8,5.9,2.1,14.7,2,8.8,0,11.6-.4,17.5-2.7,3.8-1.4,7-2.5,7.1-2.4,1.9,2.5,27.8,68.7,27.1,69.3-2.1,2.1-37.7,12.9-56.1,17-17.1,3.8-54,9.4-61.8,9.4-.5,0-.8,4.5-.8,10,0,11.7-1.8,10.8,16.2,8,34.1-5.3,72.4-15.6,102.1-27.5l5.7-2.4,1.5,3.5c5.2,12.6,17.5,56.6,22,78.9,5.6,28.1,7,49.5,4.1,65.6-1.8,10.1-3.8,14-10,19.6-46,41.6-197.4,70.9-405.6,78.3-66.6,2.4-167.3.9-237-3.5-132.5-8.4-244.9-29.1-299.9-55.1-21.2-10.1-36.3-22.1-39.5-31.6-2.7-8.3-3.9-24.9-2.7-38.8,5.5-64.8,40.8-164.2,102.9-290.2l19.5-39.7,6.1,5.2c3.3,2.9,11.1,9.7,17.2,15.3,60.2,54.2,146.3,108.6,230.9,145.8,119.4,52.7,242.1,81.4,359.4,84.3,25.8.6,26.4.6,25.7-1.3-1.9-4.7-2.9-14.6-1.9-18.9l1-4.4-5.1-.5c-2.8-.3-10.7-1-17.6-1.6-127.3-10.8-271.2-63-380-137.8-25.1-17.3-53.5-39.8-71.9-56.9-7.3-6.7-7.4-7-7.6-12-.5-14-17.4-31.2-32.6-33l-4.9-.6v35.8l3.5,2.8c6.3,5,13.6,8.1,19.8,8.3,5.7.3,5.9.3,14.5,8.2,88.1,80.2,209.4,143.5,336.7,175.7,41.8,10.6,76.8,16.6,124,21.5,7.2.7,5.1.8-10.5.4-149.4-3.6-327.8-59.5-465.5-145.9-47.1-29.5-99.4-69.7-126.9-97.4l-6.9-6.9,6.3-11.8c29.2-55,69.8-123.7,108.3-183.6,1-1.6,1.5-1.2,3.5,3,1.3,2.6,4.9,9.2,8,14.7Z"/>
  <path class="cls-3" d="M863.62,770.05c-15.4,5.5-23.1,16.9-22.1,33.1.7,12.2,6.6,21.2,17.5,26.6,5,2.5,7,2.9,14.3,3,7.3,0,9.3-.4,14.2-2.8,6.2-3,11.5-8.3,15-14.9,2-3.7,2.3-5.8,2.3-14.3,0-9.2-.2-10.4-3-15.4-7.5-13.5-24.3-20.3-38.2-15.3Z"/>
  <path class="cls-3" d="M405.82,778.65c-25,4.9-40.3,18.7-43.5,39.3-2.6,16.7,4.3,32,19.4,42.7,12.2,8.8,21.1,12,50.7,18.6,10.7,2.3,21.7,7.2,27.1,11.9,5.3,4.6,8.2,12.1,7.5,19.7-1.4,18.1-18.7,30.3-42.9,30.4-13.3,0-23.3-3.6-31.8-11.6-7.5-7-13-19.5-13-29.4v-3h-22v3.4c0,1.9.6,6.7,1.4,10.8,4.7,24.3,20,40.4,44.5,47,5.7,1.5,10.8,2,20.1,2.1,21.8,0,37.7-5.4,50.1-17,7.7-7.3,12.4-15.4,14.4-25,6.7-31.6-12.2-50.3-61.3-60.3-18-3.7-27-7.6-34.7-15.3-4.2-4.3-5.7-6.7-7-11.2-3.7-12.6,1.4-23.6,14.1-29.9,7.4-3.7,14.3-4.9,25.8-4.4,9.2.3,10.7.7,16.4,3.7,10,5.4,17.7,15.4,20.7,27.1l1.1,4.5,11.3.3,11.2.3-.6-4.8c-3.3-25.3-15.5-40.7-37.9-47.9-10-3.2-29.9-4.2-41.1-2Z"/>
  <path class="cls-3" d="M162.32,868.25v88h22v-176h-22v88Z"/>
  <path class="cls-3" d="M214.32,868.15v88.1h41.8c46.7,0,50.8-.5,63.2-7.1,33.2-17.7,36.2-59.2,5.7-79l-5.7-3.7,3.4-2.1c4.4-2.8,11-9.9,13.4-14.8,6.4-12.4,5.7-30.7-1.5-43.2-6.1-10.4-17.2-19.3-29.2-23.3-6.3-2.1-8.6-2.2-48.8-2.6l-42.3-.3v88ZM301.82,803.45c10.6,5.6,16.6,15.1,16.7,26.3,0,10.6-4.8,18.1-15.5,23.7-4.1,2.2-5.2,2.3-35.4,2.6l-31.3.3v-56.3l30.3.4,30.2.3,5,2.7ZM305.32,879.55c6.6,3.4,13.4,9.8,16.2,15.2,1.3,2.4,2.3,6.7,2.6,10.6.4,5.6.1,7.5-2,12.1-4.7,10.2-14,16.8-26.5,18.8-3.2.6-17.8,1-32.5,1h-26.8v-61.1l31.8.3,31.7.3,5.5,2.8Z"/>
  <path class="cls-3" d="M803.32,862.75c-5.7,1.8-12.4,7.5-15.1,12.8-2.9,5.7-3.5,14-1.5,20.9,4.9,17.1,27.3,23.6,43.4,12.6l4.2-2.9v-20.9h-24v10h13v3c0,9.2-18.7,8.5-24.3-.9-6.5-11.1.9-26.1,13-26.1,4.7,0,7.5,1.1,10.9,4.2q2.2,1.9,6.9-.5l4.8-2.4-4-4c-6.7-6.7-17.1-8.9-27.3-5.8Z"/>
  <path class="cls-3" d="M517.32,888.25v26h11v-52h-11v26Z"/>
  <path class="cls-3" d="M538.52,887.95l.3,25.8,5.3.3,5.2.3v-16.5c0-9.2.3-16.6.8-16.6.4,0,6.1,7.5,12.7,16.6l12,16.5,5-.3,5-.3.3-25.8.2-25.7h-11v15.5c0,8.5-.3,15.5-.7,15.5-.5-.1-5.9-7-12.1-15.5l-11.3-15.5h-11.9l.2,25.7Z"/>
  <path class="cls-3" d="M592.32,867.25v5h15v42h11v-42h15v-10h-41v5Z"/>
  <path class="cls-3" d="M640.32,888.25v26l18.3-.2,18.2-.3.3-4.8.3-4.7h-26.1v-12h25v-10h-25v-9.9l12.8-.3,12.7-.3.3-4.8.3-4.7h-37.1v26Z"/>
  <path class="cls-3" d="M685.32,888.25v26h33v-10h-22v-42h-11v26Z"/>
  <path class="cls-3" d="M726.32,888.25v26l16.3-.2,16.2-.3.3-4.8.3-4.7h-22.1v-42h-11v26Z"/>
  <path class="cls-3" d="M766.32,888.25v26h11v-52h-11v26Z"/>
  <path class="cls-3" d="M843.32,888.25v26l18.3-.2,18.2-.3.3-4.8.3-4.7h-26.1v-12h25v-10h-25v-9.9l12.8-.3,12.7-.3.3-4.8.3-4.7h-37.1v26Z"/>
  <path class="cls-3" d="M888.52,887.95l.3,25.8,5.3.3,5.2.3v-16.5c0-9.2.3-16.6.8-16.6.4.1,6.1,7.5,12.6,16.6l12,16.5,5-.3,5.1-.3.3-25.8.2-25.7h-11l-.2,16.1-.3,16.1-11.8-16.1-11.9-16.1h-11.8l.2,25.7Z"/>
  <path class="cls-3" d="M942.32,867.25v5h15v42h11v-42h15v-10h-41v5Z"/>
  <path class="cls-3" d="M592.82,928.75c-.5.2-2.2.6-3.8.9-4.1,1-6.7,4-6.7,8.2,0,6.3,1.7,7.8,11.6,10.4,5.2,1.3,7.2,3.3,5.4,5.5-1.7,2.1-7.9,1.9-11.7-.5l-3.2-1.9-1.6,2.2c-2.2,3.1-2,3.6,2.8,5.7,5,2.3,10.5,2.5,15.2.6,3.9-1.7,5.5-4.2,5.5-8.6,0-5.8-1.9-7.5-11.6-10-2.3-.5-4.8-1.7-5.5-2.6-3.2-3.9,5.7-5.5,11.3-2.1,1.6,1,2.2.9,3.4-.7.8-1.1,1.4-2.3,1.4-2.8,0-1.7-9.7-5.1-12.5-4.3Z"/>
  <path class="cls-3" d="M693.32,929.35c-4.3.9-8,5.1-8,8.8,0,4.7,3.2,7.7,10.6,9.7,3.6.9,6.8,2.4,7.1,3.1,1.6,4.2-6.8,5.8-12.4,2.4l-3.1-2-1.7,2.5c-2,3.1-1.5,3.8,4,6,10.2,3.9,20-.3,20-8.6,0-5.2-1.8-6.8-10.2-9.5-5-1.7-6.8-2.7-6.8-4,0-3.3,3-4.2,8.2-2.3,4.4,1.6,4.9,1.6,6.5.1,2.5-2.2,2.3-2.9-1.4-4.6-4.5-2-8.7-2.6-12.8-1.6Z"/>
  <path class="cls-3" d="M721.12,929.45c-5,1.3-7.3,4.1-7.3,9s2.5,7.2,8.8,8.8c6.7,1.7,8.7,2.8,8.7,4.9,0,3.6-7.3,4.3-12.5,1.1l-3.2-2-1.4,2.6c-1.2,2.4-1.2,2.8.9,4.5,2.7,2.1,9.8,3.4,14.6,2.5,5.1-1,7.6-3.5,8.3-8.1.7-5.6-2-8.7-9.4-10.9-7.2-2-8.8-3-8-5,1-2.6,5.3-3,9.7-.8l4,1.9,1.5-2.3q2-3.1-1.2-4.7c-3.9-2-9.2-2.5-13.5-1.5Z"/>
  <path class="cls-3" d="M762.52,929.25c-5,1.2-8.2,4.6-8.2,9,0,4.7,2.8,7.3,10.2,9.5,6.6,1.9,8.7,3.7,6.8,6-1.7,2.1-7.9,1.9-11.7-.5l-3.2-1.9-1.6,2.2c-2.2,3.2-2,3.6,3.1,5.9,11.6,5.1,23.6-1.6,20.2-11.3-1.1-3.3-4.2-5.2-11.1-7-5.8-1.4-7.4-3.1-5.2-5.3,2-1.9,3.8-2,9-.1,3.4,1.2,4.2,1.2,5.4,0,3.9-3.9-5.5-8.3-13.7-6.5Z"/>
  <path class="cls-3" d="M928.02,929.75c-7.2,2.5-10.7,7.5-10.7,15.2,0,6.8,2.6,11.3,8,14,2.4,1.3,6,2.3,8,2.3,5.2,0,12-3.8,14.2-8,2.6-5,2.4-12.8-.5-17-4.1-6.2-12.2-9-19-6.5ZM939.12,936.55c2.4,1.9,4.2,7.3,3.6,10.4-2.1,10.4-15.5,11.3-18.5,1.3-2.2-7.1,3.8-14.7,10.5-13.5,1.6.3,3.6,1.1,4.4,1.8Z"/>
  <path class="cls-3" d="M517.32,944.75v15.5h10.4c8.7,0,10.8-.3,12.7-1.9,3.2-2.6,3.3-9.5.3-12-2.1-1.7-2.1-1.8-.3-4,2.7-3.3,2.4-7.7-.6-10.6-2.2-2.3-3.1-2.5-12.5-2.5h-10v15.5ZM535.12,938.45c.4,3.1-2,4.2-7.9,3.6-3-.3-3.4-.7-3.7-3.6l-.3-3.3,5.8.3c5.5.3,5.8.4,6.1,3ZM535.72,949.45c2,3.3-.4,5.3-6.5,5.3-4.9,0-5.4-.2-5.7-2.3-.7-4.5.4-5.3,5.9-5,3.6.2,5.5.8,6.3,2Z"/>
  <path class="cls-3" d="M548.32,940.45c0,7,.5,12.2,1.3,13.7,4.3,8.4,20,9.5,24.8,1.7,1.6-2.6,1.9-5,1.9-14.9v-11.7h-5.8l-.4,10.9c-.4,12.6-1.6,15.1-7.5,15.1s-7.3-2.4-7.3-15v-11h-7v11.2Z"/>
  <path class="cls-3" d="M611.32,944.75v15.5h6v-31h-6v15.5Z"/>
  <path class="cls-3" d="M624.32,944.75v15.5h6.9l.3-9.6.3-9.5,6.8,9.5c6.4,8.9,7.1,9.6,10.3,9.6h3.4v-31h-6.9l-.3,9.2-.3,9.2-6.9-9.2c-6.2-8.5-7.1-9.2-10.2-9.2h-3.4v15.5Z"/>
  <path class="cls-3" d="M658.32,944.75v15.5h23v-2.5c0-2.5-.1-2.5-8-2.5h-8v-8h7.5c7.3,0,7.5-.1,7.5-2.5s-.2-2.5-7.5-2.5h-7.5v-7h16v-6h-23v15.5Z"/>
  <path class="cls-3" d="M789.52,931.25c-10.2,6.2-9.6,22.7,1.1,27.9,11.8,5.7,23.7-1.4,23.7-14,0-9.9-6-15.9-16-15.9-3.7,0-6.6.6-8.8,2ZM805.02,937.35c2.9,2.8,3.7,7,2.3,11.4s-4.4,6.5-9.1,6.5c-7.2,0-11.6-7.8-8.2-14.7,3.1-6.5,9.9-7.9,15-3.2Z"/>
  <path class="cls-3" d="M819.32,944.75v15.5h20v-2.5c0-2.4-.2-2.5-6.5-2.5h-6.5v-26h-7v15.5Z"/>
  <path class="cls-3" d="M843.52,941.75c.3,12.4.3,12.5,3.3,15.5,5.9,5.8,18.7,5.1,22.6-1.4,1.6-2.6,1.9-5,1.9-14.9v-11.7h-7v11.4c0,10.7-.1,11.6-2.2,13-3.1,2.2-7.4,2-9.8-.4-1.8-1.8-2-3.3-2-13v-11h-7.2l.4,12.5Z"/>
  <path class="cls-3" d="M876.32,932.25c0,2.9.2,3,4.5,3h4.5v25h7v-25h4.5c4.3,0,4.5-.1,4.5-3v-3h-25v3Z"/>
  <path class="cls-3" d="M905.32,944.75v15.5h7v-31h-7v15.5Z"/>
  <path class="cls-3" d="M954.32,944.75v15.5h6.9l.3-9.7.3-9.8,7,9.8c6.3,8.9,7.2,9.7,10.2,9.7h3.3v-31h-5.9l-.3,9.7-.3,9.7-7.3-9.7c-6.7-9-7.5-9.7-10.7-9.7h-3.5v15.5Z"/>
</svg>