<?xml version="1.0" encoding="UTF-8"?>
<svg id="Layer_2" data-name="Layer 2" xmlns="http://www.w3.org/2000/svg" viewBox="0 0 94.84 81.75">
  <defs>
    <style>
      .cls-1 {
        fill: #1589c5;
      }

      .cls-2 {
        fill: #243a54;
      }
    </style>
  </defs>
  <g id="Printer_s_Marks" data-name="Printer&amp;apos;s Marks">
    <path class="cls-1" d="m59.37,43.72c0,4.2,0,8.4,0,12.6-2.87-3.42-5.7-6.87-8.5-10.35-2.54-3.15-4.9-6.9-8.18-9.36-4.13-3.44-10.16-5.41-15.39-3.45-.42.16-.83.34-1.22.55-6.19,3.28-8.94,10.75-8.29,17.43.33,3.37,1.74,6.57,3.97,9.12,1.13,1.29,2.45,2.41,3.9,3.32s3.47,1.59,4.71,1.82c0,0,6.35.7,9.46-2.45l-1.31-2.25s-1.71.9-3.11,1.25c-4.35,1.09-8.75-.37-11.23-3.14-2.72-3.03-3.99-7.75-3.64-11.75.35-4.03,2.81-8.27,6.42-10.22,2.76-1.49,6.15-1.85,9.2-.93,3.47,1.04,5.82,3.73,8.08,6.4,1.25,1.48,2.31,3.09,3.53,4.59,0,0,9.9,12.3,9.9,12.3h4.7v-15.39s-3-.1-3-.1Z"/>
    <path class="cls-2" d="m53.5,37.5c-.02-.26,3.36-1.51,3.68-1.6,1.41-.38,2.87-.54,4.33-.49,2.8.1,5.61,1.01,7.83,2.74,7.69,5.96,8.84,18.26,2.56,25.6-2.6,3.04-6.46,5.27-10.52,5.35-2.58.05-5.16-.65-7.38-1.95-2.44-1.43-4.27-3.61-6.01-5.81-1.06-1.34-2.3-2.58-3.41-3.9-3.62-4.32-7.13-8.73-10.67-13.1,0,4.57,0,9.13,0,13.7l-2.95-.05c0-5.53,0-11.06,0-16.59h3.75c.21,0,.44,0,.63.08.26.11.46.34.63.56,4.21,5.19,8.42,10.38,12.63,15.57,3.12,3.85,7.62,8.48,13.05,8.24,4.92-.22,9.06-4.4,10.53-8.86,1.51-4.58.76-9.85-2.06-13.79-2.32-3.24-5.99-5.06-9.99-4.64-1.79.19-3.51,1-5.2,1.59-.48-.88-.96-1.76-1.44-2.64,0,0,0,0,0-.01Z"/>
    <g>
      <path class="cls-2" d="m90.96,56.1c.82,1.88,1.83,3.7,2.42,5.65.7,2.27,1.47,4.66,1.46,6.99-.03,4.77-3.49,7.22-7.37,8.81-8.08,3.3-27.47,3.88-25.26,3.79s-6.58.38-6.58.38c0,0-.51-.87-1.4-2.64s-1.25-3.08-1.25-3.08l21.68.76s9.02-.2,13.27-2.45c4.18-2.21,5.11-4.45,4.73-8.15-.31-2.98-1.39-5.87-2.13-8.8-.08-.32-.19-.64-.29-.95.23-.1.47-.2.7-.3Z"/>
      <path class="cls-2" d="m72.07,33.6c-4.19-7.71-7.97-14.88-11.99-21.91-1.29-2.26-3.02-4.35-4.89-6.16-4.57-4.44-10.23-3.81-14.76.89-1.21,1.26-2.39,2.53-3.83,4.05C38.23,5.61,43.09.79,47.57.11c4.05-.61,7.45,1.34,10.34,4.1,7.03,6.71,11.99,14.94,16.89,23.21.31.52.3,1.52,0,2.06-.76,1.41-1.76,2.69-2.74,4.11Z"/>
      <path class="cls-2" d="m13.38,81.5c-3.82-.53-7.58-1.26-10.5-4.06-2.16-2.08-3.16-4.51-2.82-7.71.91-8.49,4.73-15.88,8.38-23.35,1.09-2.22,2.19-4.45,3.5-6.55.42-.68,1.48-1.31,2.26-1.33,1.54-.03,3.09.39,4.94.67-1.63,2.36-3.36,4.56-4.76,6.95-3.54,6.08-7.43,12.02-10.27,18.42-3.88,8.76.02,13.85,8.78,15.61.46.09.91.27,1.36.41-.29.31-.58.63-.87.94Z"/>
      <path class="cls-2" d="m20.8,25.77c2.4-3.75,4.35-6.88,6.42-9.92.27-.4,1.2-.54,1.81-.5,1.9.12,3.79.38,6.07.63-1.46,2.19-2.82,4.24-4.19,6.27-.18.27-.43.49-.63.74-.87,1.12-1.58,3.01-2.62,3.2-2,.38-4.18-.19-6.86-.42Z"/>
      <path class="cls-2" d="m40.53,81.16c-4.46-.3-8.17-.53-11.87-.83-.41-.03-1.01-.41-1.15-.77-.78-1.94-1.45-3.92-2.2-6.01,3.71.23,7.02.51,10.33.62,1.35.04,2.25.4,2.74,1.73.59,1.6,1.29,3.15,2.16,5.27Z"/>
      <path class="cls-2" d="m82.27,41.51c2.04,3.96,3.53,7.1,5.26,10.11.78,1.35.39,2.19-.46,3.16-1.05,1.2-2.05,2.44-3.34,4-1.5-2.94-2.88-5.56-4.18-8.22-.5-1.02-1.42-2.4-1.09-3.15.85-1.95,2.29-3.64,3.81-5.9Z"/>
      <path class="cls-1" d="m14.61,35.39c1.37-2.19,2.65-4.36,4.08-6.43.27-.4,1.12-.62,1.67-.57,1.86.19,3.71.54,5.66.85-.99,1.54-1.96,3.08-2.95,4.6-1.92,2.95-2.99,3.16-8.45,1.55Z"/>
      <path class="cls-1" d="m73.07,36.83c1.19-1.73,2.4-3.47,3.92-5.67,1.52,2.82,2.78,5.18,4.06,7.56-1.32,1.97-2.61,3.88-4.11,6.11-1.39-2.87-2.62-5.41-3.88-8Z"/>
      <path class="cls-1" d="m41.15,74.64s4.18.55,6.26.51c1.92-.04,2.92.8,3.53,2.45.43,1.18.91,2.34,1.57,4.02-2.69-.19-5.26-.08-7.68-.63-1.4-.54-3.68-6.35-3.68-6.35Z"/>
      <path class="cls-2" d="m13.38,81.5c.29-.31.58-.63.87-.94,2.65.2,5.3.4,7.94.6l-.02.58c-2.93-.08-5.87-.17-8.8-.25Z"/>
    </g>
  </g>
</svg>