<?xml version="1.0" encoding="UTF-8"?>
<svg id="Layer_1" data-name="Layer 1" xmlns="http://www.w3.org/2000/svg" xmlns:xlink="http://www.w3.org/1999/xlink" viewBox="0 0 32 32">
  <defs>
    <style>
      .cls-1 {
        fill: url(#linear-gradient-2);
      }

      .cls-1, .cls-2 {
        isolation: isolate;
      }

      .cls-3 {
        fill: url(#linear-gradient);
      }

      .cls-4 {
        fill: #ffffff;
      }

      .cls-5 {
        fill: #f36e21;
      }

      .cls-6 {
        fill: #339746;
      }
    </style>
    <linearGradient id="linear-gradient" x1="1.36" y1="18.82" x2="15.91" y2="18.82" gradientUnits="userSpaceOnUse">
      <stop offset=".51" stop-color="#cf633d"/>
      <stop offset=".62" stop-color="#d1693e"/>
      <stop offset=".77" stop-color="#da7a42"/>
      <stop offset=".94" stop-color="#e79648"/>
      <stop offset="1" stop-color="#eda24b"/>
    </linearGradient>
    <linearGradient id="linear-gradient-2" x1="15.91" y1="18.82" x2="30.46" y2="18.82" gradientUnits="userSpaceOnUse">
      <stop offset="0" stop-color="#c3d153"/>
      <stop offset=".21" stop-color="#b0c54c"/>
      <stop offset=".44" stop-color="#a2bc48"/>
      <stop offset=".64" stop-color="#9eba47"/>
      <stop offset="1" stop-color="#7ba640"/>
    </linearGradient>
  </defs>
  <path class="cls-3" d="M1.36,20.28s.73-.98,1.06-1.32c.01-.01.02-.02.03-.03.31-.3-.02.02-.02.02,0,0,2.43.91,6.31,0,0,0,2.74-1.04,6.17.74,0,0-1.03-1.45-5.08-1.45,0,0-1.56.21-2.21.27-.66.06-2.78.18-3.92-.98,0,0-.08-.23.18-.11.26.12,1.4.67,3.67.4,2.27-.27,5.62-1.09,8.36,2.31"/>
  <path class="cls-1" d="M30.46,20.28s-.73-.98-1.06-1.32c-.01-.01-.02-.02-.03-.03-.31-.3.02.02.02.02,0,0-2.43.91-6.31,0,0,0-2.74-1.04-6.17.74,0,0,1.03-1.45,5.08-1.45,0,0,1.56.21,2.21.27.66.06,2.78.18,3.92-.98,0,0,.08-.23-.18-.11-.26.12-1.4.67-3.67.4-2.27-.27-5.62-1.09-8.36,2.31"/>
  <path class="cls-4" d="M14.39,20.06h3.16s-.17,1.21-1.44,1.38c0,0-1.47.18-1.71-1.38Z"/>
  <path class="cls-4" d="M30.51,20.04h-13.02c-.02.32-.15.61-.35.84-.28.33-.71.54-1.19.54s-.91-.21-1.19-.54c-.2-.23-.32-.52-.35-.84H1.29c-.24,0-.44.19-.44.42s.2.42.44.42h12.51c.37.78,1.2,1.33,2.15,1.33s1.78-.55,2.15-1.33h12.4c.24,0,.44-.19.44-.42s-.2-.42-.44-.42Z"/>
  <g>
    <g>
      <path class="cls-4" d="M2.39,27.67c-.3,0-.45-.12-.45-.36,0-.08.02-.15.05-.22.03-.07.09-.16.17-.26l2.43-3.13h-2.03c-.06,0-.1,0-.13-.03-.06-.04-.12-.09-.19-.15-.06-.06-.14-.12-.21-.2-.02-.03-.04-.05-.04-.07,0-.02.01-.04.04-.07.08-.08.15-.15.21-.2.06-.06.13-.11.19-.15.03-.02.08-.03.13-.03h3.08c.31,0,.46.12.46.37,0,.09-.02.17-.05.24-.04.07-.09.15-.16.24l-2.42,3.13h2.21c.06,0,.1,0,.13.02.06.04.13.09.19.15.07.06.14.12.21.2.02.03.04.05.04.07,0,.02-.01.04-.04.07-.07.08-.14.15-.21.2-.07.06-.13.11-.19.15-.03.02-.08.03-.13.03h-3.29Z"/>
      <path class="cls-4" d="M9.1,27.76c-.49,0-.92-.09-1.28-.27-.36-.18-.65-.45-.85-.82-.2-.36-.3-.82-.3-1.37,0-.87.22-1.52.66-1.94.44-.43,1.06-.64,1.85-.64.74,0,1.32.21,1.75.63.43.42.64,1.04.64,1.86,0,.58-.1,1.06-.3,1.44-.2.38-.49.66-.86.84-.37.18-.81.28-1.32.28ZM9.12,26.84c.43,0,.74-.15.95-.44.21-.29.31-.67.31-1.14,0-.54-.1-.95-.29-1.22-.19-.27-.51-.41-.94-.41-.85,0-1.27.54-1.27,1.61,0,.48.1.86.31,1.16.2.29.52.44.94.44Z"/>
      <path class="cls-4" d="M13.61,27.49c0,.07-.01.11-.04.14-.03.03-.08.04-.15.04h-.76c-.07,0-.12-.01-.15-.04-.03-.03-.04-.07-.04-.14v-3.78c0-.23.02-.41.07-.54.04-.13.13-.23.26-.29.13-.06.31-.09.55-.09h.94c1.23,0,1.85.45,1.85,1.36,0,.28-.05.5-.15.68-.1.18-.22.31-.36.41-.14.1-.29.17-.43.22v.02c.16.1.31.23.45.39.14.16.27.34.39.53.12.19.21.38.29.56.08.18.14.35.17.49.01.07.01.12,0,.15-.01.03-.05.05-.12.05h-.82c-.06,0-.12-.01-.16-.04-.05-.02-.09-.08-.13-.17-.18-.43-.39-.79-.62-1.06-.23-.27-.46-.49-.68-.66-.14-.11-.21-.18-.21-.23,0-.04.02-.09.07-.15.03-.04.07-.08.12-.14.05-.05.1-.1.14-.12.04-.03.07-.04.1-.05.02,0,.06-.01.12-.01.17,0,.32-.06.44-.17.12-.12.18-.3.18-.55,0-.24-.06-.41-.19-.52-.12-.11-.29-.16-.51-.16h-.21c-.16,0-.26.03-.32.1-.06.06-.09.17-.09.33v3.43Z"/>
      <path class="cls-4" d="M19.93,23.07c.13.17.26.4.4.67.14.28.27.58.4.91.13.33.24.66.35,1.01.1.34.19.67.25.99.07.32.1.6.11.85,0,.12-.05.18-.17.18h-.86c-.11,0-.17-.05-.17-.16,0-.25-.05-.56-.13-.92h-1.94c-.07.35-.1.66-.11.92,0,.11-.06.16-.18.16h-.84s-.08-.01-.11-.04c-.03-.02-.04-.06-.04-.12.01-.25.05-.54.12-.86.06-.32.15-.65.25-1,.1-.34.22-.68.35-1.01.13-.33.26-.63.4-.91.14-.27.27-.5.4-.67.07-.09.14-.16.22-.2.08-.04.17-.06.29-.06h.51c.12,0,.21.02.29.06.08.04.15.11.22.2ZM19.13,23.87c-.16.24-.3.52-.43.85-.13.33-.24.67-.34,1.02h1.54c-.1-.35-.21-.69-.34-1.02-.13-.33-.27-.62-.41-.85h-.02Z"/>
      <path class="cls-4" d="M26.35,23.07c.13.17.26.4.4.67.14.28.27.58.4.91.13.33.24.66.35,1.01.1.34.19.67.25.99.07.32.1.6.11.85,0,.12-.05.18-.17.18h-.86c-.11,0-.17-.05-.17-.16,0-.25-.05-.56-.13-.92h-1.94c-.07.35-.1.66-.11.92,0,.11-.06.16-.18.16h-.84s-.08-.01-.11-.04c-.03-.02-.04-.06-.04-.12.01-.25.05-.54.12-.86.06-.32.15-.65.25-1,.1-.34.22-.68.35-1.01.13-.33.26-.63.4-.91.14-.27.27-.5.4-.67.07-.09.14-.16.22-.2.08-.04.17-.06.29-.06h.51c.12,0,.21.02.29.06.08.04.15.11.22.2ZM25.55,23.87c-.16.24-.3.52-.43.85-.13.33-.24.67-.34,1.02h1.54c-.1-.35-.21-.69-.34-1.02-.13-.33-.27-.62-.41-.85h-.02Z"/>
      <path class="cls-4" d="M29.83,27.49c0,.07-.01.11-.04.14-.03.03-.08.04-.15.04h-.75c-.07,0-.12-.01-.15-.04-.03-.03-.04-.07-.04-.14v-4.15c0-.07.01-.12.04-.15.11-.15.26-.31.45-.47.04-.03.07-.04.09-.04.03,0,.06.01.09.04.1.09.19.17.26.25.07.08.13.15.18.23.02.04.04.09.04.15v4.15Z"/>
    </g>
    <g>
      <path class="cls-4" d="M7.13,28.83c.05.06.09.14.14.24.05.1.09.2.14.32.04.11.09.23.12.35.04.12.07.24.09.35.02.11.04.21.04.3,0,.04-.02.06-.06.06h-.3s-.06-.02-.06-.06c0-.09-.02-.2-.04-.32h-.68c-.02.12-.04.23-.04.32,0,.04-.02.06-.06.06h-.29s-.03,0-.04-.01c-.01,0-.01-.02-.01-.04,0-.09.02-.19.04-.3.02-.11.05-.23.09-.35.04-.12.08-.24.12-.35.04-.12.09-.22.14-.32.05-.1.09-.17.14-.24.02-.03.05-.06.08-.07.03-.02.06-.02.1-.02h.18s.07,0,.1.02c.03.02.05.04.08.07ZM6.85,29.11c-.05.08-.1.18-.15.3-.05.12-.08.23-.12.36h.54c-.03-.12-.07-.24-.12-.36-.05-.12-.09-.22-.14-.3h0Z"/>
      <path class="cls-4" d="M8.35,30.38s0,.04-.02.05c-.01,0-.03.01-.05.01h-.26s-.04,0-.05-.01c-.01,0-.02-.03-.02-.05v-1.45s0-.04.01-.05c.04-.05.09-.11.16-.17.01,0,.02-.01.03-.01.01,0,.02,0,.03.01.04.03.07.06.09.09.02.03.05.05.06.08,0,.01.01.03.01.05v1.45Z"/>
      <path class="cls-4" d="M10.12,29.87s-.04,0-.05-.02c-.02-.01-.03-.03-.06-.04-.02-.02-.05-.04-.07-.07,0-.01-.01-.02-.01-.03s0-.02.01-.03c.05-.06.1-.1.14-.12,0,0,.02,0,.04,0,.06,0,.1-.02.15-.06.04-.04.06-.11.06-.2,0-.1-.03-.17-.07-.2-.05-.04-.12-.06-.2-.06h-.06c-.05,0-.09.01-.11.03-.02.02-.03.06-.03.11v1.2s0,.04-.02.05c-.01,0-.03.01-.05.01h-.26s-.04,0-.05-.01c-.01,0-.02-.03-.02-.05v-1.32c0-.08,0-.14.02-.19.02-.05.04-.08.09-.1.04-.02.11-.03.19-.03h.29c.24,0,.41.04.53.13.11.09.17.23.17.41,0,.14-.03.25-.09.34-.06.09-.14.15-.23.19-.1.04-.2.06-.3.06Z"/>
      <path class="cls-4" d="M11.59,30.47c-.21,0-.37-.05-.49-.16-.12-.11-.18-.26-.18-.47s.06-.38.19-.48c.13-.11.29-.16.5-.16s.37.05.49.16c.12.1.18.26.18.46s-.06.38-.18.49c-.12.11-.29.17-.51.17ZM11.6,30.18c.09,0,.16-.03.21-.08.05-.05.07-.15.07-.28s-.02-.21-.07-.26c-.05-.05-.12-.08-.21-.08s-.16.03-.21.08c-.05.06-.08.14-.08.27s.02.22.07.27c.05.05.12.08.21.08Z"/>
      <path class="cls-4" d="M12.77,30.36s-.05-.09-.08-.15c-.03-.06-.05-.13-.08-.21-.03-.08-.05-.16-.07-.23-.02-.08-.04-.15-.05-.22-.01-.07-.02-.12-.02-.15,0-.02,0-.03.01-.04.04-.05.09-.09.16-.14.01,0,.02-.01.03-.01.01,0,.02,0,.03.01.04.03.07.05.1.07.03.02.05.05.07.07,0,.01.01.02.01.04h0s0,.1,0,.16c0,.06.02.13.03.2.01.07.03.13.04.19.02.06.03.11.05.16h0s.04-.1.07-.17c.02-.07.05-.15.07-.23.02-.08.04-.15.06-.23.02-.07.03-.13.04-.17,0-.03.02-.05.04-.06.02-.01.05-.02.08-.02h.14s.07,0,.09.02c.02.01.03.03.03.06,0,.04.02.1.04.17.02.07.04.15.06.23.02.08.04.16.07.23.02.07.04.12.06.16h0c.02-.05.05-.12.07-.2.02-.08.04-.17.05-.26.01-.09.02-.18.02-.26h0s0-.03.01-.04c.02-.02.04-.04.07-.07.03-.02.06-.05.09-.07.01,0,.02-.01.03-.01.01,0,.02,0,.03.01.04.03.07.05.09.07.03.02.05.05.07.07,0,.01.01.02.01.04,0,.04,0,.09-.02.16-.01.06-.03.14-.06.21-.02.08-.05.15-.08.23-.03.08-.06.15-.09.21-.03.06-.06.12-.08.15-.02.02-.03.04-.04.06-.01.01-.03.02-.05.02-.02,0-.04,0-.08,0h-.14s-.07,0-.09-.02c-.02-.01-.04-.03-.06-.07-.01-.02-.03-.06-.04-.11-.02-.05-.03-.11-.05-.17-.02-.06-.03-.12-.05-.17-.01-.05-.02-.09-.03-.12,0-.02,0-.05-.01-.09,0-.03,0-.06,0-.08h0s0,.05,0,.08c0,.03,0,.06-.01.09,0,.02-.01.06-.03.1-.01.05-.03.1-.05.15-.02.06-.04.11-.06.16-.02.05-.04.1-.06.14-.02.04-.04.06-.06.07-.02.01-.06.02-.11.02h-.14s-.07,0-.08-.02c-.01-.01-.03-.03-.06-.07ZM12.47,29.39h0s0,0,0,0ZM14.43,29.39h0s0,0,0,0h0Z"/>
      <path class="cls-4" d="M15.3,30.47c-.14,0-.26-.02-.36-.06-.1-.04-.18-.11-.24-.2-.06-.09-.09-.21-.09-.35,0-.22.06-.38.17-.49.12-.11.27-.17.46-.17.12,0,.23.02.32.06.09.04.15.1.2.18.04.08.07.16.07.26s-.03.16-.08.2c-.05.04-.12.06-.22.06h-.53c0,.08.04.14.09.19.06.04.13.06.23.06.08,0,.14-.01.18-.03.05-.02.08-.04.1-.05.02-.01.03-.02.05-.02.02,0,.04,0,.07,0,.03,0,.06.02.09.03.02.01.03.02.03.04,0,.01,0,.03,0,.04,0,.01,0,.03-.01.05,0,.02-.01.04-.02.06,0,0-.01.02-.02.03-.02.01-.04.03-.08.04-.04.02-.09.03-.15.05-.06.01-.14.02-.24.02ZM15,29.7h.4s.06-.02.06-.06c0-.06-.02-.1-.06-.14-.04-.04-.09-.06-.17-.06-.08,0-.14.02-.18.07-.04.05-.06.11-.07.18Z"/>
      <path class="cls-4" d="M16.49,29.45h0c.06-.16.17-.25.33-.25.02,0,.04,0,.05,0,.01,0,.02,0,.03,0,.01,0,.02.01.02.03v.29s-.01.03-.04.02c0,0-.02,0-.04-.01-.02,0-.04,0-.08,0-.09,0-.15.03-.2.09-.05.06-.07.14-.07.24v.52s0,.04-.02.05c-.01,0-.03.01-.05.01h-.26s-.04,0-.05-.01c-.01,0-.02-.03-.02-.05v-1s0-.03.01-.04c.02-.02.04-.04.06-.07.02-.02.05-.05.09-.07,0,0,.01,0,.02,0,0,0,.01,0,.02,0,.01,0,.02,0,.03.01.07.05.12.1.14.13,0,0,.01.02.01.03v.09Z"/>
      <path class="cls-4" d="M17.74,30.47c-.14,0-.26-.02-.36-.06-.1-.04-.18-.11-.24-.2-.06-.09-.09-.21-.09-.35,0-.22.06-.38.17-.49.12-.11.27-.17.46-.17.12,0,.23.02.32.06.09.04.15.1.2.18.04.08.07.16.07.26s-.03.16-.08.2c-.05.04-.12.06-.22.06h-.53c0,.08.04.14.09.19.06.04.13.06.23.06.08,0,.14-.01.18-.03.05-.02.08-.04.1-.05.02-.01.03-.02.05-.02.02,0,.04,0,.07,0,.03,0,.06.02.09.03.02.01.03.02.03.04,0,.01,0,.03,0,.04,0,.01,0,.03-.01.05,0,.02-.01.04-.02.06,0,0-.01.02-.02.03-.02.01-.04.03-.08.04-.04.02-.09.03-.15.05-.06.01-.14.02-.24.02ZM17.43,29.7h.4s.06-.02.06-.06c0-.06-.02-.1-.06-.14-.04-.04-.09-.06-.17-.06-.08,0-.14.02-.18.07-.04.05-.06.11-.07.18Z"/>
      <path class="cls-4" d="M18.98,30.47c-.11,0-.2-.03-.28-.08-.08-.05-.14-.12-.18-.22-.04-.09-.06-.2-.06-.32,0-.16.03-.29.09-.38.06-.1.14-.17.25-.22.11-.05.23-.07.38-.07.05,0,.09,0,.12,0,.03,0,.06,0,.07.01v-.44s0-.03.01-.04c.03-.04.09-.09.15-.14.01,0,.02-.01.03-.01.01,0,.02,0,.03.01.04.03.07.05.09.07s.05.05.06.07c0,.01.01.03.01.04v1.62s0,.03-.02.04c-.01.01-.02.02-.04.02h-.18s-.02,0-.04,0c-.01,0-.02-.01-.03-.02l-.08-.09h0s-.03.04-.06.06c-.03.02-.07.05-.12.06-.05.02-.12.03-.21.03ZM19.1,30.17c.07,0,.13-.01.18-.04.04-.03.07-.06.09-.1v-.5s-.04-.02-.07-.03c-.03-.01-.07-.02-.13-.02-.1,0-.18.03-.23.1-.05.06-.08.15-.08.26s.02.2.06.25c.04.05.1.08.17.08Z"/>
      <path class="cls-4" d="M21.13,30.44c-.08,0-.15-.01-.19-.03-.04-.02-.07-.05-.09-.1-.02-.05-.02-.11-.02-.19v-1.2s0-.04.01-.05c.04-.05.09-.11.16-.17.01,0,.02-.01.03-.01.01,0,.02,0,.03.01.04.03.07.06.09.09.02.03.05.05.06.08,0,.01.01.03.01.05v1.05c0,.05,0,.09.03.11.02.02.06.03.11.03h.38s.03,0,.04,0c.02.01.04.03.07.05.02.02.05.04.07.07,0,.01.01.02.01.03,0,0,0,.01-.01.02-.03.03-.05.05-.07.07-.02.02-.05.04-.07.05-.01,0-.03,0-.04,0h-.62Z"/>
      <path class="cls-4" d="M23.13,29.76s.02-.08.04-.13c.01-.04.03-.09.05-.14.02-.05.04-.1.06-.16.02-.06.05-.12.08-.18.03-.06.05-.12.08-.17.03-.05.05-.1.07-.13.03-.04.06-.07.09-.09.03-.02.08-.03.14-.03h.16s.08,0,.11.02c.03.01.05.04.06.09,0,.03.02.08.03.15,0,.07.02.16.02.27,0,.12.01.27.01.45,0,.18,0,.41,0,.68,0,.01,0,.03-.01.04,0,0-.02.01-.04.01h-.28s-.03,0-.04-.01c0,0-.01-.02-.01-.04v-.53c0-.15,0-.27,0-.36,0-.1,0-.17,0-.23,0-.06,0-.1,0-.13h0c-.04.1-.09.2-.14.32-.05.12-.1.24-.15.37-.05.13-.09.25-.13.37-.01.04-.02.06-.04.07-.02.01-.05.02-.11.02h-.14s-.08,0-.1-.02c-.02-.01-.03-.04-.04-.08-.03-.09-.06-.19-.09-.29-.03-.1-.07-.2-.1-.3-.03-.1-.07-.19-.1-.27-.03-.08-.06-.15-.09-.21h0c0,.09-.01.21-.02.34,0,.13,0,.28-.01.44,0,.16,0,.32,0,.48,0,.01,0,.03-.01.03,0,0-.02.01-.04.01h-.25s-.03,0-.04-.01c0,0-.01-.02-.01-.04,0-.42,0-.76.03-1.01.02-.25.04-.42.06-.51.01-.06.04-.09.07-.11.03-.02.07-.03.11-.03h.2s.08,0,.1.02c.02.02.05.05.08.09.02.03.04.07.06.12.03.05.05.11.08.17.03.06.05.13.08.19.02.06.04.12.06.16.02.05.03.09.05.14.01.04.03.09.04.13h0Z"/>
      <path class="cls-4" d="M25,30.47c-.1,0-.19,0-.26-.03-.07-.02-.12-.04-.17-.07-.04-.03-.07-.05-.1-.08,0-.01-.01-.02-.02-.03,0,0,0-.02-.01-.03,0-.02,0-.04,0-.06,0-.03,0-.06,0-.09,0-.01,0-.02,0-.03,0,0,.02-.01.03-.01.02,0,.06-.01.09-.01.04,0,.07,0,.08,0,.02,0,.03,0,.04,0,.01,0,.02.02.04.03.02.02.05.04.09.06.04.03.1.04.19.04s.14-.02.18-.05c.04-.03.06-.08.06-.14,0-.03,0-.06-.03-.09-.02-.03-.05-.05-.11-.08-.05-.03-.12-.06-.22-.09-.16-.05-.27-.11-.34-.19-.07-.08-.1-.18-.1-.31,0-.11.03-.2.08-.28.06-.07.13-.13.23-.17.1-.04.21-.06.34-.06.1,0,.18.01.25.03.07.02.12.05.15.08.04.03.06.05.07.07,0,.01.01.02.01.02,0,0,0,.01,0,.02,0,.02,0,.05,0,.08,0,.03,0,.06,0,.1,0,.01,0,.02-.01.03,0,0-.01,0-.03,0-.08,0-.14,0-.19-.01-.02,0-.03,0-.03-.01,0,0-.01-.01-.02-.02-.01-.01-.03-.03-.06-.05-.03-.02-.07-.03-.14-.03-.09,0-.15.02-.18.06-.04.04-.05.08-.05.13,0,.06.03.1.08.13.05.03.14.07.25.11.1.03.18.07.25.11.07.04.12.09.16.15.04.06.06.14.06.24,0,.12-.03.22-.09.3-.06.08-.14.14-.24.18-.1.04-.21.06-.34.06Z"/>
    </g>
  </g>
  <g>
    <path class="cls-4" d="M15.87,17.64v1.06c-.09,0-.18,0-.28.02-.11.01-.24.08-.31.03-.08-.05-.16-.24-.21-.33-.13-.21-.26-.42-.4-.66-.09-.16-.23-.29-.03-.44.27-.2.77-.19,1.02.08.07.08.13.19.2.24ZM15.87,19.75v-.64c-.12,0-.24.01-.36.04.14.2.24.4.36.59Z"/>
    <path class="cls-4" d="M16.46,17.37c-.12.09-.18.23-.29.28-.07.03-.12.02-.17,0v1.06c.12,0,.23,0,.36.03.12.02.24.09.31.05.08-.04.17-.22.23-.31.08-.12.15-.24.21-.32.16-.23.32-.41.42-.64-.28-.34-.76-.38-1.08-.15Z"/>
    <path class="cls-4" d="M16.42,19.18c-.14-.04-.27-.06-.41-.06v.64c.14-.19.26-.39.41-.58Z"/>
  </g>
  <g>
    <path class="cls-5" d="M13.6,3.83c0-.32.08-.54.35-.54s.35.23.35.23v1.56l.84.69s-.02-2.3-.08-3.43c-.04-.82-.83-1.12-1.26-1.22-.16-.04-.5-.03-.6-.02-1.43.21-1.41,1.35-1.41,1.35v.91l1.27,1.19v3.13l1.16,1.11v2.02l-.78-.6v-1.1l-1.06-1.02v-3.25l-1.29-1.23v-1.1c-.46-.44-1.18-.34-1.18-.34-1.89.28-1.57,2.16-1.57,2.16-3.2.41-1.71,2.94-1.71,2.94-2.66,1.01-.96,3.28-.96,3.28-.48.31-.52.98-.52.98-.22,1.35,1.31,1.78,1.31,1.78h1.1c1.9,1.82,3.15-.14,3.15-.14l1,.89h.93l1.58,1.49v1.15c0,.22.19.4.42.4s.42-.18.42-.4v-4.44l.03-5.52-1.5-1.39v-1.51ZM8.15,5.83c.21,0,.38.16.38.36s-.17.36-.38.36-.38-.16-.38-.36.17-.36.38-.36ZM6.1,9.2c0-.2.17-.36.38-.36s.38.16.38.36-.17.36-.38.36-.38-.16-.38-.36ZM9.19,13.19c-.21,0-.38-.16-.38-.36s.17-.36.38-.36.38.16.38.36-.17.36-.38.36ZM12.55,13.42l-1.73-1.51h-3.59l-.88-.85.55-.53.74.71h3.56l1.35,1.3v.87ZM14.42,14.5l-.92-.76v-1.61l-2.08-1.84h-2.19l-1.28-1.23v-1.53s.06-.23.38-.23c0,0,.35,0,.35.32v1.24s.93.83.93.83h1.46l.03-1.77-1.8-1.61v-2.06l-.24-.16s-.08-.3.19-.42c0,0,.23-.14.39,0,.16.15.36.34.36.34l.02,2.1,1.79,1.55.03,2.06,2.57,2.25.03,2.53ZM13.22,2.19c0-.2.17-.36.38-.36s.38.16.38.36-.17.36-.38.36-.38-.16-.38-.36Z"/>
    <g class="cls-2">
      <path class="cls-6" d="M26.18,10.55s1.7-2.27-.96-3.28c0,0,1.48-2.54-1.71-2.94,0,0,.32-1.88-1.57-2.16,0,0-.71-.1-1.18.34v1.1l-1.29,1.23v3.25l-1.06,1.02v1.1l-.78.6v-2.02l1.16-1.11v-3.13l1.27-1.19v-.91s.01-1.14-1.41-1.35c-.1-.01-.44-.02-.6.02-.43.1-1.22.4-1.26,1.22-.06,1.14-.08,3.43-.08,3.43l.84-.69v-1.56s.08-.23.35-.23.35.22.35.54v1.51l-1.5,1.39.03,5.52v4.44c0,.22.19.4.42.4s.42-.18.42-.4v-1.15l1.58-1.49h.93l1-.89s1.25,1.96,3.15.14h1.1s1.53-.44,1.31-1.78c0,0-.04-.66-.52-.98ZM23.71,5.83c.21,0,.38.16.38.36s-.17.36-.38.36-.38-.16-.38-.36.17-.36.38-.36ZM18.35,12.13v1.61l-.92.76.03-2.53,2.57-2.25.03-2.06,1.79-1.55.02-2.1s.2-.19.36-.34c.16-.15.39,0,.39,0,.27.13.19.42.19.42l-.24.16v2.06l-1.8,1.61.03,1.77h1.46l.94-.83v-1.24c0-.32.35-.32.35-.32.32,0,.37.23.37.23v1.53s-1.28,1.23-1.28,1.23h-2.19l-2.08,1.84ZM22.67,13.19c-.21,0-.38-.16-.38-.36s.17-.36.38-.36.38.16.38.36-.17.36-.38.36ZM24.62,11.91h-3.59l-1.73,1.51v-.87l1.35-1.3h3.56l.74-.71.55.53-.88.85ZM25.37,9.56c-.21,0-.38-.16-.38-.36s.17-.36.38-.36.38.16.38.36-.17.36-.38.36Z"/>
    </g>
    <path class="cls-4" d="M16.38,16.5c0,.22-.19.4-.42.4h0c-.23,0-.42-.18-.42-.4V1.51c0-.22.19-.4.42-.4h0c.23,0,.42.18.42.4"/>
  </g>
</svg>