<?xml version="1.0" encoding="UTF-8"?>
<svg id="Layer_1" data-name="Layer 1" xmlns="http://www.w3.org/2000/svg" xmlns:xlink="http://www.w3.org/1999/xlink" viewBox="0 0 512 512">
  <defs>
    <style>
      .cls-1 {
        fill: url(#linear-gradient-2);
      }

      .cls-1, .cls-2 {
        isolation: isolate;
      }

      .cls-3 {
        fill: url(#linear-gradient);
      }

      .cls-4 {
        fill: #223a3a;
      }

      .cls-5 {
        fill: #f36e21;
      }

      .cls-6 {
        fill: #339746;
      }
    </style>
    <linearGradient id="linear-gradient" x1="20.43" y1="306.44" x2="255.38" y2="306.44" gradientUnits="userSpaceOnUse">
      <stop offset=".51" stop-color="#cf633d"/>
      <stop offset=".62" stop-color="#d1693e"/>
      <stop offset=".77" stop-color="#da7a42"/>
      <stop offset=".94" stop-color="#e79648"/>
      <stop offset="1" stop-color="#eda24b"/>
    </linearGradient>
    <linearGradient id="linear-gradient-2" x1="255.38" y1="306.44" x2="490.34" y2="306.44" gradientUnits="userSpaceOnUse">
      <stop offset="0" stop-color="#c3d153"/>
      <stop offset=".21" stop-color="#b0c54c"/>
      <stop offset=".44" stop-color="#a2bc48"/>
      <stop offset=".64" stop-color="#9eba47"/>
      <stop offset="1" stop-color="#7ba640"/>
    </linearGradient>
  </defs>
  <path class="cls-3" d="M20.43,329.96s11.75-15.88,17.09-21.32c.19-.2.38-.38.55-.55,5.02-4.82-.36.35-.36.35,0,0,39.18,14.67,101.89,0,0,0,44.25-16.76,99.63,11.89,0,0-16.56-23.44-81.99-23.44,0,0-25.11,3.39-35.7,4.3-10.59.91-44.93,2.87-63.26-15.88,0,0-1.36-3.78,2.85-1.82,4.21,1.95,22.53,10.81,59.18,6.51,36.65-4.29,90.67-17.57,135.05,37.23"/>
  <path class="cls-1" d="M490.34,329.96s-11.75-15.88-17.09-21.32c-.2-.2-.38-.38-.56-.55-5.02-4.82.36.35.36.35,0,0-39.18,14.67-101.89,0,0,0-44.25-16.76-99.63,11.89,0,0,16.56-23.44,81.98-23.44,0,0,25.11,3.39,35.7,4.3,10.59.91,44.93,2.87,63.25-15.88,0,0,1.36-3.78-2.85-1.82-4.21,1.95-22.53,10.81-59.18,6.51-36.65-4.29-90.67-17.57-135.06,37.23"/>
  <path class="cls-4" d="M230.91,326.49h50.95s-2.81,19.53-23.26,22.31c0,0-23.72,2.85-27.69-22.31Z"/>
  <path class="cls-4" d="M491.15,326.18h-210.18c-.36,5.13-2.4,9.81-5.6,13.55-4.57,5.32-11.49,8.72-19.24,8.72s-14.68-3.4-19.24-8.72c-3.2-3.74-5.24-8.42-5.6-13.55H19.27c-3.9,0-7.06,3.03-7.06,6.77s3.16,6.77,7.06,6.77h202.08c6.02,12.67,19.32,21.48,34.78,21.48s28.76-8.81,34.78-21.48h200.24c3.9,0,7.06-3.03,7.06-6.77s-3.16-6.77-7.06-6.77Z"/>
  <g>
    <g>
      <path class="cls-4" d="M37.07,449.34c-4.88,0-7.33-1.96-7.33-5.88,0-1.24.25-2.44.74-3.59.5-1.15,1.39-2.57,2.69-4.25l39.32-50.56h-32.73c-.92,0-1.6-.15-2.06-.44-.99-.66-2.01-1.44-3.06-2.36-1.05-.92-2.18-2.01-3.4-3.29-.38-.47-.57-.86-.57-1.15,0-.33.19-.7.57-1.1,1.22-1.28,2.35-2.38,3.4-3.29,1.05-.91,2.07-1.7,3.06-2.36.53-.3,1.22-.44,2.06-.44h49.67c5,0,7.5,1.98,7.5,5.93,0,1.39-.29,2.67-.86,3.84-.57,1.17-1.41,2.49-2.52,3.95l-39.09,50.61,35.77-.06c.91,0,1.6.14,2.06.44.99.66,2.02,1.45,3.09,2.36,1.07.92,2.19,2.01,3.38,3.29.38.47.57.86.57,1.15,0,.33-.19.7-.57,1.1-1.18,1.28-2.31,2.38-3.38,3.29-1.07.92-2.1,1.7-3.09,2.36-.54.29-1.22.44-2.06.44h-53.16Z"/>
      <path class="cls-4" d="M145.4,450.71c-7.94,0-14.84-1.46-20.72-4.39-5.88-2.93-10.43-7.34-13.65-13.23-3.22-5.89-4.84-13.25-4.84-22.07,0-14.01,3.57-24.47,10.7-31.37,7.13-6.9,17.07-10.35,29.82-10.35,11.94,0,21.38,3.38,28.33,10.13,6.94,6.75,10.41,16.75,10.41,30,0,9.37-1.62,17.1-4.87,23.19-3.24,6.09-7.86,10.63-13.85,13.61-5.99,2.99-13.1,4.47-21.35,4.47ZM145.74,435.89c6.87,0,11.96-2.36,15.28-7.08,3.32-4.72,4.98-10.85,4.98-18.39,0-8.74-1.56-15.31-4.69-19.71-3.13-4.39-8.16-6.59-15.11-6.59-13.69,0-20.54,8.65-20.54,25.97,0,7.72,1.65,13.95,4.95,18.69,3.3,4.74,8.35,7.11,15.14,7.11Z"/>
      <path class="cls-4" d="M218.25,446.43c0,1.1-.24,1.86-.71,2.28-.48.42-1.29.63-2.43.63h-12.19c-1.14,0-1.95-.21-2.43-.63-.48-.42-.71-1.18-.71-2.28v-61.1c0-3.66.35-6.56,1.06-8.7.71-2.14,2.08-3.68,4.12-4.61,2.04-.93,5.03-1.4,8.96-1.4h15.16c19.92,0,29.88,7.34,29.88,22.01,0,4.46-.78,8.12-2.35,10.98-1.56,2.85-3.51,5.08-5.84,6.67-2.33,1.59-4.61,2.79-6.87,3.6v.27c2.56,1.61,4.99,3.72,7.3,6.34,2.3,2.62,4.39,5.46,6.26,8.51,1.87,3.06,3.45,6.08,4.75,9.06,1.29,2.99,2.19,5.64,2.69,7.99.23,1.1.24,1.92.03,2.47-.21.55-.86.83-1.97.83h-13.22c-.99,0-1.86-.2-2.6-.6-.74-.4-1.42-1.34-2.03-2.8-2.9-6.99-6.24-12.69-10.01-17.1-3.78-4.41-7.42-7.95-10.93-10.62-2.25-1.72-3.38-2.95-3.38-3.68,0-.59.36-1.39,1.09-2.41.46-.62,1.13-1.37,2.01-2.25.88-.88,1.64-1.54,2.29-1.98.65-.44,1.17-.71,1.57-.82.4-.11,1.02-.16,1.86-.16,2.82,0,5.18-.93,7.07-2.8,1.89-1.87,2.83-4.81,2.83-8.84,0-3.81-1-6.6-3-8.37-2-1.77-4.76-2.66-8.27-2.66h-3.43c-2.52,0-4.24.51-5.15,1.54-.92,1.02-1.37,2.78-1.37,5.27v55.39Z"/>
      <path class="cls-4" d="M320.4,374.96c2.1,2.82,4.25,6.45,6.44,10.9,2.19,4.44,4.32,9.32,6.38,14.63,2.06,5.31,3.92,10.73,5.58,16.28,1.66,5.54,3.02,10.88,4.09,16,1.07,5.12,1.68,9.68,1.83,13.67.04,1.94-.88,2.91-2.75,2.91h-13.85c-1.79,0-2.73-.86-2.8-2.58-.15-4.1-.84-9.08-2.06-14.93h-31.25c-1.07,5.71-1.68,10.68-1.83,14.93-.08,1.72-1.05,2.58-2.92,2.58h-13.56c-.69,0-1.26-.19-1.72-.58-.46-.38-.67-1.05-.63-2,.19-4.06.81-8.68,1.86-13.86,1.05-5.18,2.41-10.55,4.09-16.11,1.68-5.56,3.55-11,5.61-16.33,2.06-5.32,4.2-10.2,6.41-14.63,2.21-4.43,4.37-8.05,6.47-10.87,1.1-1.5,2.28-2.6,3.52-3.29,1.24-.69,2.78-1.04,4.61-1.04h8.24c1.87,0,3.44.35,4.69,1.04,1.26.69,2.44,1.79,3.55,3.29ZM307.47,387.97c-2.52,3.85-4.83,8.44-6.92,13.78-2.1,5.34-3.91,10.83-5.44,16.47h24.84c-1.6-5.64-3.46-11.13-5.55-16.47-2.1-5.34-4.3-9.93-6.58-13.78h-.34Z"/>
      <path class="cls-4" d="M423.98,374.96c2.1,2.82,4.24,6.45,6.44,10.9,2.19,4.44,4.32,9.32,6.38,14.63,2.06,5.31,3.92,10.73,5.58,16.28,1.66,5.54,3.02,10.88,4.09,16,1.07,5.12,1.68,9.68,1.83,13.67.04,1.94-.88,2.91-2.75,2.91h-13.85c-1.8,0-2.73-.86-2.81-2.58-.15-4.1-.84-9.08-2.06-14.93h-31.25c-1.07,5.71-1.68,10.68-1.83,14.93-.08,1.72-1.05,2.58-2.92,2.58h-13.56c-.69,0-1.26-.19-1.72-.58-.46-.38-.67-1.05-.63-2,.19-4.06.81-8.68,1.86-13.86,1.05-5.18,2.41-10.55,4.09-16.11,1.68-5.56,3.55-11,5.61-16.33,2.06-5.32,4.2-10.2,6.41-14.63,2.21-4.43,4.37-8.05,6.47-10.87,1.11-1.5,2.28-2.6,3.52-3.29,1.24-.69,2.78-1.04,4.61-1.04h8.24c1.87,0,3.43.35,4.69,1.04,1.26.69,2.44,1.79,3.55,3.29ZM411.05,387.97c-2.52,3.85-4.83,8.44-6.93,13.78-2.1,5.34-3.91,10.83-5.43,16.47h24.84c-1.6-5.64-3.45-11.13-5.55-16.47-2.1-5.34-4.3-9.93-6.58-13.78h-.34Z"/>
      <path class="cls-4" d="M480.23,446.43c0,1.1-.24,1.86-.71,2.28-.48.42-1.29.63-2.44.63h-12.19c-1.15,0-1.96-.21-2.43-.63-.48-.42-.71-1.18-.71-2.28v-67.03c0-1.06.19-1.86.57-2.41,1.72-2.41,4.12-4.96,7.21-7.63.57-.44,1.07-.66,1.49-.66.46,0,.93.22,1.43.66,1.68,1.39,3.09,2.72,4.24,3.98,1.15,1.26,2.13,2.48,2.98,3.65.38.58.57,1.39.57,2.41v67.03Z"/>
    </g>
    <g>
      <path class="cls-4" d="M113.62,468.07c.73.99,1.48,2.26,2.25,3.81.77,1.56,1.51,3.26,2.23,5.12.72,1.85,1.37,3.75,1.95,5.69.58,1.94,1.06,3.8,1.43,5.59.37,1.79.59,3.38.64,4.78.01.68-.31,1.02-.96,1.02h-4.84c-.63,0-.95-.3-.98-.9-.05-1.43-.29-3.17-.72-5.22h-10.92c-.37,1.99-.59,3.73-.64,5.22-.03.6-.37.9-1.02.9h-4.74c-.24,0-.44-.07-.6-.2-.16-.14-.23-.37-.22-.7.07-1.42.28-3.04.65-4.85.37-1.81.84-3.68,1.43-5.63.59-1.95,1.24-3.85,1.96-5.71.72-1.86,1.47-3.57,2.24-5.12.77-1.55,1.53-2.81,2.26-3.8.39-.52.8-.91,1.23-1.15.43-.24.97-.37,1.61-.37h2.88c.65,0,1.2.12,1.64.37.44.24.85.63,1.24,1.15ZM109.1,472.62c-.88,1.34-1.69,2.95-2.42,4.82-.73,1.87-1.37,3.79-1.9,5.76h8.68c-.56-1.97-1.21-3.89-1.94-5.76-.73-1.87-1.5-3.47-2.3-4.82h-.12Z"/>
      <path class="cls-4" d="M133.29,493.06c0,.38-.09.65-.25.8-.17.15-.45.22-.85.22h-4.26c-.4,0-.68-.07-.85-.22-.17-.15-.25-.41-.25-.8v-23.43c0-.37.07-.65.2-.84.6-.84,1.44-1.73,2.52-2.67.2-.15.37-.23.52-.23.16,0,.33.08.5.23.59.49,1.08.95,1.48,1.39.4.44.75.87,1.04,1.28.13.2.2.49.2.84v23.43Z"/>
      <path class="cls-4" d="M161.86,484.89c-.35,0-.64-.08-.88-.25-.25-.17-.56-.4-.9-.71-.35-.31-.73-.68-1.16-1.13-.16-.18-.24-.34-.24-.48s.08-.3.24-.48c.83-.9,1.58-1.55,2.26-1.98.16-.1.39-.15.68-.15.91,0,1.69-.33,2.35-.98.66-.65.98-1.71.95-3.17-.01-1.57-.42-2.67-1.21-3.3-.8-.63-1.88-.94-3.25-.94h-.96c-.88,0-1.48.18-1.8.54-.32.36-.48.97-.48,1.84v19.36c0,.38-.09.65-.25.8-.17.15-.45.22-.85.22h-4.26c-.4,0-.68-.07-.85-.22-.17-.15-.25-.41-.25-.8v-21.36c0-1.28.12-2.29.37-3.04.24-.75.73-1.29,1.44-1.61.71-.32,1.76-.49,3.13-.49h4.76c3.83,0,6.66.72,8.51,2.16,1.84,1.44,2.76,3.64,2.76,6.61,0,2.23-.49,4.04-1.45,5.45-.97,1.41-2.22,2.44-3.76,3.11-1.54.66-3.17,1-4.89,1Z"/>
      <path class="cls-4" d="M185.69,494.56c-3.36,0-6.02-.86-7.98-2.57-1.96-1.71-2.94-4.27-2.94-7.66s1.02-6.08,3.05-7.8c2.04-1.72,4.75-2.58,8.15-2.58s5.91.85,7.88,2.55c1.97,1.69,2.96,4.19,2.96,7.49s-.99,6.07-2.96,7.87c-1.98,1.8-4.69,2.71-8.16,2.71ZM185.89,489.91c1.47,0,2.58-.44,3.32-1.31.75-.88,1.12-2.38,1.12-4.5s-.38-3.44-1.13-4.27c-.75-.83-1.87-1.24-3.35-1.24s-2.55.44-3.37,1.33c-.82.89-1.23,2.33-1.23,4.33s.39,3.55,1.17,4.39c.78.84,1.94,1.27,3.47,1.27Z"/>
      <path class="cls-4" d="M204.7,492.68c-.39-.58-.8-1.38-1.24-2.41-.44-1.03-.87-2.17-1.3-3.43-.43-1.26-.82-2.52-1.17-3.78-.35-1.26-.64-2.42-.85-3.47-.21-1.06-.32-1.88-.32-2.49,0-.26.07-.47.22-.63.61-.73,1.49-1.49,2.62-2.28.2-.13.38-.19.54-.19.17,0,.35.06.54.19.61.42,1.13.82,1.55,1.19.42.37.78.74,1.07,1.09.14.17.22.4.22.71v-.1c0,.79.05,1.71.15,2.74.1,1.04.24,2.1.43,3.2.19,1.1.41,2.15.67,3.15.26,1,.55,1.85.87,2.57h.12c.35-.72.71-1.65,1.1-2.8.39-1.15.76-2.37,1.11-3.65.35-1.29.67-2.5.95-3.64.28-1.14.48-2.04.6-2.71.09-.5.3-.83.63-1,.33-.16.78-.25,1.37-.25h2.32c.67,0,1.14.1,1.43.29.29.19.46.51.53.96.11.69.3,1.62.58,2.79.28,1.17.6,2.41.95,3.71.35,1.31.71,2.53,1.07,3.67.36,1.14.67,2.02.92,2.63h.14c.4-.84.78-1.93,1.14-3.27.36-1.34.65-2.75.88-4.23.23-1.48.34-2.87.34-4.15v.08c0-.31.06-.54.2-.71.31-.36.67-.72,1.08-1.09.41-.37.91-.77,1.5-1.19.19-.13.36-.19.52-.19.19,0,.36.06.52.19.6.42,1.11.82,1.52,1.19.41.37.76.74,1.06,1.09.13.17.2.39.2.67-.01.63-.14,1.46-.38,2.5-.24,1.04-.56,2.19-.95,3.43-.39,1.24-.83,2.48-1.3,3.72-.47,1.24-.95,2.38-1.44,3.42-.49,1.03-.94,1.86-1.35,2.47-.27.4-.5.7-.7.9-.2.2-.44.34-.73.4-.29.06-.71.1-1.27.1h-2.26c-.63,0-1.12-.09-1.47-.26-.35-.17-.68-.55-.99-1.14-.19-.35-.41-.92-.68-1.74-.27-.81-.54-1.7-.82-2.67-.28-.97-.53-1.87-.74-2.72-.22-.84-.35-1.46-.42-1.86-.07-.38-.14-.85-.21-1.4-.07-.55-.12-.98-.15-1.31h-.1c-.01.32-.06.75-.13,1.3-.07.54-.15,1.02-.23,1.43-.08.36-.23.91-.44,1.66-.21.75-.47,1.57-.77,2.48-.3.9-.61,1.78-.94,2.64-.33.86-.64,1.59-.93,2.19-.29.59-.63.97-1.01,1.14-.38.17-.98.26-1.81.26h-2.32c-.65,0-1.1-.1-1.33-.29-.23-.19-.54-.56-.91-1.11ZM199.82,477.05v.12-.12ZM231.49,477.09v.08-.08Z"/>
      <path class="cls-4" d="M245.64,494.56c-2.26,0-4.21-.35-5.88-1.04-1.67-.7-2.96-1.78-3.88-3.25-.92-1.47-1.38-3.37-1.38-5.7,0-3.49.93-6.14,2.8-7.93,1.87-1.79,4.35-2.69,7.44-2.69,2.01,0,3.72.35,5.11,1.04,1.39.69,2.45,1.65,3.18,2.86.73,1.22,1.09,2.6,1.09,4.16s-.41,2.58-1.22,3.19c-.81.6-2,.9-3.56.9h-8.58c.1,1.32.61,2.32,1.51,3.01.9.69,2.12,1.04,3.67,1.04,1.23,0,2.21-.18,2.95-.53.74-.35,1.26-.63,1.55-.83.25-.18.54-.26.86-.25.25,0,.62.05,1.09.14.47.1.94.27,1.41.53.33.17.5.4.5.69,0,.17-.03.4-.1.71-.04.18-.11.44-.2.78-.09.34-.22.66-.36.95-.08.14-.21.27-.38.4-.27.18-.7.42-1.29.71-.6.3-1.41.55-2.43.78-1.03.22-2.33.34-3.9.34ZM240.72,482.16h6.52c.68,0,1.02-.3,1.02-.9,0-.91-.3-1.67-.89-2.29-.59-.62-1.48-.93-2.67-.93-1.29,0-2.24.4-2.85,1.19-.61.79-.99,1.77-1.13,2.93Z"/>
      <path class="cls-4" d="M264.85,478.07h.08c1-2.66,2.8-3.99,5.4-3.99.33,0,.61.01.82.05.21.03.36.06.44.09.2.06.3.21.3.44v4.63c0,.4-.24.51-.72.33-.16-.06-.39-.13-.69-.2-.3-.07-.72-.11-1.25-.11-1.37,0-2.45.48-3.22,1.45-.77.97-1.16,2.28-1.16,3.94v8.37c0,.38-.08.65-.25.8-.17.15-.45.22-.85.22h-4.12c-.4,0-.68-.07-.85-.22-.17-.15-.25-.41-.25-.8v-16.08c0-.31.07-.54.2-.71.28-.36.62-.72,1.01-1.1.39-.37.88-.77,1.45-1.19.11-.08.21-.13.32-.16.11-.02.2-.04.28-.04.18,0,.37.06.56.19,1.11.83,1.88,1.54,2.32,2.13.12.15.18.33.18.54v1.42Z"/>
      <path class="cls-4" d="M284.92,494.56c-2.25,0-4.21-.35-5.88-1.04-1.67-.7-2.96-1.78-3.88-3.25-.92-1.47-1.38-3.37-1.38-5.7,0-3.49.93-6.14,2.8-7.93,1.87-1.79,4.35-2.69,7.44-2.69,2.02,0,3.72.35,5.11,1.04,1.39.69,2.45,1.65,3.18,2.86.73,1.22,1.09,2.6,1.09,4.16s-.41,2.58-1.22,3.19c-.81.6-2,.9-3.56.9h-8.58c.11,1.32.61,2.32,1.51,3.01.9.69,2.12,1.04,3.67,1.04,1.23,0,2.21-.18,2.95-.53.74-.35,1.26-.63,1.55-.83.25-.18.54-.26.86-.25.25,0,.62.05,1.09.14.47.1.94.27,1.41.53.33.17.5.4.5.69,0,.17-.03.4-.1.71-.04.18-.11.44-.2.78-.1.34-.22.66-.36.95-.08.14-.21.27-.38.4-.27.18-.7.42-1.29.71-.59.3-1.4.55-2.43.78-1.03.22-2.33.34-3.9.34ZM280,482.16h6.52c.68,0,1.02-.3,1.02-.9,0-.91-.3-1.67-.89-2.29-.59-.62-1.48-.93-2.67-.93-1.29,0-2.24.4-2.85,1.19-.61.79-.99,1.77-1.13,2.93Z"/>
      <path class="cls-4" d="M305.05,494.56c-1.77,0-3.29-.42-4.53-1.26-1.25-.84-2.19-1.99-2.84-3.47-.65-1.48-.97-3.18-.97-5.12,0-2.55.47-4.61,1.41-6.19.94-1.58,2.27-2.74,3.98-3.48,1.71-.74,3.74-1.11,6.07-1.11.8,0,1.46.04,1.99.11.53.08.9.15,1.13.21v-7.16c0-.31.07-.55.2-.71.56-.7,1.38-1.46,2.46-2.28.19-.13.35-.19.5-.19.17,0,.34.06.5.19.57.42,1.06.82,1.45,1.19s.73.74,1.01,1.09c.13.17.2.4.2.71v26.1c0,.24-.09.45-.26.62-.17.17-.39.26-.66.26h-2.98c-.21,0-.4-.03-.57-.09-.17-.06-.33-.17-.47-.34l-1.24-1.53h-.14c-.17.26-.48.58-.93.97-.45.39-1.09.73-1.94,1.03-.85.3-1.97.44-3.37.44ZM306.99,489.65c1.2,0,2.14-.22,2.83-.65.69-.44,1.18-.98,1.47-1.65v-8.04c-.21-.13-.57-.28-1.06-.46-.5-.18-1.19-.27-2.08-.27-1.65,0-2.89.52-3.72,1.56-.83,1.04-1.24,2.43-1.24,4.18s.35,3.16,1.04,4.03c.69.87,1.61,1.31,2.76,1.31Z"/>
      <path class="cls-4" d="M339.76,494.08c-1.37,0-2.42-.17-3.13-.5-.71-.33-1.2-.88-1.44-1.63-.25-.76-.37-1.76-.37-3.01v-19.31c0-.37.07-.65.2-.84.6-.84,1.44-1.73,2.52-2.67.2-.15.37-.23.52-.23.16,0,.33.08.5.23.59.49,1.08.95,1.48,1.39.4.44.75.87,1.04,1.28.13.2.2.49.2.84v17.02c0,.86.16,1.47.48,1.84.32.37.92.56,1.8.56l6.14-.02c.32,0,.56.05.72.15.35.23.71.5,1.08.82.37.32.77.7,1.18,1.15.13.17.2.3.2.4,0,.12-.07.24-.2.38-.41.45-.81.83-1.18,1.15-.37.32-.73.6-1.08.83-.19.1-.43.15-.72.15h-9.95Z"/>
      <path class="cls-4" d="M371.94,483.06c.19-.69.39-1.37.61-2.04.22-.67.49-1.42.81-2.25.28-.74.62-1.6,1.02-2.56.4-.97.82-1.95,1.27-2.95.45-1,.88-1.92,1.31-2.78.43-.86.81-1.54,1.16-2.05.43-.63.89-1.09,1.39-1.4.5-.31,1.23-.46,2.21-.46h2.62c.69,0,1.28.1,1.75.3.47.2.81.67,1.01,1.41.14.55.29,1.36.42,2.42.13,1.06.25,2.53.34,4.42.09,1.88.17,4.3.22,7.25.05,2.95.08,6.59.08,10.93,0,.23-.08.42-.24.58-.16.15-.35.23-.58.23h-4.56c-.23,0-.42-.08-.58-.23-.16-.15-.24-.35-.24-.59v-8.6c0-2.36,0-4.3-.02-5.85-.01-1.55-.03-2.78-.05-3.69-.02-.92-.05-1.62-.09-2.12h-.12c-.71,1.56-1.46,3.3-2.26,5.21-.8,1.91-1.58,3.88-2.34,5.91-.76,2.03-1.44,4.01-2.04,5.94-.17.57-.39.97-.65,1.2-.26.22-.85.33-1.77.33h-2.3c-.79,0-1.31-.1-1.57-.29-.26-.19-.48-.61-.67-1.25-.44-1.46-.93-3-1.46-4.63-.53-1.63-1.09-3.22-1.65-4.79-.56-1.57-1.11-3.01-1.64-4.34-.53-1.33-1-2.43-1.41-3.31h-.12c-.11,1.51-.2,3.35-.28,5.51-.08,2.16-.14,4.51-.19,7.05-.05,2.53-.08,5.12-.09,7.75,0,.23-.08.42-.24.56-.16.15-.35.22-.58.22h-4.1c-.23,0-.42-.08-.58-.23-.16-.15-.24-.35-.24-.59.01-6.82.16-12.26.43-16.33.27-4.07.57-6.79.89-8.18.22-.91.59-1.5,1.13-1.78.54-.27,1.16-.41,1.85-.41h3.24c.73,0,1.27.13,1.61.37.34.25.76.73,1.25,1.45.29.42.64,1.05,1.05,1.9.41.84.83,1.78,1.27,2.81.44,1.03.86,2.05,1.25,3.05.39,1,.72,1.88.97,2.62.27.75.51,1.49.74,2.2.23.71.43,1.41.6,2.1h.16Z"/>
      <path class="cls-4" d="M402.13,494.54c-1.69,0-3.1-.15-4.21-.44-1.12-.3-2.01-.66-2.68-1.1-.67-.44-1.19-.88-1.55-1.31-.12-.17-.23-.33-.32-.48-.09-.15-.16-.32-.2-.52-.05-.26-.11-.59-.16-1.01-.05-.42-.06-.9-.02-1.45.01-.23.06-.39.14-.48.09-.1.24-.18.46-.23.39-.09.89-.17,1.51-.24.62-.07,1.06-.1,1.33-.1.28,0,.51.05.68.15.17.1.38.27.62.52.27.27.73.61,1.38,1.03.65.42,1.66.62,3.02.62s2.29-.26,2.96-.79c.67-.52,1-1.25,1-2.19,0-.5-.16-.97-.47-1.41-.31-.44-.88-.88-1.71-1.32-.83-.44-2.01-.91-3.54-1.39-2.53-.82-4.36-1.84-5.48-3.05-1.12-1.22-1.68-2.91-1.68-5.07,0-1.79.45-3.29,1.36-4.49.91-1.2,2.16-2.11,3.76-2.72,1.6-.61,3.45-.92,5.54-.92,1.61,0,2.95.18,4.01.55,1.06.36,1.88.77,2.47,1.23.59.45.97.82,1.14,1.1.11.17.18.29.21.38.03.08.06.2.07.33.04.4.05.84.04,1.33-.01.49-.06,1.03-.14,1.65-.04.21-.11.35-.22.42-.09.06-.24.1-.44.1-1.29.03-2.3-.04-3-.19-.28-.06-.47-.13-.56-.19-.1-.06-.22-.17-.36-.31-.21-.24-.55-.53-1.01-.85-.46-.33-1.2-.49-2.21-.49-1.4,0-2.4.3-2.98.91-.59.61-.88,1.29-.88,2.04,0,.9.44,1.6,1.3,2.1.87.5,2.23,1.08,4.1,1.72,1.56.52,2.9,1.09,4.02,1.71,1.12.61,1.98,1.4,2.57,2.36.59.96.89,2.23.89,3.8,0,1.96-.47,3.58-1.41,4.88-.94,1.29-2.22,2.25-3.84,2.89-1.62.63-3.46.95-5.51.95Z"/>
    </g>
  </g>
  <g>
    <path class="cls-4" d="M254.72,287.39v17.06c-1.43,0-2.89.08-4.46.27-1.84.23-3.82,1.25-5.03.54-1.32-.78-2.54-3.82-3.43-5.31-2.05-3.45-4.14-6.76-6.4-10.61-1.52-2.6-3.7-4.72-.52-7.1,4.32-3.21,12.38-3.09,16.55,1.24,1.18,1.22,2.08,3.04,3.29,3.9ZM254.72,321.49v-10.31c-1.95,0-3.9.22-5.87.7,2.2,3.21,3.89,6.41,5.87,9.61Z"/>
    <path class="cls-4" d="M264.29,282.97c-1.99,1.5-2.85,3.71-4.61,4.58-1.1.54-1.95.37-2.69-.16v17.06c1.91,0,3.77.15,5.76.5,1.92.34,3.92,1.52,5.08.87,1.23-.68,2.73-3.59,3.72-5.04,1.34-1.96,2.44-3.81,3.38-5.15,2.54-3.65,5.23-6.67,6.77-10.31-4.48-5.49-12.32-6.19-17.42-2.36Z"/>
    <path class="cls-4" d="M263.61,312.16c-2.19-.66-4.4-.97-6.62-.98v10.31c2.29-3.11,4.24-6.22,6.62-9.33Z"/>
  </g>
  <g>
    <path class="cls-5" d="M218.16,64.44c0-5.21,1.36-8.72,5.7-8.72s5.7,3.77,5.7,3.77v25.13l13.58,11.07s-.27-37.11-1.22-55.46c-.69-13.29-13.39-18.05-20.36-19.67-2.66-.62-8.12-.53-9.75-.29-23.06,3.39-22.82,21.78-22.82,21.78v14.71l20.56,19.14v50.58l18.66,17.9v32.55l-12.55-9.64v-17.77l-17.17-16.47v-52.47l-20.77-19.79v-17.84c-7.47-7.16-19-5.47-19-5.47-30.54,4.56-25.38,34.89-25.38,34.89-51.64,6.56-27.69,47.52-27.69,47.52-42.98,16.27-15.47,52.99-15.47,52.99-7.74,5.08-8.41,15.75-8.41,15.75-3.53,21.74,21.17,28.77,21.17,28.77h17.78c30.68,29.42,50.9-2.21,50.9-2.21l16.15,14.32h15.07l25.52,23.99v18.59c0,3.59,3.04,6.51,6.78,6.51s6.79-2.92,6.79-6.51v-71.66l.41-89.2-24.16-22.46v-24.35ZM130.06,96.73c3.37,0,6.11,2.62,6.11,5.86s-2.73,5.86-6.11,5.86-6.11-2.62-6.11-5.86,2.73-5.86,6.11-5.86ZM97.08,151.03c0-3.23,2.73-5.86,6.11-5.86s6.11,2.62,6.11,5.86-2.74,5.86-6.11,5.86-6.11-2.62-6.11-5.86ZM146.89,215.48c-3.37,0-6.11-2.62-6.11-5.86s2.74-5.86,6.11-5.86,6.11,2.62,6.11,5.86-2.73,5.86-6.11,5.86ZM201.19,219.25l-27.96-24.34h-57.96l-14.25-13.67,8.89-8.53,12.01,11.52h57.42l21.85,20.96v14.06ZM231.41,236.7l-14.84-12.32v-26.04l-33.66-29.69h-35.29l-20.72-19.88.09-24.74s.83-3.65,5.97-3.65c0,0,5.71,0,5.71,5.22l-.1,20.05,15.1,13.36h23.62l.45-28.64-29.14-25.95v-33.33l-3.89-2.6s-1.27-4.78,3.08-6.86c0,0,3.71-2.34,6.24.09,2.53,2.43,5.79,5.56,5.79,5.56l.27,33.85,28.87,25.09.46,33.24,41.44,36.37.54,40.88ZM212.05,37.89c0-3.24,2.74-5.86,6.11-5.86s6.11,2.62,6.11,5.86-2.74,5.86-6.11,5.86-6.11-2.62-6.11-5.86Z"/>
    <g class="cls-2">
      <path class="cls-6" d="M429.64,188.65s-.68-10.68-8.41-15.75c0,0,27.51-36.72-15.47-52.99,0,0,23.95-40.96-27.69-47.52,0,0,5.16-30.34-25.38-34.89,0,0-11.54-1.69-19,5.47v17.84l-20.77,19.79v52.47l-17.17,16.47v17.77l-12.56,9.64v-32.55l18.67-17.9v-50.58l20.56-19.14v-14.71s.23-18.39-22.82-21.78c-1.64-.24-7.09-.33-9.75.29-6.97,1.62-19.67,6.38-20.36,19.67-.95,18.36-1.22,55.46-1.22,55.46l13.57-11.07v-25.13s1.36-3.77,5.7-3.77,5.7,3.51,5.7,8.72v24.35l-24.16,22.46.41,89.2v71.66c0,3.59,3.04,6.51,6.79,6.51s6.79-2.92,6.79-6.51v-18.59l25.52-23.99h15.06l16.15-14.32s20.23,31.64,50.9,2.21h17.78s24.7-7.03,21.17-28.77ZM381.31,96.73c3.37,0,6.11,2.62,6.11,5.86s-2.74,5.86-6.11,5.86-6.11-2.62-6.11-5.86,2.74-5.86,6.11-5.86ZM294.81,198.33v26.04l-14.84,12.32.54-40.88,41.45-36.37.45-33.24,28.87-25.09.27-33.85s3.26-3.12,5.79-5.56c2.53-2.43,6.24-.09,6.24-.09,4.35,2.08,3.08,6.86,3.08,6.86l-3.89,2.6v33.33l-29.14,25.95.45,28.64h23.62l15.11-13.36-.1-20.05c0-5.21,5.72-5.22,5.72-5.22,5.14,0,5.97,3.65,5.97,3.65l.09,24.74-20.72,19.88h-35.29l-33.66,29.69ZM364.49,215.48c-3.38,0-6.11-2.62-6.11-5.86s2.73-5.86,6.11-5.86,6.11,2.62,6.11,5.86-2.73,5.86-6.11,5.86ZM396.11,194.91h-57.96l-27.96,24.34v-14.06l21.85-20.96h57.42l12.01-11.52,8.89,8.53-14.25,13.67ZM408.19,156.89c-3.37,0-6.11-2.62-6.11-5.86s2.74-5.86,6.11-5.86,6.11,2.62,6.11,5.86-2.73,5.86-6.11,5.86Z"/>
    </g>
    <path class="cls-4" d="M262.93,269.02c0,3.58-3.03,6.49-6.76,6.49h0c-3.73,0-6.76-2.9-6.76-6.49V26.95c0-3.58,3.03-6.48,6.76-6.48h0c3.73,0,6.76,2.9,6.76,6.48"/>
  </g>
</svg>