<?xml version="1.0" encoding="UTF-8"?>
<svg id="Layer_1" data-name="Layer 1" xmlns="http://www.w3.org/2000/svg" xmlns:xlink="http://www.w3.org/1999/xlink" viewBox="0 0 341 364">
  <defs>
    <style>
      .cls-1 {
        fill: url(#linear-gradient-2);
      }

      .cls-1, .cls-2 {
        isolation: isolate;
      }

      .cls-3 {
        fill: url(#linear-gradient);
      }

      .cls-4 {
        fill: #ffffff;
      }

      .cls-5 {
        fill: #f36e21;
      }

      .cls-6 {
        fill: #339746;
      }
    </style>
    <linearGradient id="linear-gradient" x1="8.34" y1="215.39" x2="170.2" y2="215.39" gradientUnits="userSpaceOnUse">
      <stop offset=".51" stop-color="#cf633d"/>
      <stop offset=".62" stop-color="#d1693e"/>
      <stop offset=".77" stop-color="#da7a42"/>
      <stop offset=".94" stop-color="#e79648"/>
      <stop offset="1" stop-color="#eda24b"/>
    </linearGradient>
    <linearGradient id="linear-gradient-2" x1="170.2" y1="215.39" x2="332.07" y2="215.39" gradientUnits="userSpaceOnUse">
      <stop offset="0" stop-color="#c3d153"/>
      <stop offset=".21" stop-color="#b0c54c"/>
      <stop offset=".44" stop-color="#a2bc48"/>
      <stop offset=".64" stop-color="#9eba47"/>
      <stop offset="1" stop-color="#7ba640"/>
    </linearGradient>
  </defs>
  <path class="cls-3" d="M8.34,232.28s8.1-11.4,11.77-15.31c.13-.14.26-.28.38-.4,3.46-3.46-.25.25-.25.25,0,0,26.99,10.54,70.19,0,0,0,30.48-12.04,68.64,8.54,0,0-11.41-16.83-56.48-16.83,0,0-17.3,2.43-24.59,3.09-7.29.65-30.95,2.06-43.58-11.41,0,0-.93-2.71,1.96-1.31,2.9,1.4,15.52,7.76,40.77,4.67,25.25-3.08,62.46-12.62,93.04,26.74"/>
  <path class="cls-1" d="M332.07,232.28s-8.1-11.4-11.77-15.31c-.13-.14-.26-.28-.38-.4-3.46-3.46.25.25.25.25,0,0-26.99,10.54-70.19,0,0,0-30.48-12.04-68.63,8.54,0,0,11.41-16.83,56.48-16.83,0,0,17.3,2.43,24.59,3.09,7.29.65,30.95,2.06,43.58-11.41,0,0,.93-2.71-1.96-1.31-2.9,1.4-15.52,7.76-40.77,4.67-25.25-3.08-62.46-12.62-93.04,26.74"/>
  <path class="cls-4" d="M153.34,229.79h35.1s-1.93,14.03-16.02,16.02c0,0-16.34,2.04-19.08-16.02Z"/>
  <path class="cls-4" d="M332.63,229.57h-144.79c-.25,3.68-1.65,7.04-3.86,9.73-3.15,3.82-7.92,6.26-13.26,6.26s-10.11-2.44-13.26-6.26c-2.21-2.68-3.61-6.05-3.86-9.73H7.54c-2.69,0-4.86,2.18-4.86,4.87s2.18,4.86,4.86,4.86h139.21c4.14,9.1,13.31,15.43,23.96,15.43s19.82-6.33,23.96-15.43h137.95c2.69,0,4.86-2.18,4.86-4.86s-2.18-4.87-4.86-4.87Z"/>
  <g>
    <g>
      <path class="cls-4" d="M19.81,318.03c-3.36,0-5.05-1.41-5.05-4.22,0-.89.17-1.75.51-2.58.34-.83.96-1.85,1.85-3.05l27.08-36.31h-22.55c-.63,0-1.1-.1-1.42-.32-.68-.47-1.39-1.04-2.11-1.69-.72-.66-1.5-1.45-2.34-2.37-.26-.34-.4-.61-.4-.83,0-.24.13-.5.4-.79.84-.92,1.62-1.71,2.34-2.37.72-.66,1.42-1.22,2.11-1.69.37-.21.84-.32,1.42-.32h34.22c3.44,0,5.16,1.42,5.16,4.26,0,1-.2,1.92-.59,2.76-.39.84-.97,1.79-1.73,2.84l-26.93,36.35,24.64-.04c.63,0,1.1.1,1.42.32.68.47,1.39,1.04,2.13,1.69.74.66,1.51,1.45,2.33,2.37.26.34.4.62.4.83,0,.24-.13.5-.4.79-.81.92-1.59,1.71-2.33,2.37-.74.66-1.45,1.22-2.13,1.7-.37.21-.84.32-1.42.32H19.81Z"/>
      <path class="cls-4" d="M94.44,319.01c-5.47,0-10.23-1.05-14.27-3.15-4.05-2.1-7.18-5.27-9.4-9.5-2.22-4.23-3.33-9.51-3.33-15.85,0-10.06,2.46-17.58,7.37-22.53,4.91-4.96,11.76-7.43,20.54-7.43,8.23,0,14.73,2.42,19.51,7.27,4.78,4.85,7.17,12.03,7.17,21.54,0,6.73-1.12,12.28-3.35,16.66-2.23,4.38-5.41,7.63-9.54,9.78-4.13,2.14-9.03,3.21-14.71,3.21ZM94.67,308.37c4.73,0,8.24-1.7,10.53-5.08,2.29-3.39,3.43-7.79,3.43-13.21,0-6.28-1.08-11-3.23-14.15-2.15-3.15-5.62-4.73-10.41-4.73-9.43,0-14.15,6.22-14.15,18.65,0,5.54,1.14,10.02,3.41,13.42,2.27,3.4,5.75,5.1,10.43,5.1Z"/>
      <path class="cls-4" d="M144.62,315.94c0,.79-.16,1.33-.49,1.63-.33.3-.89.45-1.67.45h-8.4c-.79,0-1.35-.15-1.68-.45-.33-.3-.49-.85-.49-1.63v-43.88c0-2.63.24-4.71.73-6.25.49-1.54,1.43-2.64,2.84-3.31,1.41-.67,3.46-1,6.17-1h10.45c13.72,0,20.58,5.27,20.58,15.81,0,3.21-.54,5.83-1.62,7.88-1.08,2.05-2.42,3.65-4.02,4.79-1.6,1.14-3.18,2-4.73,2.58v.2c1.76,1.16,3.44,2.67,5.03,4.55,1.59,1.88,3.03,3.92,4.31,6.11,1.29,2.2,2.38,4.36,3.27,6.5.89,2.14,1.51,4.05,1.85,5.74.16.79.16,1.38.02,1.77-.14.4-.59.59-1.36.59h-9.11c-.68,0-1.28-.14-1.79-.43-.51-.29-.98-.96-1.4-2.01-2-5.02-4.3-9.11-6.9-12.28-2.61-3.17-5.11-5.71-7.53-7.63-1.55-1.24-2.33-2.12-2.33-2.64,0-.42.25-1,.75-1.73.32-.45.78-.99,1.38-1.62.6-.63,1.13-1.1,1.58-1.42.45-.31.81-.51,1.08-.59.28-.08.7-.12,1.28-.12,1.95,0,3.57-.67,4.87-2.01,1.3-1.34,1.95-3.45,1.95-6.35,0-2.74-.69-4.74-2.07-6.01-1.38-1.27-3.28-1.91-5.7-1.91h-2.36c-1.73,0-2.92.37-3.55,1.1-.63.74-.95,2-.95,3.78v39.78Z"/>
      <path class="cls-4" d="M214.99,264.61c1.45,2.03,2.92,4.63,4.44,7.83,1.51,3.19,2.98,6.7,4.4,10.5,1.42,3.81,2.7,7.71,3.84,11.69,1.14,3.98,2.08,7.81,2.82,11.49.74,3.68,1.16,6.95,1.26,9.82.03,1.39-.61,2.09-1.89,2.09h-9.54c-1.24,0-1.88-.62-1.93-1.85-.11-2.94-.58-6.52-1.42-10.72h-21.53c-.74,4.1-1.16,7.67-1.26,10.72-.05,1.23-.72,1.85-2.01,1.85h-9.34c-.47,0-.87-.14-1.18-.41-.32-.28-.46-.75-.43-1.44.13-2.92.56-6.24,1.28-9.96.72-3.72,1.66-7.58,2.82-11.57,1.16-3.99,2.44-7.9,3.86-11.73,1.42-3.82,2.89-7.33,4.42-10.51,1.52-3.18,3.01-5.78,4.46-7.81.76-1.08,1.57-1.87,2.42-2.37.86-.5,1.91-.75,3.17-.75h5.68c1.29,0,2.37.25,3.23.75.87.5,1.68,1.29,2.45,2.37ZM206.08,273.95c-1.74,2.76-3.33,6.06-4.77,9.9-1.45,3.84-2.69,7.78-3.75,11.83h17.11c-1.1-4.05-2.38-7.99-3.82-11.83-1.45-3.84-2.96-7.13-4.54-9.9h-.24Z"/>
      <path class="cls-4" d="M286.35,264.61c1.45,2.03,2.92,4.63,4.44,7.83,1.51,3.19,2.98,6.7,4.4,10.5,1.42,3.81,2.7,7.71,3.84,11.69,1.14,3.98,2.08,7.81,2.82,11.49.74,3.68,1.16,6.95,1.26,9.82.03,1.39-.6,2.09-1.89,2.09h-9.54c-1.24,0-1.88-.62-1.93-1.85-.1-2.94-.58-6.52-1.42-10.72h-21.53c-.73,4.1-1.16,7.67-1.26,10.72-.05,1.23-.72,1.85-2.01,1.85h-9.34c-.47,0-.87-.14-1.18-.41-.32-.28-.46-.75-.43-1.44.13-2.92.56-6.24,1.28-9.96.72-3.72,1.66-7.58,2.82-11.57,1.16-3.99,2.45-7.9,3.87-11.73,1.42-3.82,2.89-7.33,4.42-10.51,1.52-3.18,3.01-5.78,4.46-7.81.76-1.08,1.57-1.87,2.42-2.37.86-.5,1.91-.75,3.17-.75h5.68c1.29,0,2.37.25,3.23.75.87.5,1.68,1.29,2.44,2.37ZM277.44,273.95c-1.74,2.76-3.33,6.06-4.77,9.9-1.45,3.84-2.69,7.78-3.74,11.83h17.11c-1.1-4.05-2.38-7.99-3.82-11.83-1.45-3.84-2.96-7.13-4.54-9.9h-.23Z"/>
      <path class="cls-4" d="M325.11,315.94c0,.79-.16,1.33-.49,1.63-.33.3-.89.45-1.68.45h-8.4c-.79,0-1.35-.15-1.68-.45-.33-.3-.49-.85-.49-1.63v-48.14c0-.76.13-1.34.39-1.73,1.18-1.73,2.84-3.56,4.97-5.48.4-.32.74-.47,1.03-.47.31,0,.64.16.99.47,1.16,1,2.13,1.95,2.92,2.86.79.91,1.47,1.78,2.05,2.62.26.42.39,1,.39,1.73v48.14Z"/>
    </g>
    <g>
      <path class="cls-4" d="M72.54,331.48c.5.71,1.02,1.62,1.55,2.74.53,1.12,1.04,2.34,1.54,3.67.5,1.33.95,2.7,1.35,4.09.4,1.39.73,2.73.99,4.02.26,1.29.4,2.43.44,3.43,0,.49-.21.73-.66.73h-3.33c-.43,0-.66-.22-.68-.65-.04-1.03-.2-2.28-.5-3.75h-7.53c-.26,1.43-.41,2.68-.44,3.75-.02.43-.25.65-.7.65h-3.27c-.17,0-.3-.05-.41-.14-.11-.1-.16-.26-.15-.5.05-1.02.2-2.18.45-3.48.25-1.3.58-2.65.99-4.04.4-1.4.85-2.76,1.35-4.1.49-1.34,1.01-2.56,1.54-3.67.53-1.11,1.05-2.02,1.56-2.73.27-.38.55-.65.85-.83.3-.17.67-.26,1.11-.26h1.98c.45,0,.83.09,1.13.26.3.17.59.45.85.83ZM69.43,334.74c-.61.96-1.16,2.12-1.67,3.46-.51,1.34-.94,2.72-1.31,4.14h5.98c-.39-1.42-.83-2.79-1.34-4.14-.5-1.34-1.03-2.49-1.58-3.46h-.08Z"/>
      <path class="cls-4" d="M86.09,349.42c0,.28-.06.47-.17.57-.11.11-.31.16-.59.16h-2.94c-.28,0-.47-.05-.59-.16-.11-.1-.17-.3-.17-.57v-16.83c0-.27.04-.47.14-.61.41-.61.99-1.25,1.74-1.92.14-.11.26-.17.36-.17.11,0,.23.06.35.17.4.35.74.68,1.02,1,.27.32.51.62.72.92.09.15.14.35.14.61v16.83Z"/>
      <path class="cls-4" d="M105.78,343.55c-.24,0-.44-.06-.61-.18-.18-.12-.38-.29-.62-.51-.24-.22-.51-.49-.8-.81-.11-.13-.17-.24-.17-.34s.05-.22.17-.34c.57-.64,1.09-1.12,1.56-1.42.11-.07.27-.11.47-.11.62,0,1.16-.23,1.62-.7.46-.47.67-1.23.65-2.27,0-1.13-.29-1.92-.83-2.37-.55-.45-1.29-.67-2.24-.67h-.66c-.61,0-1.02.13-1.24.39-.22.26-.33.7-.33,1.32v13.91c0,.28-.06.47-.17.57-.11.11-.31.16-.59.16h-2.94c-.27,0-.47-.05-.59-.16-.11-.1-.17-.3-.17-.57v-15.34c0-.92.08-1.65.25-2.18.17-.54.5-.92.99-1.16.49-.23,1.21-.35,2.16-.35h3.28c2.64,0,4.59.52,5.86,1.55,1.27,1.03,1.9,2.62,1.9,4.75,0,1.6-.33,2.9-1,3.92-.67,1.01-1.53,1.76-2.59,2.23-1.06.48-2.19.72-3.37.72Z"/>
      <path class="cls-4" d="M122.19,350.5c-2.32,0-4.15-.62-5.5-1.85-1.35-1.23-2.03-3.06-2.03-5.5s.7-4.37,2.1-5.6c1.4-1.24,3.27-1.85,5.62-1.85s4.07.61,5.43,1.83c1.36,1.22,2.04,3.01,2.04,5.38s-.68,4.36-2.04,5.65c-1.36,1.3-3.23,1.94-5.62,1.94ZM122.33,347.16c1.01,0,1.77-.32,2.29-.94.51-.63.77-1.71.77-3.23s-.26-2.47-.78-3.07c-.52-.59-1.29-.89-2.31-.89s-1.76.32-2.32.96c-.57.64-.85,1.67-.85,3.11s.27,2.55.81,3.16c.54.61,1.33.91,2.39.91Z"/>
      <path class="cls-4" d="M135.29,349.15c-.27-.41-.55-.99-.85-1.73-.3-.74-.6-1.56-.9-2.47-.29-.91-.56-1.81-.81-2.72-.24-.9-.44-1.74-.59-2.49-.15-.76-.22-1.35-.22-1.79,0-.18.05-.33.15-.45.42-.52,1.02-1.07,1.81-1.64.14-.09.26-.14.37-.14.12,0,.24.04.37.14.42.3.78.59,1.07.85.29.27.53.53.74.79.1.12.15.29.15.51v-.07c0,.57.03,1.23.1,1.97.07.75.17,1.51.3,2.3.13.79.28,1.54.46,2.26.18.72.38,1.33.6,1.85h.08c.24-.52.49-1.19.76-2.01.27-.83.52-1.7.77-2.62.24-.92.46-1.79.65-2.61.19-.82.33-1.47.41-1.94.06-.36.21-.6.43-.72.22-.12.54-.18.94-.18h1.6c.46,0,.79.07.99.21.2.14.32.37.36.69.07.5.21,1.17.4,2.01.19.84.41,1.73.65,2.67.24.94.49,1.82.74,2.63.25.82.46,1.45.63,1.89h.1c.27-.61.54-1.39.78-2.35.25-.96.45-1.97.61-3.04.16-1.07.24-2.06.24-2.98v.06c0-.22.04-.39.14-.51.21-.26.46-.52.74-.79.29-.27.63-.55,1.03-.85.13-.09.25-.14.36-.14.13,0,.25.04.36.14.41.3.76.59,1.05.85.28.27.53.53.73.79.09.12.14.28.14.48,0,.45-.1,1.05-.26,1.8-.17.75-.39,1.57-.66,2.46-.27.89-.57,1.78-.9,2.67-.33.89-.66,1.71-.99,2.46-.34.74-.65,1.34-.93,1.78-.18.29-.34.5-.48.65-.14.15-.31.24-.5.29-.2.05-.49.07-.88.07h-1.56c-.43,0-.77-.06-1.01-.19-.24-.12-.47-.4-.68-.82-.13-.25-.28-.66-.47-1.25-.18-.58-.37-1.22-.56-1.91-.19-.69-.36-1.34-.51-1.95-.15-.61-.24-1.05-.29-1.34-.05-.28-.09-.61-.14-1.01-.05-.4-.08-.71-.1-.94h-.07c0,.23-.04.54-.09.93-.05.39-.1.73-.16,1.03-.06.26-.16.65-.3,1.19-.15.54-.32,1.13-.53,1.78-.21.65-.42,1.28-.65,1.9-.22.62-.44,1.14-.64,1.57-.2.42-.43.7-.7.82-.26.12-.68.19-1.25.19h-1.6c-.45,0-.76-.07-.92-.21-.16-.14-.37-.4-.63-.8ZM131.93,337.93v.08-.08ZM153.75,337.96v.06-.06Z"/>
      <path class="cls-4" d="M163.49,350.5c-1.55,0-2.9-.25-4.05-.75-1.15-.5-2.04-1.28-2.67-2.34-.63-1.06-.95-2.42-.95-4.09,0-2.51.64-4.41,1.93-5.69,1.29-1.29,3-1.93,5.13-1.93,1.39,0,2.56.25,3.52.75.96.5,1.69,1.18,2.19,2.05.5.87.75,1.87.75,2.99s-.28,1.86-.84,2.29c-.56.43-1.38.65-2.45.65h-5.91c.07.95.42,1.67,1.04,2.16.62.5,1.46.75,2.53.75.84,0,1.52-.13,2.03-.38.51-.25.87-.45,1.07-.6.17-.13.37-.19.59-.18.17,0,.43.04.75.1.33.07.65.2.97.38.23.12.35.29.35.5,0,.12-.02.29-.07.51-.03.13-.07.31-.14.56-.07.24-.15.47-.25.68-.06.1-.14.2-.26.29-.18.13-.48.3-.89.51-.41.21-.97.4-1.67.56-.71.16-1.6.24-2.69.24ZM160.1,341.59h4.49c.47,0,.7-.21.7-.65,0-.65-.2-1.2-.61-1.65-.41-.45-1.02-.67-1.84-.67-.89,0-1.55.28-1.96.85-.42.57-.68,1.27-.78,2.11Z"/>
      <path class="cls-4" d="M176.72,338.66h.05c.69-1.91,1.93-2.87,3.72-2.87.23,0,.42.01.56.03.15.02.25.04.3.06.14.05.21.15.21.32v3.32c0,.29-.17.36-.5.23-.11-.05-.27-.09-.48-.14-.21-.05-.49-.08-.86-.08-.95,0-1.69.35-2.22,1.04-.53.69-.8,1.64-.8,2.83v6.01c0,.28-.06.47-.17.57-.12.11-.31.16-.59.16h-2.84c-.28,0-.47-.05-.59-.16-.11-.1-.17-.3-.17-.57v-11.55c0-.22.05-.39.14-.51.19-.26.42-.52.7-.79.27-.27.6-.55,1-.85.07-.06.15-.09.22-.11.07-.02.14-.03.19-.03.13,0,.26.05.38.14.76.6,1.3,1.11,1.6,1.53.08.11.12.24.12.38v1.02Z"/>
      <path class="cls-4" d="M190.55,350.5c-1.55,0-2.9-.25-4.05-.75-1.15-.5-2.04-1.28-2.67-2.34-.63-1.06-.95-2.42-.95-4.09,0-2.51.64-4.41,1.93-5.69,1.29-1.29,3-1.93,5.13-1.93,1.39,0,2.56.25,3.52.75.96.5,1.69,1.18,2.19,2.05.5.87.75,1.87.75,2.99s-.28,1.86-.84,2.29c-.56.43-1.38.65-2.45.65h-5.91c.07.95.42,1.67,1.04,2.16.62.5,1.46.75,2.53.75.85,0,1.52-.13,2.03-.38.51-.25.87-.45,1.07-.6.17-.13.37-.19.59-.18.17,0,.42.04.75.1.33.07.65.2.97.38.23.12.34.29.34.5,0,.12-.02.29-.07.51-.03.13-.07.31-.14.56-.07.24-.15.47-.25.68-.06.1-.14.2-.26.29-.18.13-.48.3-.89.51-.41.21-.97.4-1.67.56-.71.16-1.61.24-2.69.24ZM187.16,341.59h4.49c.47,0,.7-.21.7-.65,0-.65-.2-1.2-.61-1.65-.41-.45-1.02-.67-1.84-.67-.89,0-1.55.28-1.96.85-.42.57-.68,1.27-.78,2.11Z"/>
      <path class="cls-4" d="M204.42,350.5c-1.22,0-2.26-.3-3.12-.9-.86-.6-1.51-1.43-1.96-2.49-.45-1.06-.67-2.29-.67-3.67,0-1.83.32-3.31.97-4.45.65-1.13,1.56-1.97,2.74-2.5,1.18-.53,2.58-.8,4.18-.8.55,0,1.01.03,1.37.08.36.06.62.11.78.15v-5.14c0-.22.04-.39.14-.51.39-.5.95-1.05,1.7-1.64.13-.09.24-.14.35-.14.12,0,.23.05.34.14.4.3.73.59,1,.85s.5.53.7.79c.09.12.14.29.14.51v18.75c0,.17-.06.32-.18.45-.12.12-.27.19-.45.19h-2.05c-.15,0-.28-.02-.39-.06-.12-.04-.22-.12-.33-.24l-.85-1.1h-.1c-.12.18-.33.42-.64.7-.31.28-.75.53-1.34.74-.58.21-1.36.32-2.32.32ZM205.75,346.97c.83,0,1.48-.16,1.95-.47.47-.31.81-.71,1.01-1.18v-5.78c-.15-.09-.39-.2-.73-.33-.34-.13-.82-.19-1.44-.19-1.14,0-1.99.37-2.56,1.12-.57.74-.85,1.75-.85,3s.24,2.27.72,2.9c.48.62,1.11.94,1.9.94Z"/>
      <path class="cls-4" d="M228.33,350.16c-.95,0-1.66-.12-2.16-.36-.49-.24-.82-.63-.99-1.17-.17-.54-.25-1.26-.25-2.16v-13.87c0-.27.04-.47.14-.61.41-.61.99-1.25,1.74-1.92.14-.11.26-.17.36-.17.11,0,.23.06.35.17.4.35.74.68,1.02,1,.27.32.51.62.72.92.09.15.14.35.14.61v12.23c0,.62.11,1.06.33,1.32.22.27.63.4,1.24.4h4.23c.22-.01.39.02.5.1.24.17.49.36.75.59.26.23.53.51.81.83.09.12.14.21.14.29,0,.08-.05.17-.14.28-.28.32-.55.6-.81.83-.26.23-.51.43-.75.59-.13.07-.29.11-.5.11h-6.85Z"/>
      <path class="cls-4" d="M250.5,342.24c.13-.5.27-.99.42-1.47.15-.48.34-1.02.56-1.62.19-.53.43-1.15.7-1.84.28-.69.57-1.4.87-2.12.31-.72.61-1.38.9-2,.29-.62.56-1.11.8-1.48.29-.45.61-.79.96-1.01.34-.22.85-.33,1.52-.33h1.81c.48,0,.88.07,1.21.21.32.14.56.48.7,1.01.1.39.2.97.29,1.74.09.76.17,1.82.23,3.17.06,1.35.11,3.08.15,5.2.04,2.12.06,4.73.06,7.85,0,.17-.06.3-.17.41-.11.11-.24.16-.4.16h-3.14c-.16,0-.29-.05-.4-.16-.11-.11-.16-.25-.16-.43v-6.18c0-1.69,0-3.09-.01-4.2,0-1.11-.02-2-.04-2.65-.01-.66-.04-1.17-.06-1.52h-.08c-.49,1.12-1.01,2.37-1.56,3.74-.55,1.37-1.09,2.79-1.61,4.25-.53,1.46-.99,2.88-1.41,4.27-.12.41-.27.7-.45.86-.18.16-.59.24-1.22.24h-1.58c-.54,0-.9-.07-1.08-.21-.18-.14-.33-.44-.46-.89-.3-1.05-.64-2.16-1.01-3.32-.37-1.17-.75-2.31-1.14-3.44-.39-1.13-.77-2.16-1.13-3.12-.36-.95-.69-1.74-.97-2.38h-.08c-.07,1.08-.14,2.4-.19,3.95-.05,1.55-.1,3.24-.13,5.06-.03,1.82-.05,3.68-.06,5.57,0,.16-.05.3-.17.41-.11.11-.24.16-.4.16h-2.83c-.16,0-.29-.05-.4-.16-.11-.11-.17-.25-.17-.43,0-4.9.11-8.81.3-11.73.19-2.92.39-4.88.61-5.87.15-.65.41-1.08.78-1.28.37-.2.8-.3,1.27-.3h2.23c.5,0,.87.09,1.11.27.23.18.52.53.86,1.04.2.3.44.76.72,1.36.28.61.57,1.28.88,2.02.3.74.59,1.47.86,2.19.27.72.49,1.35.67,1.88.18.54.35,1.07.51,1.58.16.51.29,1.01.41,1.51h.11Z"/>
      <path class="cls-4" d="M271.3,350.49c-1.17,0-2.13-.11-2.9-.32-.77-.21-1.38-.48-1.85-.79-.46-.32-.82-.63-1.07-.94-.08-.12-.16-.24-.22-.35-.06-.11-.11-.23-.14-.37-.04-.18-.07-.43-.11-.72-.04-.3-.04-.65-.01-1.04,0-.17.04-.28.1-.35.06-.07.17-.13.32-.17.27-.06.61-.12,1.04-.17.43-.05.73-.07.91-.07.19,0,.35.04.47.11.12.07.26.2.43.37.19.19.5.44.95.74.45.3,1.14.45,2.08.45s1.58-.19,2.04-.56c.46-.38.69-.9.69-1.57,0-.36-.11-.7-.32-1.01-.21-.32-.61-.63-1.18-.95-.57-.32-1.38-.65-2.44-1-1.75-.59-3-1.32-3.78-2.19-.77-.87-1.16-2.09-1.16-3.64,0-1.29.31-2.36.94-3.23.63-.86,1.49-1.51,2.59-1.96,1.1-.44,2.37-.66,3.82-.66,1.11,0,2.03.13,2.76.39.73.26,1.3.56,1.7.88.4.33.67.59.79.79.07.12.12.21.14.27.02.06.04.14.05.24.03.29.04.6.03.95,0,.35-.04.74-.1,1.18-.03.15-.08.25-.15.3-.06.05-.17.07-.3.07-.89.02-1.58-.03-2.07-.14-.19-.05-.32-.09-.38-.14-.07-.05-.15-.12-.25-.22-.15-.17-.38-.38-.7-.61-.32-.23-.83-.35-1.52-.35-.96,0-1.65.22-2.05.66-.41.44-.61.92-.61,1.47,0,.64.3,1.15.9,1.51.6.36,1.54.77,2.83,1.23,1.07.38,2,.79,2.77,1.23.77.44,1.36,1.01,1.77,1.7.41.69.61,1.6.61,2.73,0,1.41-.32,2.57-.97,3.5-.65.93-1.53,1.62-2.65,2.07-1.12.46-2.38.68-3.8.68Z"/>
    </g>
  </g>
  <g>
    <path class="cls-4" d="M169.74,201.71v12.25c-.99,0-1.99.06-3.07.19-1.27.16-2.63.9-3.46.39-.91-.56-1.75-2.75-2.36-3.81-1.41-2.48-2.85-4.86-4.41-7.62-1.05-1.86-2.55-3.39-.36-5.1,2.97-2.3,8.53-2.22,11.4.89.81.88,1.43,2.18,2.27,2.8ZM169.74,226.2v-7.4c-1.34,0-2.69.16-4.05.5,1.52,2.3,2.68,4.6,4.05,6.9Z"/>
    <path class="cls-4" d="M176.34,198.54c-1.37,1.08-1.96,2.67-3.17,3.29-.76.39-1.35.26-1.86-.11v12.25c1.31,0,2.6.11,3.97.36,1.32.24,2.7,1.09,3.5.63.84-.49,1.88-2.58,2.56-3.62.92-1.41,1.68-2.74,2.33-3.7,1.75-2.62,3.6-4.79,4.67-7.4-3.08-3.95-8.49-4.44-12-1.69Z"/>
    <path class="cls-4" d="M175.87,219.5c-1.51-.48-3.03-.7-4.56-.7v7.4c1.57-2.23,2.92-4.47,4.56-6.7Z"/>
  </g>
  <g>
    <path class="cls-5" d="M144.56,41.59c0-3.74.93-6.26,3.93-6.26s3.93,2.71,3.93,2.71v18.05l9.35,7.95s-.19-26.65-.84-39.83c-.47-9.54-9.23-12.96-14.03-14.13-1.83-.44-5.59-.38-6.72-.21-15.88,2.44-15.72,15.64-15.72,15.64v10.57l14.17,13.75v36.33l12.86,12.86v23.38l-8.65-6.92v-12.76l-11.83-11.83v-37.68l-14.31-14.21v-12.81c-5.14-5.14-13.09-3.93-13.09-3.93-21.04,3.27-17.49,25.06-17.49,25.06-35.58,4.71-19.08,34.13-19.08,34.13-29.61,11.69-10.66,38.06-10.66,38.06-5.33,3.65-5.8,11.31-5.8,11.31-2.43,15.62,14.59,20.66,14.59,20.66h12.25c21.13,21.13,35.07-1.59,35.07-1.59l11.13,10.29h10.38l17.58,17.23v13.35c0,2.58,2.09,4.67,4.67,4.67s4.68-2.09,4.68-4.67v-51.47l.28-64.06-16.65-16.13v-17.49ZM83.87,64.78c2.32,0,4.21,1.88,4.21,4.21s-1.88,4.21-4.21,4.21-4.21-1.88-4.21-4.21,1.88-4.21,4.21-4.21ZM61.15,103.77c0-2.32,1.88-4.21,4.21-4.21s4.21,1.88,4.21,4.21-1.89,4.21-4.21,4.21-4.21-1.88-4.21-4.21ZM95.46,150.06c-2.32,0-4.21-1.88-4.21-4.21s1.88-4.21,4.21-4.21,4.21,1.88,4.21,4.21-1.88,4.21-4.21,4.21ZM132.87,152.77l-19.26-17.48h-39.93l-9.82-9.82,6.12-6.13,8.28,8.28h39.55l15.06,15.06v10.1ZM153.69,165.3l-10.22-8.85v-18.7l-23.19-21.32h-24.31l-14.27-14.28.06-17.77s.57-2.62,4.11-2.62c0,0,3.94,0,3.94,3.75l-.07,14.4,10.41,9.59h16.27l.31-20.57-20.07-18.64v-23.94l-2.68-1.87s-.87-3.43,2.12-4.93c0,0,2.55-1.68,4.3.06,1.75,1.75,3.99,3.99,3.99,3.99l.19,24.31,19.89,18.02.31,23.88,28.55,26.12.37,29.36ZM140.35,22.52c0-2.33,1.88-4.21,4.21-4.21s4.21,1.88,4.21,4.21-1.88,4.21-4.21,4.21-4.21-1.88-4.21-4.21Z"/>
    <g class="cls-2">
      <path class="cls-6" d="M290.25,130.8s-.47-7.67-5.8-11.31c0,0,18.95-26.37-10.66-38.06,0,0,16.5-29.42-19.08-34.13,0,0,3.55-21.79-17.48-25.06,0,0-7.95-1.21-13.09,3.93v12.81l-14.31,14.21v37.68l-11.83,11.83v12.76l-8.65,6.92v-23.38l12.86-12.86v-36.33l14.17-13.75v-10.57s.16-13.21-15.72-15.64c-1.13-.17-4.89-.24-6.72.21-4.8,1.16-13.55,4.58-14.03,14.13-.66,13.18-.84,39.83-.84,39.83l9.35-7.95v-18.05s.93-2.71,3.93-2.71,3.93,2.52,3.93,6.26v17.49l-16.65,16.13.28,64.06v51.47c0,2.58,2.09,4.67,4.67,4.67s4.67-2.09,4.67-4.67v-13.35l17.58-17.23h10.38l11.13-10.29s13.93,22.72,35.06,1.59h12.25s17.02-5.05,14.59-20.66ZM256.96,64.78c2.32,0,4.21,1.88,4.21,4.21s-1.88,4.21-4.21,4.21-4.21-1.88-4.21-4.21,1.88-4.21,4.21-4.21ZM197.36,137.75v18.7l-10.22,8.85.37-29.36,28.55-26.12.31-23.88,19.89-18.02.19-24.31s2.24-2.24,3.99-3.99c1.74-1.74,4.3-.06,4.3-.06,2.99,1.5,2.12,4.93,2.12,4.93l-2.68,1.87v23.94l-20.07,18.64.31,20.57h16.27l10.41-9.59-.07-14.4c0-3.74,3.94-3.75,3.94-3.75,3.54,0,4.11,2.62,4.11,2.62l.06,17.77-14.27,14.28h-24.31l-23.19,21.32ZM245.36,150.06c-2.33,0-4.21-1.88-4.21-4.21s1.88-4.21,4.21-4.21,4.21,1.88,4.21,4.21-1.88,4.21-4.21,4.21ZM267.15,135.29h-39.93l-19.26,17.48v-10.1l15.05-15.06h39.55l8.28-8.28,6.12,6.13-9.82,9.82ZM275.47,107.98c-2.32,0-4.21-1.88-4.21-4.21s1.88-4.21,4.21-4.21,4.21,1.88,4.21,4.21-1.88,4.21-4.21,4.21Z"/>
    </g>
    <path class="cls-4" d="M175.41,188.52c0,2.57-2.08,4.66-4.66,4.66h0c-2.57,0-4.66-2.08-4.66-4.66V14.66c0-2.57,2.08-4.66,4.66-4.66h0c2.57,0,4.66,2.08,4.66,4.66"/>
  </g>
</svg>