<?xml version="1.0" encoding="UTF-8"?>
<svg id="Layer_1" data-name="Layer 1" xmlns="http://www.w3.org/2000/svg" xmlns:xlink="http://www.w3.org/1999/xlink" viewBox="0 0 64 64">
  <defs>
    <style>
      .cls-1 {
        fill: url(#linear-gradient-2);
      }

      .cls-1, .cls-2 {
        isolation: isolate;
      }

      .cls-3 {
        fill: url(#linear-gradient);
      }

      .cls-4 {
        fill: #223a3a;
      }

      .cls-5 {
        fill: #f36e21;
      }

      .cls-6 {
        fill: #339746;
      }
    </style>
    <linearGradient id="linear-gradient" x1="2.91" y1="37.6" x2="32.16" y2="37.6" gradientUnits="userSpaceOnUse">
      <stop offset=".51" stop-color="#cf633d"/>
      <stop offset=".62" stop-color="#d1693e"/>
      <stop offset=".77" stop-color="#da7a42"/>
      <stop offset=".94" stop-color="#e79648"/>
      <stop offset="1" stop-color="#eda24b"/>
    </linearGradient>
    <linearGradient id="linear-gradient-2" x1="32.16" y1="37.6" x2="61.41" y2="37.6" gradientUnits="userSpaceOnUse">
      <stop offset="0" stop-color="#c3d153"/>
      <stop offset=".21" stop-color="#b0c54c"/>
      <stop offset=".44" stop-color="#a2bc48"/>
      <stop offset=".64" stop-color="#9eba47"/>
      <stop offset="1" stop-color="#7ba640"/>
    </linearGradient>
  </defs>
  <path class="cls-3" d="M2.91,40.53s1.46-1.98,2.13-2.65c.02-.02.05-.05.07-.07.63-.6-.05.04-.05.04,0,0,4.88,1.83,12.68,0,0,0,5.51-2.09,12.4,1.48,0,0-2.06-2.92-10.21-2.92,0,0-3.13.42-4.44.53-1.32.11-5.59.36-7.87-1.98,0,0-.17-.47.36-.23.52.24,2.8,1.35,7.37.81,4.56-.53,11.29-2.19,16.81,4.64"/>
  <path class="cls-1" d="M61.41,40.53s-1.46-1.98-2.13-2.65c-.02-.02-.05-.05-.07-.07-.62-.6.04.04.04.04,0,0-4.88,1.83-12.68,0,0,0-5.51-2.09-12.4,1.48,0,0,2.06-2.92,10.21-2.92,0,0,3.13.42,4.44.53,1.32.11,5.59.36,7.87-1.98,0,0,.17-.47-.35-.23-.52.24-2.8,1.35-7.37.81-4.56-.53-11.29-2.19-16.81,4.64"/>
  <path class="cls-4" d="M29.11,40.1h6.34s-.35,2.43-2.9,2.78c0,0-2.95.35-3.45-2.78Z"/>
  <path class="cls-4" d="M61.51,40.06h-26.16c-.04.64-.3,1.22-.7,1.69-.57.66-1.43,1.09-2.4,1.09s-1.83-.42-2.4-1.09c-.4-.47-.65-1.05-.7-1.69H2.77c-.49,0-.88.38-.88.84s.39.84.88.84h25.16c.75,1.58,2.41,2.67,4.33,2.67s3.58-1.1,4.33-2.67h24.93c.49,0,.88-.38.88-.84s-.39-.84-.88-.84Z"/>
  <g>
    <g>
      <path class="cls-4" d="M4.98,55.39c-.61,0-.91-.24-.91-.73,0-.15.03-.3.09-.45.06-.14.17-.32.33-.53l4.89-6.29h-4.07c-.11,0-.2-.02-.26-.05-.12-.08-.25-.18-.38-.29-.13-.11-.27-.25-.42-.41-.05-.06-.07-.11-.07-.14,0-.04.02-.09.07-.14.15-.16.29-.3.42-.41.13-.11.26-.21.38-.29.07-.04.15-.05.26-.05h6.18c.62,0,.93.25.93.74,0,.17-.04.33-.11.48-.07.15-.18.31-.31.49l-4.87,6.3h4.45c.11,0,.2.01.26.05.12.08.25.18.38.29.13.11.27.25.42.41.05.06.07.11.07.14,0,.04-.02.09-.07.14-.15.16-.29.3-.42.41-.13.11-.26.21-.38.29-.07.04-.15.05-.26.05h-6.62Z"/>
      <path class="cls-4" d="M18.47,55.56c-.99,0-1.85-.18-2.58-.55-.73-.36-1.3-.91-1.7-1.65-.4-.73-.6-1.65-.6-2.75,0-1.74.44-3.05,1.33-3.9.89-.86,2.13-1.29,3.71-1.29,1.49,0,2.66.42,3.53,1.26.86.84,1.3,2.09,1.3,3.73,0,1.17-.2,2.13-.61,2.89-.4.76-.98,1.32-1.72,1.69-.75.37-1.63.56-2.66.56ZM18.51,53.72c.85,0,1.49-.29,1.9-.88.41-.59.62-1.35.62-2.29,0-1.09-.19-1.91-.58-2.45-.39-.55-1.02-.82-1.88-.82-1.7,0-2.56,1.08-2.56,3.23,0,.96.21,1.74.62,2.33.41.59,1.04.88,1.88.88Z"/>
      <path class="cls-4" d="M27.54,55.03c0,.14-.03.23-.09.28-.06.05-.16.08-.3.08h-1.52c-.14,0-.24-.03-.3-.08-.06-.05-.09-.15-.09-.28v-7.61c0-.46.04-.82.13-1.08.09-.27.26-.46.51-.57.25-.12.63-.17,1.12-.17h1.89c2.48,0,3.72.91,3.72,2.74,0,.56-.1,1.01-.29,1.37-.19.36-.44.63-.73.83-.29.2-.57.35-.85.45v.03c.32.2.62.46.91.79.29.33.55.68.78,1.06.23.38.43.76.59,1.13.16.37.27.7.33.99.03.14.03.24,0,.31-.03.07-.11.1-.25.1h-1.65c-.12,0-.23-.02-.32-.08-.09-.05-.18-.17-.25-.35-.36-.87-.78-1.58-1.25-2.13-.47-.55-.92-.99-1.36-1.32-.28-.21-.42-.37-.42-.46,0-.07.05-.17.14-.3.06-.08.14-.17.25-.28.11-.11.2-.19.28-.25.08-.05.15-.09.2-.1.05-.01.13-.02.23-.02.35,0,.64-.12.88-.35.24-.23.35-.6.35-1.1,0-.47-.12-.82-.37-1.04-.25-.22-.59-.33-1.03-.33h-.43c-.31,0-.53.06-.64.19-.11.13-.17.35-.17.66v6.9Z"/>
      <path class="cls-4" d="M40.25,46.13c.26.35.53.8.8,1.36.27.55.54,1.16.79,1.82.26.66.49,1.34.69,2.03.21.69.38,1.35.51,1.99.13.64.21,1.2.23,1.7,0,.24-.11.36-.34.36h-1.72c-.22,0-.34-.11-.35-.32-.02-.51-.1-1.13-.26-1.86h-3.89c-.13.71-.21,1.33-.23,1.86,0,.21-.13.32-.36.32h-1.69c-.09,0-.16-.02-.21-.07-.06-.05-.08-.13-.08-.25.02-.51.1-1.08.23-1.73.13-.64.3-1.31.51-2.01.21-.69.44-1.37.7-2.03.26-.66.52-1.27.8-1.82.28-.55.54-1,.81-1.35.14-.19.28-.32.44-.41.15-.09.35-.13.57-.13h1.03c.23,0,.43.04.58.13.16.09.3.22.44.41ZM38.64,47.75c-.31.48-.6,1.05-.86,1.72-.26.67-.49,1.35-.68,2.05h3.09c-.2-.7-.43-1.38-.69-2.05-.26-.67-.53-1.24-.82-1.72h-.04Z"/>
      <path class="cls-4" d="M53.15,46.13c.26.35.53.8.8,1.36.27.55.54,1.16.79,1.82.26.66.49,1.34.69,2.03.21.69.38,1.35.51,1.99.13.64.21,1.2.23,1.7,0,.24-.11.36-.34.36h-1.72c-.22,0-.34-.11-.35-.32-.02-.51-.1-1.13-.26-1.86h-3.89c-.13.71-.21,1.33-.23,1.86,0,.21-.13.32-.36.32h-1.69c-.09,0-.16-.02-.21-.07-.06-.05-.08-.13-.08-.25.02-.51.1-1.08.23-1.73.13-.64.3-1.31.51-2.01.21-.69.44-1.37.7-2.03.26-.66.52-1.27.8-1.82.28-.55.54-1,.81-1.35.14-.19.28-.32.44-.41.15-.09.35-.13.57-.13h1.03c.23,0,.43.04.58.13.16.09.3.22.44.41ZM51.54,47.75c-.31.48-.6,1.05-.86,1.72-.26.67-.49,1.35-.68,2.05h3.09c-.2-.7-.43-1.38-.69-2.05-.26-.67-.53-1.24-.82-1.72h-.04Z"/>
      <path class="cls-4" d="M60.15,55.03c0,.14-.03.23-.09.28-.06.05-.16.08-.3.08h-1.52c-.14,0-.24-.03-.3-.08-.06-.05-.09-.15-.09-.28v-8.34c0-.13.02-.23.07-.3.21-.3.51-.62.9-.95.07-.05.13-.08.19-.08.06,0,.12.03.18.08.21.17.38.34.53.5.14.16.27.31.37.45.05.07.07.17.07.3v8.34Z"/>
    </g>
    <g>
      <path class="cls-4" d="M14.51,57.72c.09.12.18.28.28.47.1.19.19.41.28.64.09.23.17.47.24.71.07.24.13.47.18.7.05.22.07.42.08.59,0,.08-.04.13-.12.13h-.6c-.08,0-.12-.04-.12-.11,0-.18-.04-.4-.09-.65h-1.36c-.05.25-.07.46-.08.65,0,.07-.05.11-.13.11h-.59s-.05,0-.07-.03c-.02-.02-.03-.05-.03-.09,0-.18.04-.38.08-.6.05-.23.1-.46.18-.7.07-.24.15-.48.24-.71.09-.23.18-.44.28-.64.1-.19.19-.35.28-.47.05-.07.1-.11.15-.14.05-.03.12-.05.2-.05h.36c.08,0,.15.02.2.05.05.03.11.08.15.14ZM13.95,58.29c-.11.17-.21.37-.3.6-.09.23-.17.47-.24.72h1.08c-.07-.25-.15-.48-.24-.72-.09-.23-.19-.43-.29-.6h-.01Z"/>
      <path class="cls-4" d="M16.96,60.84s-.01.08-.03.1c-.02.02-.06.03-.11.03h-.53s-.09,0-.11-.03c-.02-.02-.03-.05-.03-.1v-2.92s0-.08.02-.11c.07-.11.18-.22.31-.33.03-.02.05-.03.06-.03.02,0,.04,0,.06.03.07.06.13.12.18.17.05.06.09.11.13.16.02.03.03.06.03.11v2.92Z"/>
      <path class="cls-4" d="M20.52,59.82s-.08-.01-.11-.03c-.03-.02-.07-.05-.11-.09-.04-.04-.09-.09-.14-.14-.02-.02-.03-.04-.03-.06s0-.04.03-.06c.1-.11.2-.19.28-.25.02-.01.05-.02.08-.02.11,0,.21-.04.29-.12.08-.08.12-.21.12-.39,0-.2-.05-.33-.15-.41-.1-.08-.23-.12-.4-.12h-.12c-.11,0-.18.02-.22.07-.04.04-.06.12-.06.23v2.41s-.01.08-.03.1c-.02.02-.06.03-.11.03h-.53s-.09,0-.11-.03c-.02-.02-.03-.05-.03-.1v-2.66c0-.16.02-.29.05-.38.03-.09.09-.16.18-.2.09-.04.22-.06.39-.06h.59c.48,0,.83.09,1.06.27.23.18.34.45.34.82,0,.28-.06.5-.18.68-.12.18-.28.3-.47.39-.19.08-.39.12-.61.12Z"/>
      <path class="cls-4" d="M23.48,61.02c-.42,0-.75-.11-.99-.32-.24-.21-.37-.53-.37-.95s.13-.76.38-.97c.25-.21.59-.32,1.02-.32s.74.11.98.32c.25.21.37.52.37.93s-.12.76-.37.98c-.25.22-.58.34-1.02.34ZM23.51,60.44c.18,0,.32-.05.41-.16.09-.11.14-.3.14-.56s-.05-.43-.14-.53c-.09-.1-.23-.15-.42-.15s-.32.06-.42.17c-.1.11-.15.29-.15.54s.05.44.15.55c.1.11.24.16.43.16Z"/>
      <path class="cls-4" d="M25.85,60.79c-.05-.07-.1-.17-.15-.3-.05-.13-.11-.27-.16-.43-.05-.16-.1-.31-.15-.47-.04-.16-.08-.3-.11-.43-.03-.13-.04-.23-.04-.31,0-.03,0-.06.03-.08.08-.09.19-.19.33-.28.02-.02.05-.02.07-.02.02,0,.04,0,.07.02.08.05.14.1.19.15.05.05.1.09.13.14.02.02.03.05.03.09h0c0,.09,0,.2.02.33.01.13.03.26.05.4.02.14.05.27.08.39.03.12.07.23.11.32h.01c.04-.09.09-.21.14-.35.05-.14.09-.29.14-.45.04-.16.08-.31.12-.45.03-.14.06-.25.07-.34.01-.06.04-.1.08-.12.04-.02.1-.03.17-.03h.29c.08,0,.14.01.18.04.04.02.06.06.07.12.01.09.04.2.07.35.03.15.07.3.12.46.04.16.09.31.13.46.04.14.08.25.11.33h.02c.05-.11.1-.24.14-.41.04-.17.08-.34.11-.53.03-.18.04-.36.04-.52h0s0-.06.02-.08c.04-.04.08-.09.13-.14.05-.05.11-.1.19-.15.02-.02.04-.02.06-.02.02,0,.04,0,.06.02.07.05.14.1.19.15.05.05.1.09.13.14.02.02.02.05.02.08,0,.08-.02.18-.05.31-.03.13-.07.27-.12.43-.05.15-.1.31-.16.46-.06.15-.12.3-.18.43-.06.13-.12.23-.17.31-.03.05-.06.09-.09.11-.02.03-.06.04-.09.05-.04,0-.09.01-.16.01h-.28c-.08,0-.14-.01-.18-.03-.04-.02-.09-.07-.12-.14-.02-.04-.05-.11-.08-.22-.03-.1-.07-.21-.1-.33-.03-.12-.07-.23-.09-.34-.03-.11-.04-.18-.05-.23,0-.05-.02-.11-.03-.17,0-.07-.02-.12-.02-.16h-.01s0,.09-.02.16c0,.07-.02.13-.03.18,0,.04-.03.11-.05.21-.03.09-.06.2-.1.31-.04.11-.08.22-.12.33-.04.11-.08.2-.12.27-.04.07-.08.12-.13.14-.05.02-.12.03-.23.03h-.29c-.08,0-.14-.01-.17-.04-.03-.02-.07-.07-.11-.14ZM25.24,58.84h0s0,0,0,0ZM29.19,58.85h0s0,0,0,0h0Z"/>
      <path class="cls-4" d="M30.95,61.02c-.28,0-.52-.04-.73-.13-.21-.09-.37-.22-.48-.41-.11-.18-.17-.42-.17-.71,0-.43.12-.76.35-.99.23-.22.54-.33.93-.33.25,0,.46.04.64.13.17.09.31.2.4.36.09.15.14.32.14.52s-.05.32-.15.4c-.1.07-.25.11-.44.11h-1.07c.01.16.08.29.19.37.11.09.26.13.46.13.15,0,.28-.02.37-.07.09-.04.16-.08.19-.1.03-.02.07-.03.11-.03.03,0,.08,0,.14.02.06.01.12.03.18.07.04.02.06.05.06.09,0,.02,0,.05-.01.09,0,.02-.01.05-.02.1-.01.04-.03.08-.04.12-.01.02-.03.03-.05.05-.03.02-.09.05-.16.09-.07.04-.18.07-.3.1-.13.03-.29.04-.49.04ZM30.33,59.48h.81c.08,0,.13-.04.13-.11,0-.11-.04-.21-.11-.29-.07-.08-.18-.12-.33-.12-.16,0-.28.05-.35.15-.08.1-.12.22-.14.37Z"/>
      <path class="cls-4" d="M33.34,58.97h0c.12-.33.35-.5.67-.5.04,0,.08,0,.1,0,.03,0,.04,0,.06.01.02,0,.04.03.04.06v.58s-.03.06-.09.04c-.02,0-.05-.02-.09-.03-.04,0-.09-.01-.16-.01-.17,0-.3.06-.4.18-.1.12-.14.28-.14.49v1.04s-.01.08-.03.1c-.02.02-.06.03-.11.03h-.51s-.09,0-.11-.03c-.02-.02-.03-.05-.03-.1v-2s0-.07.03-.09c.03-.04.08-.09.13-.14.05-.05.11-.1.18-.15.01,0,.03-.02.04-.02.01,0,.03,0,.04,0,.02,0,.05,0,.07.02.14.1.23.19.29.27.02.02.02.04.02.07v.18Z"/>
      <path class="cls-4" d="M35.84,61.02c-.28,0-.52-.04-.73-.13-.21-.09-.37-.22-.48-.41-.11-.18-.17-.42-.17-.71,0-.43.12-.76.35-.99.23-.22.54-.33.93-.33.25,0,.46.04.64.13.17.09.31.2.4.36.09.15.14.32.14.52s-.05.32-.15.4c-.1.07-.25.11-.44.11h-1.07c.01.16.08.29.19.37.11.09.26.13.46.13.15,0,.28-.02.37-.07.09-.04.16-.08.19-.1.03-.02.07-.03.11-.03.03,0,.08,0,.14.02.06.01.12.03.18.07.04.02.06.05.06.09,0,.02,0,.05-.01.09,0,.02-.01.05-.02.1-.01.04-.03.08-.04.12-.01.02-.03.03-.05.05-.03.02-.09.05-.16.09-.07.04-.17.07-.3.1-.13.03-.29.04-.49.04ZM35.22,59.48h.81c.08,0,.13-.04.13-.11,0-.11-.04-.21-.11-.29-.07-.08-.18-.12-.33-.12-.16,0-.28.05-.35.15-.08.1-.12.22-.14.37Z"/>
      <path class="cls-4" d="M38.34,61.02c-.22,0-.41-.05-.56-.16-.16-.1-.27-.25-.35-.43-.08-.18-.12-.4-.12-.64,0-.32.06-.57.18-.77.12-.2.28-.34.5-.43.21-.09.47-.14.76-.14.1,0,.18,0,.25.01.07,0,.11.02.14.03v-.89s0-.07.02-.09c.07-.09.17-.18.31-.28.02-.02.04-.02.06-.02.02,0,.04,0,.06.02.07.05.13.1.18.15s.09.09.13.14c.02.02.03.05.03.09v3.25s-.01.06-.03.08c-.02.02-.05.03-.08.03h-.37s-.05,0-.07-.01c-.02,0-.04-.02-.06-.04l-.15-.19h-.02s-.06.07-.12.12c-.06.05-.14.09-.24.13-.11.04-.25.05-.42.05ZM38.58,60.41c.15,0,.27-.03.35-.08.09-.05.15-.12.18-.21v-1s-.07-.04-.13-.06c-.06-.02-.15-.03-.26-.03-.21,0-.36.06-.46.19-.1.13-.15.3-.15.52s.04.39.13.5c.09.11.2.16.34.16Z"/>
      <path class="cls-4" d="M42.66,60.96c-.17,0-.3-.02-.39-.06-.09-.04-.15-.11-.18-.2-.03-.09-.05-.22-.05-.38v-2.4s0-.08.02-.11c.07-.11.18-.22.31-.33.03-.02.05-.03.06-.03.02,0,.04,0,.06.03.07.06.13.12.18.17.05.06.09.11.13.16.02.03.02.06.02.11v2.12c0,.11.02.18.06.23.04.05.11.07.22.07h.76s.07,0,.09.02c.04.03.09.06.13.1.05.04.1.09.15.14.02.02.03.04.03.05,0,.01,0,.03-.03.05-.05.06-.1.1-.15.14-.05.04-.09.07-.13.1-.02.01-.05.02-.09.02h-1.24Z"/>
      <path class="cls-4" d="M46.67,59.59c.02-.09.05-.17.08-.25.03-.08.06-.18.1-.28.03-.09.08-.2.13-.32.05-.12.1-.24.16-.37.06-.12.11-.24.16-.35.05-.11.1-.19.14-.26.05-.08.11-.14.17-.17.06-.04.15-.06.28-.06h.33c.09,0,.16.01.22.04.06.02.1.08.13.18.02.07.04.17.05.3.02.13.03.32.04.55.01.23.02.53.03.9,0,.37.01.82.01,1.36,0,.03-.01.05-.03.07-.02.02-.04.03-.07.03h-.57s-.05,0-.07-.03c-.02-.02-.03-.04-.03-.07v-1.07c0-.29,0-.54,0-.73,0-.19,0-.35,0-.46,0-.11,0-.2-.01-.26h-.01c-.09.19-.18.41-.28.65-.1.24-.2.48-.29.74-.09.25-.18.5-.25.74-.02.07-.05.12-.08.15-.03.03-.11.04-.22.04h-.29c-.1,0-.16-.01-.2-.04-.03-.02-.06-.08-.08-.16-.05-.18-.12-.37-.18-.58-.07-.2-.14-.4-.21-.6-.07-.2-.14-.38-.2-.54-.07-.17-.12-.3-.18-.41h-.02c-.01.19-.03.42-.03.69,0,.27-.02.56-.02.88,0,.32,0,.64-.01.97,0,.03,0,.05-.03.07-.02.02-.04.03-.07.03h-.51s-.05,0-.07-.03c-.02-.02-.03-.04-.03-.07,0-.85.02-1.53.05-2.03.03-.51.07-.85.11-1.02.03-.11.07-.19.14-.22.07-.03.14-.05.23-.05h.4c.09,0,.16.02.2.05.04.03.09.09.16.18.04.05.08.13.13.24.05.11.1.22.16.35.05.13.11.25.16.38.05.12.09.23.12.33.03.09.06.19.09.27.03.09.05.18.07.26h.02Z"/>
      <path class="cls-4" d="M50.43,61.02c-.21,0-.39-.02-.52-.05-.14-.04-.25-.08-.33-.14-.08-.05-.15-.11-.19-.16-.01-.02-.03-.04-.04-.06-.01-.02-.02-.04-.02-.06,0-.03-.01-.07-.02-.13,0-.05,0-.11,0-.18,0-.03,0-.05.02-.06.01-.01.03-.02.06-.03.05-.01.11-.02.19-.03.08,0,.13-.01.17-.01.04,0,.06,0,.08.02.02.01.05.03.08.06.03.03.09.08.17.13.08.05.21.08.38.08s.29-.03.37-.1c.08-.07.12-.16.12-.27,0-.06-.02-.12-.06-.18-.04-.05-.11-.11-.21-.16-.1-.06-.25-.11-.44-.17-.32-.1-.54-.23-.68-.38-.14-.15-.21-.36-.21-.63,0-.22.06-.41.17-.56.11-.15.27-.26.47-.34.2-.08.43-.11.69-.11.2,0,.37.02.5.07.13.05.23.1.31.15.07.06.12.1.14.14.01.02.02.04.03.05,0,.01,0,.02,0,.04,0,.05,0,.1,0,.17,0,.06,0,.13-.02.21,0,.03-.01.04-.03.05-.01,0-.03.01-.05.01-.16,0-.29,0-.37-.02-.03,0-.06-.02-.07-.02-.01,0-.03-.02-.04-.04-.03-.03-.07-.07-.13-.11-.06-.04-.15-.06-.28-.06-.17,0-.3.04-.37.11-.07.08-.11.16-.11.25,0,.11.05.2.16.26.11.06.28.13.51.21.19.07.36.14.5.21.14.08.25.17.32.29.07.12.11.28.11.47,0,.24-.06.45-.18.61-.12.16-.28.28-.48.36-.2.08-.43.12-.69.12Z"/>
    </g>
  </g>
  <g>
    <path class="cls-4" d="M32.08,35.23v2.12c-.18,0-.36.01-.55.03-.23.03-.48.16-.63.07-.16-.1-.32-.48-.43-.66-.25-.43-.52-.84-.8-1.32-.19-.32-.46-.59-.06-.88.54-.4,1.54-.38,2.06.15.15.15.26.38.41.49ZM32.08,39.48v-1.28c-.24,0-.49.03-.73.09.27.4.48.8.73,1.2Z"/>
    <path class="cls-4" d="M33.27,34.68c-.25.19-.35.46-.57.57-.14.07-.24.05-.34-.02v2.12c.24,0,.47.02.72.06.24.04.49.19.63.11.15-.08.34-.45.46-.63.17-.24.3-.47.42-.64.32-.45.65-.83.84-1.28-.56-.68-1.53-.77-2.17-.29Z"/>
    <path class="cls-4" d="M33.18,38.32c-.27-.08-.55-.12-.82-.12v1.28c.28-.39.53-.77.82-1.16Z"/>
  </g>
  <g>
    <path class="cls-5" d="M27.53,7.48c0-.65.17-1.09.71-1.09s.71.47.71.47v3.13l1.69,1.38s-.03-4.62-.15-6.9c-.09-1.65-1.67-2.25-2.53-2.45-.33-.08-1.01-.07-1.21-.04-2.87.42-2.84,2.71-2.84,2.71v1.83l2.56,2.38v6.3l2.32,2.23v4.05l-1.56-1.2v-2.21l-2.14-2.05v-6.53l-2.59-2.46v-2.22c-.93-.89-2.37-.68-2.37-.68-3.8.57-3.16,4.34-3.16,4.34-6.43.82-3.45,5.92-3.45,5.92-5.35,2.03-1.93,6.6-1.93,6.6-.96.63-1.05,1.96-1.05,1.96-.44,2.71,2.64,3.58,2.64,3.58h2.21c3.82,3.66,6.34-.28,6.34-.28l2.01,1.78h1.88l3.18,2.99v2.31c0,.45.38.81.84.81s.85-.36.85-.81v-8.92l.05-11.1-3.01-2.8v-3.03ZM16.56,11.5c.42,0,.76.33.76.73s-.34.73-.76.73-.76-.33-.76-.73.34-.73.76-.73ZM12.45,18.26c0-.4.34-.73.76-.73s.76.33.76.73-.34.73-.76.73-.76-.33-.76-.73ZM18.65,26.28c-.42,0-.76-.33-.76-.73s.34-.73.76-.73.76.33.76.73-.34.73-.76.73ZM25.41,26.75l-3.48-3.03h-7.22l-1.77-1.7,1.11-1.06,1.5,1.43h7.15l2.72,2.61v1.75ZM29.18,28.92l-1.85-1.53v-3.24l-4.19-3.7h-4.39l-2.58-2.47v-3.08s.11-.45.75-.45c0,0,.71,0,.71.65v2.5s1.87,1.66,1.87,1.66h2.94l.06-3.57-3.63-3.23v-4.15l-.48-.32s-.16-.59.38-.85c0,0,.46-.29.78.01.32.3.72.69.72.69l.03,4.21,3.59,3.12.06,4.14,5.16,4.53.07,5.09ZM26.77,4.17c0-.4.34-.73.76-.73s.76.33.76.73-.34.73-.76.73-.76-.33-.76-.73Z"/>
    <g class="cls-2">
      <path class="cls-6" d="M53.85,22.94s-.08-1.33-1.05-1.96c0,0,3.42-4.57-1.93-6.6,0,0,2.98-5.1-3.45-5.92,0,0,.64-3.78-3.16-4.34,0,0-1.44-.21-2.37.68v2.22l-2.59,2.46v6.53l-2.14,2.05v2.21l-1.56,1.2v-4.05l2.32-2.23v-6.3l2.56-2.38v-1.83s.03-2.29-2.84-2.71c-.2-.03-.88-.04-1.21.04-.87.2-2.45.79-2.53,2.45-.12,2.29-.15,6.9-.15,6.9l1.69-1.38v-3.13s.17-.47.71-.47.71.44.71,1.09v3.03l-3.01,2.8.05,11.1v8.92c0,.45.38.81.84.81s.84-.36.84-.81v-2.31l3.18-2.99h1.88l2.01-1.78s2.52,3.94,6.34.28h2.21s3.08-.88,2.64-3.58ZM47.84,11.5c.42,0,.76.33.76.73s-.34.73-.76.73-.76-.33-.76-.73.34-.73.76-.73ZM37.07,24.15v3.24l-1.85,1.53.07-5.09,5.16-4.53.06-4.14,3.59-3.12.03-4.21s.41-.39.72-.69c.32-.3.78-.01.78-.01.54.26.38.85.38.85l-.48.32v4.15l-3.63,3.23.06,3.57h2.94l1.88-1.66v-2.5c-.01-.65.7-.65.7-.65.64,0,.74.45.74.45v3.08s-2.57,2.47-2.57,2.47h-4.39l-4.19,3.7ZM45.74,26.28c-.42,0-.76-.33-.76-.73s.34-.73.76-.73.76.33.76.73-.34.73-.76.73ZM49.68,23.72h-7.21l-3.48,3.03v-1.75l2.72-2.61h7.15l1.5-1.43,1.11,1.06-1.77,1.7ZM51.18,18.99c-.42,0-.76-.33-.76-.73s.34-.73.76-.73.76.33.76.73-.34.73-.76.73Z"/>
    </g>
    <path class="cls-4" d="M33.1,32.95c0,.45-.38.81-.84.81h0c-.46,0-.84-.36-.84-.81V2.81c0-.45.38-.81.84-.81h0c.46,0,.84.36.84.81"/>
  </g>
</svg>