<?xml version="1.0" encoding="UTF-8"?>
<svg id="Layer_1" data-name="Layer 1" xmlns="http://www.w3.org/2000/svg" xmlns:xlink="http://www.w3.org/1999/xlink" viewBox="0 0 128 128">
  <defs>
    <style>
      .cls-1 {
        fill: url(#linear-gradient-2);
      }

      .cls-1, .cls-2 {
        isolation: isolate;
      }

      .cls-3 {
        fill: url(#linear-gradient);
      }

      .cls-4 {
        fill: #223a3a;
      }

      .cls-5 {
        fill: #f36e21;
      }

      .cls-6 {
        fill: #339746;
      }
    </style>
    <linearGradient id="linear-gradient" x1="5.54" y1="76.77" x2="64.33" y2="76.77" gradientUnits="userSpaceOnUse">
      <stop offset=".51" stop-color="#cf633d"/>
      <stop offset=".62" stop-color="#d1693e"/>
      <stop offset=".77" stop-color="#da7a42"/>
      <stop offset=".94" stop-color="#e79648"/>
      <stop offset="1" stop-color="#eda24b"/>
    </linearGradient>
    <linearGradient id="linear-gradient-2" x1="64.33" y1="76.77" x2="123.13" y2="76.77" gradientUnits="userSpaceOnUse">
      <stop offset="0" stop-color="#c3d153"/>
      <stop offset=".21" stop-color="#b0c54c"/>
      <stop offset=".44" stop-color="#a2bc48"/>
      <stop offset=".64" stop-color="#9eba47"/>
      <stop offset="1" stop-color="#7ba640"/>
    </linearGradient>
  </defs>
  <path class="cls-3" d="M5.54,82.66s2.94-3.97,4.28-5.34c.05-.05.1-.1.14-.14,1.26-1.21-.09.09-.09.09,0,0,9.81,3.67,25.5,0,0,0,11.07-4.19,24.93,2.97,0,0-4.14-5.87-20.52-5.87,0,0-6.28.85-8.93,1.08-2.65.23-11.24.72-15.83-3.97,0,0-.34-.95.71-.46,1.05.49,5.64,2.7,14.81,1.63,9.17-1.07,22.69-4.4,33.8,9.32"/>
  <path class="cls-1" d="M123.13,82.66s-2.94-3.97-4.28-5.34c-.05-.05-.1-.1-.14-.14-1.26-1.21.09.09.09.09,0,0-9.8,3.67-25.5,0,0,0-11.07-4.19-24.93,2.97,0,0,4.14-5.87,20.52-5.87,0,0,6.28.85,8.93,1.08,2.65.23,11.24.72,15.83-3.97,0,0,.34-.95-.71-.46-1.05.49-5.64,2.7-14.81,1.63-9.17-1.07-22.69-4.4-33.8,9.32"/>
  <path class="cls-4" d="M58.21,81.79h12.75s-.7,4.89-5.82,5.58c0,0-5.94.71-6.93-5.58Z"/>
  <path class="cls-4" d="M123.34,81.71h-52.6c-.09,1.28-.6,2.45-1.4,3.39-1.14,1.33-2.88,2.18-4.82,2.18s-3.67-.85-4.82-2.18c-.8-.94-1.31-2.11-1.4-3.39H5.25c-.98,0-1.77.76-1.77,1.7s.79,1.69,1.77,1.69h50.57c1.51,3.17,4.84,5.38,8.7,5.38s7.2-2.21,8.7-5.38h50.11c.98,0,1.77-.76,1.77-1.69s-.79-1.7-1.77-1.7Z"/>
  <g>
    <g>
      <path class="cls-4" d="M9.7,112.53c-1.22,0-1.83-.49-1.83-1.47,0-.31.06-.61.19-.9.12-.29.35-.64.67-1.06l9.84-12.65h-8.19c-.23,0-.4-.04-.52-.11-.25-.16-.5-.36-.77-.59-.26-.23-.55-.5-.85-.82-.1-.12-.14-.21-.14-.29,0-.08.05-.17.14-.28.31-.32.59-.6.85-.82.26-.23.52-.43.77-.59.13-.07.31-.11.52-.11h12.43c1.25,0,1.88.49,1.88,1.48,0,.35-.07.67-.22.96-.14.29-.35.62-.63.99l-9.78,12.67h8.95c.23-.01.4.02.52.1.25.16.51.36.77.59.27.23.55.5.84.82.1.12.14.22.14.29,0,.08-.05.17-.14.28-.3.32-.58.6-.84.82-.27.23-.53.43-.77.59-.13.07-.31.11-.52.11h-13.3Z"/>
      <path class="cls-4" d="M36.81,112.87c-1.99,0-3.71-.37-5.18-1.1-1.47-.73-2.61-1.84-3.42-3.31-.81-1.47-1.21-3.31-1.21-5.52,0-3.51.89-6.12,2.68-7.85,1.79-1.73,4.27-2.59,7.46-2.59,2.99,0,5.35.84,7.09,2.53,1.74,1.69,2.61,4.19,2.61,7.51,0,2.34-.41,4.28-1.22,5.8-.81,1.52-1.97,2.66-3.47,3.41-1.5.75-3.28,1.12-5.34,1.12ZM36.9,109.17c1.72,0,2.99-.59,3.82-1.77.83-1.18,1.25-2.72,1.25-4.6,0-2.19-.39-3.83-1.17-4.93-.78-1.1-2.04-1.65-3.78-1.65-3.43,0-5.14,2.17-5.14,6.5,0,1.93.41,3.49,1.24,4.68.83,1.19,2.09,1.78,3.79,1.78Z"/>
      <path class="cls-4" d="M55.04,111.8c0,.27-.06.46-.18.57-.12.11-.32.16-.61.16h-3.05c-.29,0-.49-.05-.61-.16-.12-.11-.18-.3-.18-.57v-15.29c0-.92.09-1.64.26-2.18.18-.54.52-.92,1.03-1.15.51-.23,1.26-.35,2.24-.35h3.79c4.98,0,7.48,1.84,7.48,5.51,0,1.12-.2,2.03-.59,2.75-.39.71-.88,1.27-1.46,1.67-.58.4-1.15.7-1.72.9v.07c.64.4,1.25.93,1.83,1.59.58.65,1.1,1.37,1.57,2.13.47.77.86,1.52,1.19,2.27.32.75.55,1.41.67,2,.06.27.06.48,0,.62-.05.14-.22.21-.49.21h-3.31c-.25,0-.46-.05-.65-.15-.19-.1-.36-.33-.51-.7-.73-1.75-1.56-3.18-2.51-4.28-.95-1.1-1.86-1.99-2.74-2.66-.56-.43-.85-.74-.85-.92,0-.15.09-.35.27-.6.11-.16.28-.34.5-.56.22-.22.41-.38.57-.49.16-.11.29-.18.39-.21.1-.03.26-.04.47-.04.71,0,1.3-.23,1.77-.7.47-.47.71-1.2.71-2.21,0-.95-.25-1.65-.75-2.1-.5-.44-1.19-.67-2.07-.67h-.86c-.63,0-1.06.13-1.29.38-.23.26-.34.7-.34,1.32v13.86Z"/>
      <path class="cls-4" d="M80.6,93.92c.53.71,1.06,1.61,1.61,2.73.55,1.11,1.08,2.33,1.6,3.66.52,1.33.98,2.69,1.4,4.07.42,1.39.76,2.72,1.02,4,.27,1.28.42,2.42.46,3.42,0,.49-.22.73-.69.73h-3.47c-.45,0-.68-.22-.7-.65-.04-1.03-.21-2.27-.52-3.74h-7.82c-.27,1.43-.42,2.67-.46,3.74-.02.43-.26.65-.73.65h-3.39c-.17,0-.32-.05-.43-.14-.11-.1-.17-.26-.16-.5.05-1.02.2-2.17.47-3.47.26-1.3.6-2.64,1.02-4.03.42-1.39.89-2.75,1.4-4.09.52-1.33,1.05-2.55,1.6-3.66.55-1.11,1.09-2.01,1.62-2.72.28-.38.57-.65.88-.82.31-.17.69-.26,1.15-.26h2.06c.47,0,.86.09,1.17.26.32.17.61.45.89.82ZM77.37,97.17c-.63.96-1.21,2.11-1.73,3.45-.53,1.34-.98,2.71-1.36,4.12h6.22c-.4-1.41-.86-2.78-1.39-4.12-.53-1.34-1.07-2.49-1.65-3.45h-.09Z"/>
      <path class="cls-4" d="M106.53,93.92c.53.71,1.06,1.61,1.61,2.73.55,1.11,1.08,2.33,1.6,3.66.52,1.33.98,2.69,1.4,4.07.41,1.39.76,2.72,1.02,4,.27,1.28.42,2.42.46,3.42,0,.49-.22.73-.69.73h-3.47c-.45,0-.68-.22-.7-.65-.04-1.03-.21-2.27-.51-3.74h-7.82c-.27,1.43-.42,2.67-.46,3.74-.02.43-.26.65-.73.65h-3.39c-.17,0-.32-.05-.43-.14-.11-.1-.17-.26-.16-.5.05-1.02.2-2.17.46-3.47.26-1.3.6-2.64,1.02-4.03.42-1.39.89-2.75,1.4-4.09.52-1.33,1.05-2.55,1.6-3.66.55-1.11,1.09-2.01,1.62-2.72.28-.38.57-.65.88-.82.31-.17.69-.26,1.15-.26h2.06c.47,0,.86.09,1.17.26.31.17.61.45.89.82ZM103.29,97.17c-.63.96-1.21,2.11-1.73,3.45-.53,1.34-.98,2.71-1.36,4.12h6.22c-.4-1.41-.86-2.78-1.39-4.12-.53-1.34-1.07-2.49-1.65-3.45h-.08Z"/>
      <path class="cls-4" d="M120.6,111.8c0,.27-.06.46-.18.57-.12.11-.32.16-.61.16h-3.05c-.29,0-.49-.05-.61-.16-.12-.11-.18-.3-.18-.57v-16.77c0-.26.05-.47.14-.6.43-.6,1.03-1.24,1.8-1.91.14-.11.27-.16.37-.16.11,0,.23.05.36.16.42.35.77.68,1.06,1,.29.32.53.62.74.91.1.15.14.35.14.6v16.77Z"/>
    </g>
    <g>
      <path class="cls-4" d="M28.86,117.22c.18.25.37.56.56.95.19.39.38.82.56,1.28.18.46.34.94.49,1.42.15.48.26.95.36,1.4.09.45.15.85.16,1.2,0,.17-.08.25-.24.25h-1.21c-.16,0-.24-.08-.25-.23-.01-.36-.07-.79-.18-1.31h-2.73c-.09.5-.15.93-.16,1.31,0,.15-.09.23-.26.23h-1.19c-.06,0-.11-.02-.15-.05-.04-.03-.06-.09-.06-.18.02-.36.07-.76.16-1.21.09-.45.21-.92.36-1.41.15-.49.31-.96.49-1.43.18-.47.37-.89.56-1.28.19-.39.38-.7.57-.95.1-.13.2-.23.31-.29.11-.06.24-.09.4-.09h.72c.16,0,.3.03.41.09.11.06.21.16.31.29ZM27.73,118.36c-.22.34-.42.74-.61,1.21-.18.47-.34.95-.48,1.44h2.17c-.14-.49-.3-.97-.49-1.44-.18-.47-.38-.87-.58-1.21h-.03Z"/>
      <path class="cls-4" d="M33.78,123.47c0,.1-.02.16-.06.2-.04.04-.11.06-.21.06h-1.07c-.1,0-.17-.02-.21-.06-.04-.04-.06-.1-.06-.2v-5.86c0-.09.02-.16.05-.21.15-.21.36-.43.63-.67.05-.04.09-.06.13-.06.04,0,.08.02.13.06.15.12.27.24.37.35.1.11.19.22.26.32.03.05.05.12.05.21v5.86Z"/>
      <path class="cls-4" d="M40.93,121.43c-.09,0-.16-.02-.22-.06-.06-.04-.14-.1-.23-.18-.09-.08-.18-.17-.29-.28-.04-.04-.06-.08-.06-.12s.02-.08.06-.12c.21-.22.4-.39.57-.49.04-.03.1-.04.17-.04.23,0,.42-.08.59-.24.17-.16.24-.43.24-.79,0-.39-.1-.67-.3-.83-.2-.16-.47-.24-.81-.24h-.24c-.22,0-.37.04-.45.13-.08.09-.12.24-.12.46v4.85c0,.1-.02.16-.06.2-.04.04-.11.06-.21.06h-1.07c-.1,0-.17-.02-.21-.06-.04-.04-.06-.1-.06-.2v-5.35c0-.32.03-.57.09-.76.06-.19.18-.32.36-.4.18-.08.44-.12.78-.12h1.19c.96,0,1.67.18,2.13.54.46.36.69.91.69,1.65,0,.56-.12,1.01-.36,1.36-.24.35-.56.61-.94.78-.39.17-.79.25-1.22.25Z"/>
      <path class="cls-4" d="M46.89,123.85c-.84,0-1.51-.21-2-.64-.49-.43-.74-1.07-.74-1.92s.25-1.52.76-1.95c.51-.43,1.19-.65,2.04-.65s1.48.21,1.97.64c.49.42.74,1.05.74,1.88s-.25,1.52-.74,1.97c-.49.45-1.17.68-2.04.68ZM46.94,122.68c.37,0,.64-.11.83-.33.19-.22.28-.6.28-1.13s-.09-.86-.28-1.07c-.19-.21-.47-.31-.84-.31s-.64.11-.84.33c-.21.22-.31.58-.31,1.08s.1.89.29,1.1c.2.21.48.32.87.32Z"/>
      <path class="cls-4" d="M51.65,123.38c-.1-.14-.2-.34-.31-.6-.11-.26-.22-.54-.33-.86-.11-.32-.2-.63-.29-.95-.09-.32-.16-.61-.21-.87-.05-.26-.08-.47-.08-.62,0-.06.02-.12.05-.16.15-.18.37-.37.66-.57.05-.03.09-.05.14-.05.04,0,.09.02.13.05.15.11.28.21.39.3.1.09.19.18.27.27.04.04.05.1.05.18v-.02c0,.2.01.43.04.69.02.26.06.53.11.8.05.28.1.54.17.79.07.25.14.46.22.64h.03c.09-.18.18-.41.28-.7.1-.29.19-.59.28-.91.09-.32.17-.63.24-.91.07-.29.12-.51.15-.68.02-.12.08-.21.16-.25.08-.04.2-.06.34-.06h.58c.17,0,.29.02.36.07.07.05.12.13.13.24.03.17.08.41.15.7.07.29.15.6.24.93.09.33.18.63.27.92.09.29.17.5.23.66h.04c.1-.21.19-.48.29-.82.09-.33.16-.69.22-1.06.06-.37.09-.72.09-1.04v.02c0-.08.02-.14.05-.18.08-.09.17-.18.27-.27.1-.09.23-.19.38-.3.05-.03.09-.05.13-.05.05,0,.09.02.13.05.15.11.28.21.38.3.1.09.19.18.27.27.03.04.05.1.05.17,0,.16-.03.37-.09.63-.06.26-.14.55-.24.86-.1.31-.21.62-.33.93-.12.31-.24.6-.36.86-.12.26-.24.47-.34.62-.07.1-.12.17-.18.23-.05.05-.11.08-.18.1-.07.02-.18.02-.32.02h-.57c-.16,0-.28-.02-.37-.06-.09-.04-.17-.14-.25-.29-.05-.09-.1-.23-.17-.43-.07-.2-.13-.43-.21-.67-.07-.24-.13-.47-.19-.68-.05-.21-.09-.37-.11-.47-.02-.1-.03-.21-.05-.35-.02-.14-.03-.25-.04-.33h-.03c0,.08-.01.19-.03.32-.02.14-.04.26-.06.36-.02.09-.06.23-.11.42-.05.19-.12.39-.19.62-.08.23-.15.45-.24.66-.08.21-.16.4-.23.55-.07.15-.16.24-.25.29-.09.04-.25.06-.45.06h-.58c-.16,0-.27-.02-.33-.07-.06-.05-.13-.14-.23-.28ZM50.43,119.47h0v.03-.03ZM58.36,119.48v.02h0v-.02Z"/>
      <path class="cls-4" d="M61.9,123.85c-.56,0-1.05-.09-1.47-.26-.42-.17-.74-.45-.97-.81-.23-.37-.35-.84-.35-1.43,0-.87.23-1.54.7-1.98.47-.45,1.09-.67,1.86-.67.5,0,.93.09,1.28.26.35.17.61.41.8.72.18.3.27.65.27,1.04s-.1.65-.31.8c-.2.15-.5.23-.89.23h-2.15c.03.33.15.58.38.75.23.17.53.26.92.26.31,0,.55-.04.74-.13.19-.09.31-.16.39-.21.06-.04.14-.07.22-.06.06,0,.15.01.27.04.12.02.24.07.35.13.08.04.13.1.13.17,0,.04,0,.1-.03.18,0,.04-.03.11-.05.19-.02.08-.05.16-.09.24-.02.04-.05.07-.1.1-.07.04-.17.1-.32.18-.15.07-.35.14-.61.19-.26.06-.58.08-.98.08ZM60.66,120.74h1.63c.17,0,.26-.07.26-.23,0-.23-.07-.42-.22-.57-.15-.16-.37-.23-.67-.23-.32,0-.56.1-.71.3-.15.2-.25.44-.28.73Z"/>
      <path class="cls-4" d="M66.7,119.72h.02c.25-.67.7-1,1.35-1,.08,0,.15,0,.21.01.05,0,.09.02.11.02.05.02.08.05.08.11v1.16c0,.1-.06.13-.18.08-.04-.02-.1-.03-.17-.05-.08-.02-.18-.03-.31-.03-.34,0-.61.12-.81.36-.19.24-.29.57-.29.99v2.09c0,.1-.02.16-.06.2-.04.04-.11.06-.21.06h-1.03c-.1,0-.17-.02-.21-.06-.04-.04-.06-.1-.06-.2v-4.03c0-.08.02-.14.05-.18.07-.09.15-.18.25-.27.1-.09.22-.19.36-.3.03-.02.05-.03.08-.04.03,0,.05,0,.07,0,.05,0,.09.02.14.05.28.21.47.39.58.53.03.04.05.08.05.13v.36Z"/>
      <path class="cls-4" d="M71.72,123.85c-.56,0-1.05-.09-1.47-.26-.42-.17-.74-.45-.97-.81-.23-.37-.35-.84-.35-1.43,0-.87.23-1.54.7-1.98.47-.45,1.09-.67,1.86-.67.5,0,.93.09,1.28.26.35.17.61.41.8.72.18.3.27.65.27,1.04s-.1.65-.31.8c-.2.15-.5.23-.89.23h-2.15c.03.33.15.58.38.75.23.17.53.26.92.26.31,0,.55-.04.74-.13.19-.09.31-.16.39-.21.06-.04.13-.07.22-.06.06,0,.15.01.27.04.12.02.24.07.35.13.08.04.13.1.13.17,0,.04,0,.1-.02.18-.01.04-.03.11-.05.19-.02.08-.05.16-.09.24-.02.04-.05.07-.1.1-.07.04-.17.1-.32.18-.15.07-.35.14-.61.19-.26.06-.58.08-.98.08ZM70.49,120.74h1.63c.17,0,.26-.07.26-.23,0-.23-.07-.42-.22-.57-.15-.16-.37-.23-.67-.23-.32,0-.56.1-.71.3-.15.2-.25.44-.28.73Z"/>
      <path class="cls-4" d="M76.76,123.85c-.44,0-.82-.11-1.13-.31-.31-.21-.55-.5-.71-.87-.16-.37-.24-.8-.24-1.28,0-.64.12-1.15.35-1.55.24-.39.57-.69,1-.87.43-.19.94-.28,1.52-.28.2,0,.37,0,.5.03.13.02.23.04.28.05v-1.79c0-.08.02-.14.05-.18.14-.18.35-.37.62-.57.05-.03.09-.05.13-.05.04,0,.08.02.12.05.14.11.26.2.36.3s.18.18.25.27c.03.04.05.1.05.18v6.53c0,.06-.02.11-.07.16-.04.04-.1.06-.16.06h-.75c-.05,0-.1,0-.14-.02-.04-.01-.08-.04-.12-.08l-.31-.38h-.03c-.04.06-.12.14-.23.24-.11.1-.27.18-.49.26-.21.07-.49.11-.84.11ZM77.25,122.62c.3,0,.54-.05.71-.16.17-.11.29-.25.37-.41v-2.01c-.05-.03-.14-.07-.26-.12-.12-.04-.3-.07-.52-.07-.41,0-.72.13-.93.39-.21.26-.31.61-.31,1.05s.09.79.26,1.01c.17.22.4.33.69.33Z"/>
      <path class="cls-4" d="M85.45,123.73c-.34,0-.6-.04-.78-.12-.18-.08-.3-.22-.36-.41-.06-.19-.09-.44-.09-.75v-4.83c0-.09.02-.16.05-.21.15-.21.36-.43.63-.67.05-.04.09-.06.13-.06.04,0,.08.02.13.06.15.12.27.24.37.35.1.11.19.22.26.32.03.05.05.12.05.21v4.26c0,.21.04.37.12.46.08.09.23.14.45.14h1.54c.08,0,.14,0,.18.03.09.06.18.13.27.21.09.08.19.18.29.29.03.04.05.07.05.1,0,.03-.02.06-.05.1-.1.11-.2.21-.29.29-.09.08-.18.15-.27.21-.05.03-.11.04-.18.04h-2.49Z"/>
      <path class="cls-4" d="M93.5,120.97c.05-.17.1-.34.15-.51.06-.17.12-.36.2-.56.07-.19.16-.4.26-.64.1-.24.21-.49.32-.74.11-.25.22-.48.33-.7.11-.21.2-.39.29-.51.11-.16.22-.27.35-.35.12-.08.31-.12.55-.12h.66c.17,0,.32.02.44.07.12.05.2.17.25.35.04.14.07.34.11.61.03.27.06.63.09,1.1.02.47.04,1.07.05,1.81.01.74.02,1.65.02,2.73,0,.06-.02.11-.06.14-.04.04-.09.06-.15.06h-1.14c-.06,0-.1-.02-.15-.06-.04-.04-.06-.09-.06-.15v-2.15c0-.59,0-1.08,0-1.46,0-.39,0-.7-.01-.92,0-.23-.01-.41-.02-.53h-.03c-.18.39-.37.83-.57,1.3-.2.48-.4.97-.59,1.48-.19.51-.36,1-.51,1.49-.04.14-.1.24-.16.3-.07.06-.21.08-.44.08h-.58c-.2,0-.33-.02-.39-.07-.07-.05-.12-.15-.17-.31-.11-.37-.23-.75-.37-1.16-.13-.41-.27-.81-.41-1.2-.14-.39-.28-.75-.41-1.09-.13-.33-.25-.61-.35-.83h-.03c-.03.38-.05.84-.07,1.38-.02.54-.04,1.13-.05,1.76-.01.63-.02,1.28-.02,1.94,0,.06-.02.1-.06.14-.04.04-.09.06-.14.06h-1.03c-.06,0-.11-.02-.15-.06-.04-.04-.06-.09-.06-.15,0-1.71.04-3.07.11-4.09.07-1.02.14-1.7.22-2.05.05-.23.15-.37.28-.44.14-.07.29-.1.46-.1h.81c.18,0,.32.03.4.09.09.06.19.18.31.36.07.11.16.26.26.47.1.21.21.45.32.7.11.26.21.51.31.76.1.25.18.47.24.66.07.19.13.37.19.55.06.18.11.35.15.53h.04Z"/>
      <path class="cls-4" d="M101.06,123.84c-.42,0-.77-.04-1.05-.11-.28-.07-.5-.17-.67-.28-.17-.11-.3-.22-.39-.33-.03-.04-.06-.08-.08-.12-.02-.04-.04-.08-.05-.13-.01-.06-.03-.15-.04-.25-.01-.1-.01-.23,0-.36,0-.06.01-.1.04-.12.02-.03.06-.04.11-.06.1-.02.22-.04.38-.06.15-.02.27-.03.33-.03.07,0,.13.01.17.04.04.03.09.07.15.13.07.07.18.15.35.26.16.1.42.16.76.16s.57-.07.74-.2c.17-.13.25-.31.25-.55,0-.12-.04-.24-.12-.35-.08-.11-.22-.22-.43-.33-.21-.11-.5-.23-.89-.35-.63-.2-1.09-.46-1.37-.76-.28-.3-.42-.73-.42-1.27,0-.45.11-.82.34-1.12.23-.3.54-.53.94-.68.4-.15.86-.23,1.39-.23.4,0,.74.05,1,.14.27.09.47.19.62.31.15.11.24.21.29.28.03.04.04.07.05.09,0,.02.01.05.02.08.01.1.01.21.01.33,0,.12-.01.26-.03.41,0,.05-.03.09-.06.11-.02.02-.06.02-.11.02-.32,0-.57,0-.75-.05-.07-.02-.12-.03-.14-.05-.02-.02-.05-.04-.09-.08-.05-.06-.14-.13-.25-.21-.12-.08-.3-.12-.55-.12-.35,0-.6.08-.75.23-.15.15-.22.32-.22.51,0,.22.11.4.33.53.22.13.56.27,1.03.43.39.13.73.27,1.01.43.28.15.5.35.64.59.15.24.22.56.22.95,0,.49-.12.9-.35,1.22-.24.32-.56.56-.96.72-.41.16-.87.24-1.38.24Z"/>
    </g>
  </g>
  <g>
    <path class="cls-4" d="M64.17,72v4.27c-.36,0-.72.02-1.12.07-.46.06-.96.31-1.26.14-.33-.2-.63-.96-.86-1.33-.51-.86-1.04-1.69-1.6-2.65-.38-.65-.93-1.18-.13-1.78,1.08-.8,3.1-.77,4.14.31.29.31.52.76.82.98ZM64.17,80.54v-2.58c-.49,0-.98.05-1.47.18.55.8.97,1.6,1.47,2.4Z"/>
    <path class="cls-4" d="M66.56,70.9c-.5.38-.71.93-1.15,1.15-.28.14-.49.09-.67-.04v4.27c.48,0,.94.04,1.44.13.48.08.98.38,1.27.22.31-.17.68-.9.93-1.26.34-.49.61-.95.85-1.29.64-.91,1.31-1.67,1.69-2.58-1.12-1.37-3.08-1.55-4.36-.59Z"/>
    <path class="cls-4" d="M66.39,78.2c-.55-.17-1.1-.24-1.66-.25v2.58c.57-.78,1.06-1.56,1.66-2.33Z"/>
  </g>
  <g>
    <path class="cls-5" d="M55.02,16.21c0-1.3.34-2.18,1.43-2.18s1.43.94,1.43.94v6.29l3.4,2.77s-.07-9.29-.31-13.88c-.17-3.33-3.35-4.52-5.1-4.92-.66-.15-2.03-.13-2.44-.07-5.77.85-5.71,5.45-5.71,5.45v3.68l5.15,4.79v12.66l4.67,4.48v8.15l-3.14-2.41v-4.45l-4.3-4.12v-13.13l-5.2-4.95v-4.46c-1.87-1.79-4.76-1.37-4.76-1.37-7.64,1.14-6.35,8.73-6.35,8.73-12.92,1.64-6.93,11.89-6.93,11.89-10.76,4.07-3.87,13.26-3.87,13.26-1.94,1.27-2.11,3.94-2.11,3.94-.88,5.44,5.3,7.2,5.3,7.2h4.45c7.68,7.36,12.74-.55,12.74-.55l4.04,3.58h3.77l6.39,6v4.65c0,.9.76,1.63,1.7,1.63s1.7-.73,1.7-1.63v-17.93l.1-22.32-6.05-5.62v-6.09ZM32.97,24.29c.84,0,1.53.66,1.53,1.47s-.68,1.47-1.53,1.47-1.53-.66-1.53-1.47.68-1.47,1.53-1.47ZM24.72,37.88c0-.81.68-1.47,1.53-1.47s1.53.66,1.53,1.47-.68,1.47-1.53,1.47-1.53-.66-1.53-1.47ZM37.19,54.01c-.84,0-1.53-.66-1.53-1.47s.68-1.47,1.53-1.47,1.53.66,1.53,1.47-.68,1.47-1.53,1.47ZM50.77,54.95l-7-6.09h-14.5l-3.57-3.42,2.22-2.13,3.01,2.88h14.37l5.47,5.25v3.52ZM58.34,59.32l-3.71-3.08v-6.52l-8.42-7.43h-8.83l-5.19-4.97.02-6.19s.21-.91,1.49-.91c0,0,1.43,0,1.43,1.31l-.02,5.02,3.78,3.34h5.91l.11-7.17-7.29-6.49v-8.34l-.97-.65s-.32-1.2.77-1.72c0,0,.93-.59,1.56.02.63.61,1.45,1.39,1.45,1.39l.07,8.47,7.22,6.28.11,8.32,10.37,9.1.14,10.23ZM53.49,9.57c0-.81.68-1.47,1.53-1.47s1.53.66,1.53,1.47-.68,1.47-1.53,1.47-1.53-.66-1.53-1.47Z"/>
    <g class="cls-2">
      <path class="cls-6" d="M107.94,47.29s-.17-2.67-2.11-3.94c0,0,6.88-9.19-3.87-13.26,0,0,5.99-10.25-6.93-11.89,0,0,1.29-7.59-6.35-8.73,0,0-2.89-.42-4.76,1.37v4.46l-5.2,4.95v13.13l-4.3,4.12v4.45l-3.14,2.41v-8.15l4.67-4.48v-12.66l5.15-4.79v-3.68s.06-4.6-5.71-5.45c-.41-.06-1.78-.08-2.44.07-1.74.4-4.92,1.6-5.09,4.92-.24,4.59-.31,13.88-.31,13.88l3.4-2.77v-6.29s.34-.94,1.43-.94,1.43.88,1.43,2.18v6.09l-6.05,5.62.1,22.32v17.93c0,.9.76,1.63,1.7,1.63s1.7-.73,1.7-1.63v-4.65l6.39-6h3.77l4.04-3.58s5.06,7.92,12.74.55h4.45s6.18-1.76,5.3-7.2ZM95.85,24.29c.84,0,1.53.66,1.53,1.47s-.68,1.47-1.53,1.47-1.53-.66-1.53-1.47.68-1.47,1.53-1.47ZM74.2,49.72v6.52l-3.71,3.08.13-10.23,10.37-9.1.11-8.32,7.22-6.28.07-8.47s.82-.78,1.45-1.39c.63-.61,1.56-.02,1.56-.02,1.09.52.77,1.72.77,1.72l-.97.65v8.34l-7.29,6.49.11,7.17h5.91l3.78-3.34-.02-5.02c0-1.3,1.43-1.31,1.43-1.31,1.29,0,1.49.91,1.49.91l.02,6.19-5.19,4.97h-8.83l-8.42,7.43ZM91.64,54.01c-.84,0-1.53-.66-1.53-1.47s.68-1.47,1.53-1.47,1.53.66,1.53,1.47-.68,1.47-1.53,1.47ZM99.55,48.86h-14.5l-7,6.09v-3.52l5.47-5.25h14.37l3.01-2.88,2.22,2.13-3.57,3.42ZM102.57,39.34c-.84,0-1.53-.66-1.53-1.47s.68-1.47,1.53-1.47,1.53.66,1.53,1.47-.68,1.47-1.53,1.47Z"/>
    </g>
    <path class="cls-4" d="M66.22,67.41c0,.9-.76,1.62-1.69,1.62h0c-.93,0-1.69-.73-1.69-1.62V6.83c0-.9.76-1.62,1.69-1.62h0c.93,0,1.69.73,1.69,1.62"/>
  </g>
</svg>