<?xml version="1.0" encoding="UTF-8"?>
<svg id="Layer_2" data-name="Layer 2" xmlns="http://www.w3.org/2000/svg" xmlns:xlink="http://www.w3.org/1999/xlink" viewBox="0 0 48 48">
  <defs>
    <style>
      .cls-1 {
        fill: url(#linear-gradient-2);
        isolation: isolate;
      }

      .cls-2 {
        fill: url(#linear-gradient);
      }

      .cls-3 {
        fill: #ffffff;
      }

      .cls-4 {
        fill: #2db34a;
      }

      .cls-5 {
        fill: #f36f33;
      }
    </style>
    <linearGradient id="linear-gradient" x1="2.64" y1="28.35" x2="24" y2="28.35" gradientUnits="userSpaceOnUse">
      <stop offset=".51" stop-color="#cf633d"/>
      <stop offset=".62" stop-color="#d1693e"/>
      <stop offset=".77" stop-color="#da7a42"/>
      <stop offset=".94" stop-color="#e79648"/>
      <stop offset="1" stop-color="#eda24b"/>
    </linearGradient>
    <linearGradient id="linear-gradient-2" x1="24" y1="28.35" x2="45.35" y2="28.35" gradientUnits="userSpaceOnUse">
      <stop offset="0" stop-color="#c3d153"/>
      <stop offset=".21" stop-color="#b0c54c"/>
      <stop offset=".44" stop-color="#a2bc48"/>
      <stop offset=".64" stop-color="#9eba47"/>
      <stop offset="1" stop-color="#7ba640"/>
    </linearGradient>
  </defs>
  <g>
    <path class="cls-2" d="M2.64,30.58s1.07-1.5,1.55-2.02c.02-.02.03-.04.05-.05.46-.46-.03.03-.03.03,0,0,3.56,1.39,9.26,0,0,0,4.02-1.59,9.06,1.13,0,0-1.51-2.22-7.45-2.22,0,0-2.28.32-3.24.41-.96.09-4.08.27-5.75-1.51,0,0-.12-.36.26-.17.38.19,2.05,1.02,5.38.62,3.33-.41,8.24-1.67,12.28,3.53"/>
    <path class="cls-1" d="M45.35,30.58s-1.07-1.5-1.55-2.02c-.02-.02-.03-.04-.05-.05-.46-.46.03.03.03.03,0,0-3.56,1.39-9.26,0,0,0-4.02-1.59-9.06,1.13,0,0,1.51-2.22,7.45-2.22,0,0,2.28.32,3.24.41.96.09,4.08.27,5.75-1.51,0,0,.12-.36-.26-.17-.38.19-2.05,1.02-5.38.62-3.33-.41-8.24-1.67-12.28,3.53"/>
    <path class="cls-3" d="M21.77,30.25h4.63s-.26,1.85-2.11,2.11c0,0-2.16.27-2.52-2.11Z"/>
    <path class="cls-3" d="M45.43,30.22h-19.1c-.03.49-.22.93-.51,1.28-.42.5-1.04.83-1.75.83s-1.33-.32-1.75-.83c-.29-.35-.48-.8-.51-1.28H2.53c-.35,0-.64.29-.64.64s.29.64.64.64h18.37c.55,1.2,1.76,2.04,3.16,2.04s2.61-.84,3.16-2.04h18.2c.35,0,.64-.29.64-.64s-.29-.64-.64-.64Z"/>
    <g>
      <g>
        <path class="cls-3" d="M4.15,41.9c-.44,0-.67-.19-.67-.56,0-.12.02-.23.07-.34.05-.11.13-.24.24-.4l3.57-4.79h-2.98c-.08,0-.15-.01-.19-.04-.09-.06-.18-.14-.28-.22-.1-.09-.2-.19-.31-.31-.03-.04-.05-.08-.05-.11,0-.03.02-.07.05-.1.11-.12.21-.23.31-.31.1-.09.19-.16.28-.22.05-.03.11-.04.19-.04h4.52c.45,0,.68.19.68.56,0,.13-.03.25-.08.36-.05.11-.13.24-.23.37l-3.55,4.8h3.25c.08,0,.15,0,.19.04.09.06.18.14.28.22.1.09.2.19.31.31.03.04.05.08.05.11,0,.03-.02.07-.05.1-.11.12-.21.23-.31.31-.1.09-.19.16-.28.22-.05.03-.11.04-.19.04h-4.83Z"/>
        <path class="cls-3" d="M14,42.03c-.72,0-1.35-.14-1.88-.42-.53-.28-.95-.7-1.24-1.25-.29-.56-.44-1.26-.44-2.09,0-1.33.32-2.32.97-2.97.65-.65,1.55-.98,2.71-.98,1.09,0,1.94.32,2.57.96.63.64.95,1.59.95,2.84,0,.89-.15,1.62-.44,2.2-.29.58-.71,1.01-1.26,1.29-.54.28-1.19.42-1.94.42ZM14.03,40.62c.62,0,1.09-.22,1.39-.67.3-.45.45-1.03.45-1.74,0-.83-.14-1.45-.43-1.87-.28-.42-.74-.62-1.37-.62-1.24,0-1.87.82-1.87,2.46,0,.73.15,1.32.45,1.77.3.45.76.67,1.38.67Z"/>
        <path class="cls-3" d="M20.62,41.62c0,.1-.02.18-.06.22-.04.04-.12.06-.22.06h-1.11c-.1,0-.18-.02-.22-.06-.04-.04-.06-.11-.06-.22v-5.79c0-.35.03-.62.1-.82.06-.2.19-.35.37-.44.19-.09.46-.13.81-.13h1.38c1.81,0,2.72.7,2.72,2.09,0,.42-.07.77-.21,1.04-.14.27-.32.48-.53.63-.21.15-.42.26-.62.34v.03c.23.15.45.35.66.6.21.25.4.52.57.81.17.29.31.58.43.86.12.28.2.53.24.76.02.1.02.18,0,.23-.02.05-.08.08-.18.08h-1.2c-.09,0-.17-.02-.24-.06-.07-.04-.13-.13-.18-.27-.26-.66-.57-1.2-.91-1.62-.34-.42-.67-.75-.99-1.01-.2-.16-.31-.28-.31-.35,0-.06.03-.13.1-.23.04-.06.1-.13.18-.21.08-.08.15-.15.21-.19.06-.04.11-.07.14-.08.04-.01.09-.02.17-.02.26,0,.47-.09.64-.27.17-.18.26-.46.26-.84,0-.36-.09-.63-.27-.79-.18-.17-.43-.25-.75-.25h-.31c-.23,0-.39.05-.47.15-.08.1-.12.26-.12.5v5.25Z"/>
        <path class="cls-3" d="M29.91,34.85c.19.27.39.61.59,1.03.2.42.39.88.58,1.39.19.5.36,1.02.51,1.54.15.53.27,1.03.37,1.52.1.49.15.92.17,1.3,0,.18-.08.28-.25.28h-1.26c-.16,0-.25-.08-.25-.24-.01-.39-.08-.86-.19-1.41h-2.84c-.1.54-.15,1.01-.17,1.41,0,.16-.1.24-.27.24h-1.23c-.06,0-.11-.02-.16-.05-.04-.04-.06-.1-.06-.19.02-.38.07-.82.17-1.31.1-.49.22-1,.37-1.53.15-.53.32-1.04.51-1.55.19-.5.38-.97.58-1.39.2-.42.4-.76.59-1.03.1-.14.21-.25.32-.31.11-.07.25-.1.42-.1h.75c.17,0,.31.03.43.1.11.07.22.17.32.31ZM28.73,36.08c-.23.36-.44.8-.63,1.31-.19.51-.36,1.03-.49,1.56h2.26c-.15-.53-.31-1.05-.5-1.56-.19-.51-.39-.94-.6-1.31h-.03Z"/>
        <path class="cls-3" d="M39.32,34.85c.19.27.39.61.59,1.03.2.42.39.88.58,1.39.19.5.36,1.02.51,1.54.15.53.27,1.03.37,1.52.1.49.15.92.17,1.3,0,.18-.08.28-.25.28h-1.26c-.16,0-.25-.08-.26-.24-.01-.39-.08-.86-.19-1.41h-2.84c-.1.54-.15,1.01-.17,1.41,0,.16-.1.24-.27.24h-1.23c-.06,0-.11-.02-.16-.05-.04-.04-.06-.1-.06-.19.02-.38.07-.82.17-1.31.1-.49.22-1,.37-1.53.15-.53.32-1.04.51-1.55.19-.5.38-.97.58-1.39.2-.42.4-.76.59-1.03.1-.14.21-.25.32-.31.11-.07.25-.1.42-.1h.75c.17,0,.31.03.43.1.11.07.22.17.32.31ZM38.15,36.08c-.23.36-.44.8-.63,1.31-.19.51-.36,1.03-.49,1.56h2.26c-.15-.53-.31-1.05-.5-1.56-.19-.51-.39-.94-.6-1.31h-.03Z"/>
        <path class="cls-3" d="M44.44,41.62c0,.1-.02.18-.06.22-.04.04-.12.06-.22.06h-1.11c-.1,0-.18-.02-.22-.06-.04-.04-.06-.11-.06-.22v-6.35c0-.1.02-.18.05-.23.16-.23.37-.47.66-.72.05-.04.1-.06.14-.06.04,0,.08.02.13.06.15.13.28.26.39.38.1.12.19.23.27.35.03.06.05.13.05.23v6.35Z"/>
      </g>
      <g>
        <path class="cls-3" d="M11.11,43.67c.07.09.13.21.2.36.07.15.14.31.2.48.07.18.12.36.18.54.05.18.1.36.13.53.03.17.05.32.06.45,0,.06-.03.1-.09.1h-.44c-.06,0-.09-.03-.09-.09,0-.14-.03-.3-.07-.49h-.99c-.03.19-.05.35-.06.49,0,.06-.03.09-.09.09h-.43s-.04,0-.05-.02c-.01-.01-.02-.03-.02-.07,0-.13.03-.29.06-.46.03-.17.08-.35.13-.53.05-.18.11-.36.18-.54.07-.18.13-.34.2-.48.07-.15.14-.27.21-.36.04-.05.07-.09.11-.11.04-.02.09-.03.15-.03h.26c.06,0,.11.01.15.03.04.02.08.06.11.11ZM10.7,44.1c-.08.13-.15.28-.22.46-.07.18-.12.36-.17.55h.79c-.05-.19-.11-.37-.18-.55-.07-.18-.14-.33-.21-.46h-.01Z"/>
        <path class="cls-3" d="M12.9,46.04s0,.06-.02.08c-.02.01-.04.02-.08.02h-.39s-.06,0-.08-.02c-.02-.01-.02-.04-.02-.08v-2.22s0-.06.02-.08c.05-.08.13-.16.23-.25.02-.01.03-.02.05-.02.01,0,.03,0,.05.02.05.05.1.09.13.13.04.04.07.08.09.12.01.02.02.05.02.08v2.22Z"/>
        <path class="cls-3" d="M15.5,45.26s-.06,0-.08-.02c-.02-.02-.05-.04-.08-.07-.03-.03-.07-.06-.11-.11-.01-.02-.02-.03-.02-.05s0-.03.02-.05c.08-.08.14-.15.21-.19.01,0,.04-.01.06-.01.08,0,.15-.03.21-.09.06-.06.09-.16.09-.3,0-.15-.04-.25-.11-.31-.07-.06-.17-.09-.3-.09h-.09c-.08,0-.13.02-.16.05-.03.03-.04.09-.04.17v1.84s0,.06-.02.08c-.02.01-.04.02-.08.02h-.39s-.06,0-.08-.02c-.02-.01-.02-.04-.02-.08v-2.02c0-.12.01-.22.03-.29.02-.07.07-.12.13-.15.06-.03.16-.05.28-.05h.43c.35,0,.61.07.77.2.17.14.25.35.25.63,0,.21-.04.38-.13.52-.09.13-.2.23-.34.29-.14.06-.29.09-.44.09Z"/>
        <path class="cls-3" d="M17.66,46.18c-.31,0-.55-.08-.73-.24-.18-.16-.27-.4-.27-.73s.09-.58.28-.74c.19-.16.43-.24.74-.24s.54.08.72.24c.18.16.27.4.27.71s-.09.57-.27.75c-.18.17-.43.26-.74.26ZM17.68,45.74c.13,0,.23-.04.3-.12.07-.08.1-.23.1-.43s-.03-.33-.1-.4c-.07-.08-.17-.12-.3-.12s-.23.04-.31.13c-.07.08-.11.22-.11.41s.04.34.11.42c.07.08.18.12.32.12Z"/>
        <path class="cls-3" d="M19.39,46c-.04-.05-.07-.13-.11-.23-.04-.1-.08-.21-.12-.33-.04-.12-.07-.24-.11-.36-.03-.12-.06-.23-.08-.33-.02-.1-.03-.18-.03-.24,0-.02,0-.04.02-.06.06-.07.14-.14.24-.22.02-.01.03-.02.05-.02.02,0,.03,0,.05.02.06.04.1.08.14.11.04.04.07.07.1.1.01.02.02.04.02.07h0c0,.07,0,.15.01.25,0,.1.02.2.04.3.02.1.04.2.06.3.02.09.05.18.08.24h.01c.03-.07.06-.16.1-.27.04-.11.07-.22.1-.35.03-.12.06-.24.09-.34.03-.11.04-.19.05-.26,0-.05.03-.08.06-.09.03-.02.07-.02.12-.02h.21c.06,0,.1,0,.13.03.03.02.04.05.05.09,0,.07.03.15.05.26.03.11.05.23.09.35.03.12.06.24.1.35.03.11.06.19.08.25h.01c.04-.08.07-.18.1-.31.03-.13.06-.26.08-.4.02-.14.03-.27.03-.39h0s0-.04.02-.06c.03-.03.06-.07.1-.1.04-.04.08-.07.14-.11.02-.01.03-.02.05-.02.02,0,.03,0,.05.02.05.04.1.08.14.11.04.04.07.07.1.1.01.02.02.04.02.06,0,.06-.01.14-.03.24-.02.1-.05.21-.09.32-.04.12-.08.24-.12.35-.04.12-.09.23-.13.32-.04.1-.09.18-.12.23-.02.04-.05.07-.06.09-.02.02-.04.03-.07.04-.03,0-.06,0-.12,0h-.21c-.06,0-.1,0-.13-.02-.03-.02-.06-.05-.09-.11-.02-.03-.04-.09-.06-.16-.02-.08-.05-.16-.07-.25-.03-.09-.05-.18-.07-.26-.02-.08-.03-.14-.04-.18,0-.04-.01-.08-.02-.13,0-.05-.01-.09-.01-.12h0s0,.07-.01.12c0,.05-.01.1-.02.14,0,.03-.02.09-.04.16-.02.07-.04.15-.07.23-.03.09-.06.17-.09.25-.03.08-.06.15-.08.21-.03.06-.06.09-.09.11-.03.02-.09.02-.16.02h-.21c-.06,0-.1,0-.12-.03-.02-.02-.05-.05-.08-.11ZM18.95,44.52h0s0,0,0,0ZM21.83,44.53h0s0,0,0,0h0Z"/>
        <path class="cls-3" d="M23.11,46.18c-.21,0-.38-.03-.53-.1-.15-.07-.27-.17-.35-.31-.08-.14-.13-.32-.13-.54,0-.33.08-.58.25-.75.17-.17.4-.25.68-.25.18,0,.34.03.46.1.13.07.22.16.29.27.07.12.1.25.1.39s-.04.24-.11.3c-.07.06-.18.09-.32.09h-.78c0,.12.06.22.14.29.08.07.19.1.33.1.11,0,.2-.02.27-.05.07-.03.11-.06.14-.08.02-.02.05-.02.08-.02.02,0,.06,0,.1.01.04,0,.09.03.13.05.03.02.05.04.05.07,0,.02,0,.04,0,.07,0,.02,0,.04-.02.07,0,.03-.02.06-.03.09,0,.01-.02.03-.03.04-.02.02-.06.04-.12.07-.05.03-.13.05-.22.07-.09.02-.21.03-.35.03ZM22.66,45.01h.59c.06,0,.09-.03.09-.09,0-.09-.03-.16-.08-.22-.05-.06-.13-.09-.24-.09-.12,0-.2.04-.26.11-.06.08-.09.17-.1.28Z"/>
        <path class="cls-3" d="M24.86,44.62h0c.09-.25.25-.38.49-.38.03,0,.06,0,.07,0,.02,0,.03,0,.04,0,.02,0,.03.02.03.04v.44s-.02.05-.07.03c-.01,0-.04-.01-.06-.02-.03,0-.07-.01-.11-.01-.12,0-.22.05-.29.14-.07.09-.11.22-.11.37v.79s0,.06-.02.08c-.02.01-.04.02-.08.02h-.37s-.06,0-.08-.02c-.02-.01-.02-.04-.02-.08v-1.52s0-.05.02-.07c.03-.03.06-.07.09-.1.04-.04.08-.07.13-.11,0,0,.02-.01.03-.01,0,0,.02,0,.03,0,.02,0,.03,0,.05.02.1.08.17.15.21.2.01.01.02.03.02.05v.13Z"/>
        <path class="cls-3" d="M26.68,46.18c-.2,0-.38-.03-.53-.1-.15-.07-.27-.17-.35-.31-.08-.14-.13-.32-.13-.54,0-.33.08-.58.25-.75.17-.17.4-.25.68-.25.18,0,.34.03.46.1.13.07.22.16.29.27.07.12.1.25.1.39s-.04.24-.11.3c-.07.06-.18.09-.32.09h-.78c0,.12.06.22.14.29.08.07.19.1.33.1.11,0,.2-.02.27-.05.07-.03.11-.06.14-.08.02-.02.05-.02.08-.02.02,0,.06,0,.1.01.04,0,.09.03.13.05.03.02.05.04.05.07,0,.02,0,.04,0,.07,0,.02,0,.04-.02.07,0,.03-.02.06-.03.09,0,.01-.02.03-.03.04-.02.02-.06.04-.12.07-.05.03-.13.05-.22.07-.09.02-.21.03-.35.03ZM26.23,45.01h.59c.06,0,.09-.03.09-.09,0-.09-.03-.16-.08-.22-.05-.06-.13-.09-.24-.09-.12,0-.2.04-.26.11-.06.08-.09.17-.1.28Z"/>
        <path class="cls-3" d="M28.51,46.18c-.16,0-.3-.04-.41-.12-.11-.08-.2-.19-.26-.33-.06-.14-.09-.3-.09-.48,0-.24.04-.44.13-.59.09-.15.21-.26.36-.33.16-.07.34-.11.55-.11.07,0,.13,0,.18.01.05,0,.08.01.1.02v-.68s0-.05.02-.07c.05-.07.13-.14.22-.22.02-.01.03-.02.05-.02.02,0,.03,0,.05.02.05.04.1.08.13.11s.07.07.09.1c.01.02.02.04.02.07v2.47s0,.04-.02.06c-.02.02-.04.02-.06.02h-.27s-.04,0-.05,0c-.02,0-.03-.02-.04-.03l-.11-.15h-.01s-.04.05-.08.09c-.04.04-.1.07-.18.1-.08.03-.18.04-.31.04ZM28.69,45.72c.11,0,.19-.02.26-.06.06-.04.11-.09.13-.16v-.76s-.05-.03-.1-.04c-.05-.02-.11-.03-.19-.03-.15,0-.26.05-.34.15-.08.1-.11.23-.11.4s.03.3.09.38c.06.08.15.12.25.12Z"/>
        <path class="cls-3" d="M31.67,46.14c-.12,0-.22-.02-.28-.05-.06-.03-.11-.08-.13-.15-.02-.07-.03-.17-.03-.29v-1.83s0-.06.02-.08c.05-.08.13-.16.23-.25.02-.01.03-.02.05-.02.01,0,.03,0,.05.02.05.05.1.09.13.13.04.04.07.08.09.12.01.02.02.05.02.08v1.61c0,.08.01.14.04.17.03.04.08.05.16.05h.56s.05,0,.07.01c.03.02.06.05.1.08.03.03.07.07.11.11.01.02.02.03.02.04,0,.01,0,.02-.02.04-.04.04-.07.08-.11.11-.03.03-.07.06-.1.08-.02,0-.04.01-.07.01h-.9Z"/>
        <path class="cls-3" d="M34.59,45.09c.02-.07.04-.13.06-.19.02-.06.04-.13.07-.21.03-.07.06-.15.09-.24.04-.09.07-.18.12-.28.04-.09.08-.18.12-.26.04-.08.07-.15.11-.19.04-.06.08-.1.13-.13.05-.03.11-.04.2-.04h.24c.06,0,.12,0,.16.03.04.02.07.06.09.13.01.05.03.13.04.23.01.1.02.24.03.42,0,.18.02.41.02.69,0,.28,0,.62,0,1.04,0,.02,0,.04-.02.05-.01.01-.03.02-.05.02h-.41s-.04,0-.05-.02c-.01-.01-.02-.03-.02-.06v-.81c0-.22,0-.41,0-.55,0-.15,0-.26,0-.35,0-.09,0-.15,0-.2h-.01c-.06.15-.13.31-.21.49-.07.18-.14.37-.21.56-.07.19-.13.38-.19.56-.02.05-.04.09-.06.11-.02.02-.08.03-.16.03h-.21c-.07,0-.12,0-.14-.03-.02-.02-.04-.06-.06-.12-.04-.14-.08-.28-.13-.44-.05-.15-.1-.31-.15-.45-.05-.15-.1-.29-.15-.41-.05-.13-.09-.23-.13-.31h-.01c0,.14-.02.32-.03.52,0,.21-.01.43-.02.67,0,.24,0,.49,0,.73,0,.02,0,.04-.02.05-.01.01-.03.02-.05.02h-.37s-.04,0-.05-.02c-.01-.01-.02-.03-.02-.06,0-.65.01-1.16.04-1.55.02-.39.05-.64.08-.77.02-.09.05-.14.1-.17.05-.03.11-.04.17-.04h.29c.07,0,.12.01.15.04.03.02.07.07.11.14.03.04.06.1.1.18.04.08.08.17.12.27.04.1.08.19.11.29.04.1.07.18.09.25.02.07.05.14.07.21.02.07.04.13.05.2h.01Z"/>
        <path class="cls-3" d="M37.34,46.18c-.15,0-.28-.01-.38-.04-.1-.03-.18-.06-.24-.1-.06-.04-.11-.08-.14-.12-.01-.02-.02-.03-.03-.05,0-.01-.01-.03-.02-.05,0-.02,0-.06-.01-.1,0-.04,0-.09,0-.14,0-.02,0-.04.01-.05,0,0,.02-.02.04-.02.04,0,.08-.02.14-.02.06,0,.1,0,.12,0,.03,0,.05,0,.06.01.02,0,.03.03.06.05.02.03.07.06.13.1.06.04.15.06.27.06s.21-.02.27-.07c.06-.05.09-.12.09-.21,0-.05-.01-.09-.04-.13-.03-.04-.08-.08-.16-.13-.08-.04-.18-.09-.32-.13-.23-.08-.4-.17-.5-.29-.1-.12-.15-.28-.15-.48,0-.17.04-.31.12-.43.08-.11.2-.2.34-.26.15-.06.31-.09.5-.09.15,0,.27.02.36.05.1.03.17.07.22.12.05.04.09.08.1.1,0,.02.02.03.02.04,0,0,0,.02,0,.03,0,.04,0,.08,0,.13,0,.05,0,.1-.01.16,0,.02-.01.03-.02.04,0,0-.02,0-.04,0-.12,0-.21,0-.27-.02-.03,0-.04-.01-.05-.02,0,0-.02-.02-.03-.03-.02-.02-.05-.05-.09-.08-.04-.03-.11-.05-.2-.05-.13,0-.22.03-.27.09-.05.06-.08.12-.08.19,0,.08.04.15.12.2.08.05.2.1.37.16.14.05.26.1.37.16.1.06.18.13.23.22.05.09.08.21.08.36,0,.19-.04.34-.13.46-.09.12-.2.21-.35.27-.15.06-.31.09-.5.09Z"/>
      </g>
    </g>
    <g>
      <path class="cls-3" d="M23.94,26.55v1.62c-.13,0-.26,0-.41.03-.17.02-.35.12-.46.05-.12-.07-.23-.36-.31-.5-.19-.33-.38-.64-.58-1.01-.14-.25-.34-.45-.05-.67.39-.3,1.13-.29,1.5.12.11.12.19.29.3.37ZM23.94,29.78v-.98c-.18,0-.35.02-.53.07.2.3.35.61.53.91Z"/>
      <path class="cls-3" d="M24.81,26.13c-.18.14-.26.35-.42.43-.1.05-.18.03-.24-.02v1.62c.17,0,.34.01.52.05.17.03.36.14.46.08.11-.06.25-.34.34-.48.12-.19.22-.36.31-.49.23-.35.48-.63.62-.98-.41-.52-1.12-.59-1.58-.22Z"/>
      <path class="cls-3" d="M24.75,28.9c-.2-.06-.4-.09-.6-.09v.98c.21-.29.39-.59.6-.88Z"/>
    </g>
    <path class="cls-3" d="M24.68,24.81c0,.34-.28.61-.61.61h0c-.34,0-.61-.28-.61-.61V1.87c0-.34.28-.61.61-.61h0c.34,0,.61.28.61.61"/>
  </g>
  <path class="cls-4" d="M39.9,17.32s-.06-1.01-.76-1.49c0,0,2.5-3.48-1.41-5.02,0,0,2.18-3.88-2.52-4.5,0,0,.47-2.87-2.31-3.31,0,0-1.05-.16-1.73.52-.24.07-.57.39-.57.95-.34-.59-.24-.59-.45-1.04-.02-.25-.09-.77-.47-1.24-.55-.69-1.35-.79-1.6-.83-.15-.02-.64-.03-.89.03-1.15.28-1.85,1.56-1.85,1.86-.01,1.28-.08,1.45-.05,5.24,0,.49,0,1,.01,1.5,0,2.09.04,4.87.04,8.45v6.79c0,.34.28.62.62.62s.62-.28.62-.62v-1.76l2.32-2.27h1.37l1.47-1.36s1.84,3,4.63.21h1.62s2.25-.67,1.92-2.73ZM26.99,22.23c-.07.18-.36.18-.42-.01-.02-.06-.02-.12,0-.18.02-.16.01-.32.01-.48v-8.62s0,0,0,0c0,0,.04-1.26.04-1.27l-.05-2.54c0-.05.05-.07.07-.12.02-.06,0-.15,0-.22l.12-.74s-.05-.05-.09-.08c-.31-.21-.07-.66.31-.54.07.02.13.09.16.15.06.11.03.26-.07.33-.05.04-.11.06-.16.09,0,0-.01,0-.01.01,0,0,0,0,0,.01,0,.03,0,.06-.01.09,0,.03,0,.07-.01.1,0,.07-.02.14-.03.21-.02.15-.04.3-.06.46l1.58-1.49v-.02s-1.07-1.03-1.07-1.03h-.02c-.09,0-.15.06-.26.03-.17-.05-.27-.21-.23-.38.08-.35.68-.29.62.13,0,.05-.05.09-.02.14l.96.92.05.02v-1.44h0s-1.1-1.08-1.1-1.08h0s-.01-.93-.01-.93h0c-.06-.05-.13-.07-.18-.12-.21-.24.06-.6.37-.48.21.08.26.36.1.51-.05.04-.15.05-.16.11v.85s0,0,0,.01l.94.91.05.02v-2.57s0-.01,0-.02c-.09-.05-.18-.08-.26-.15-.11-.1-.16-.27-.15-.42.02-.22.1-.38.31-.46.19-.07.43-.03.58.11,0,0,0,0,0,0,.29.28.18.78-.22.89v.02s-.01,4.48-.01,4.48h0c-.56.6-1.18,1.15-1.77,1.72h0c-.03.83-.01,1.65-.01,2.47,0,0,0,0,0,.01l-.04,1.1.85-.35v-2.38s0-.01,0-.01c-.1-.06-.19-.08-.23-.2-.11-.27.19-.52.46-.38.25.13.18.5-.09.56v.02s-.01.78-.01.78c.04-.01.08-.06.11-.08.21-.19.41-.4.61-.59h0s0-.91,0-.91v-.02c-.22-.07-.33-.27-.21-.47.2-.33.78-.02.54.33-.05.07-.12.1-.18.14h0s-.03.98-.03.98h0s-.83.81-.83.81h0s0,1.52,0,1.52l-.96.46.2,7.13,1.74-1.2v-2.06c-.02-.12-.4-.37-.47-.49v-1.81c0-.09-.12-.08-.19-.17-.27-.34.22-.73.52-.44.21.2.06.48-.18.57v1.14s.04-.01.05-.03c.22-.16.42-.44.64-.61l.02-.04v-1.72c-.38-.09-.37-.63.03-.66.46-.03.52.54.1.66v1.81s-.82.77-.82.77c-.03.05-.03.46,0,.5.07.11.36.29.42.4,0,.01.02.02.02.04v2.01s.12-.1.12-.1l.4-.38.22-.21.12-.17v-.06s0-3.4,0-3.4l.02-.07.66-.62v-1.58s-.83-.82-.83-.82v-1.81c-.06-.13-.42-.35-.44-.47v-2.19c.18-.21.43-.37.58-.6v-.4c-.52-.14-.21-.87.25-.61.28.16.19.53-.11.61v.48s-.58.55-.58.55v2.17s.35.33.35.33l.59-.54v-1.3c-.32-.08-.38-.54-.04-.64.47-.15.66.52.18.64v1.34s-.64.63-.64.63v1.77s.22.23.25.22c0,0,.06-.08.07-.09.15-.14.31-.27.44-.42v-.95c-.12-.06-.25-.12-.27-.27-.08-.54.76-.51.67,0-.02.14-.15.21-.27.26v1.02s-.57.54-.57.54l.51.51v1.45s.18-.14.18-.14l.59-.57v-1.21s0-.45.02-.43l.02-.18c0-.15-.05-.83.08-.89v-1.15c-.52-.39-.38-.7-.38-1.3.67-.54.47-.75.49-1.48-.42-.13-.33-.72.13-.65.38.05.36.56,0,.65v1.04s-.51.51-.51.51c.02.54-.13.77.38,1.15.03.02-.06,1.12.04,1.11,0,0,.53-.54.53-.54v-1.3c.45-.42.6-.46.53-1.1-.46-.14-.27-.82.21-.64.33.13.24.53-.06.64,0,0-.01.63-.01.63-.76.61-.5.81-.54,1.64l1.7-1.59c-.04-.83.01-.8.62-1.36-.17-.28.01-.64.39-.55.46.17.16.78-.29.62-.49.48-.66.49-.59,1.22.68.11,1.51-.02,2.22.03.23-.73,1.37-.41,1.11.32-.21.55-.94.42-1.14-.06,0,0-2.19,0-2.19,0l-2.44,2.33v.75s-.01.2,0,.24v.04s-.04,1.31-.04,1.31c.03,0,.04-.01.05-.03.17-.12.32-.33.48-.46v-1.14c.07-.06.12-.13.18-.19.11-.1.22-.18.34-.27.07-.05.09-.12.14-.18.02-.03.04-.05.08-.06.03,0,.06,0,.09-.01,0,0,.02-.01.02-.02,0,0,0-.01-.01-.01,0,0-.01-.01-.02-.02-.01-.01-.02-.03-.03-.04-.02-.03-.03-.06-.04-.1,0-.04-.01-.08,0-.11,0-.05.05-.09.08-.14.01-.02.03-.04.05-.05.01-.01.03-.02.04-.03.04-.02.08-.02.12-.02.07,0,.14,0,.21.02.07.02.13.06.16.12,0,0,0,0,0,0,.12.24-.09.51-.36.48-.05,0-.13-.06-.16-.04l-.73.68s0,.05,0,.07v1h.5l2.1-2s-.04-.1-.05-.15c-.04-.26.21-.46.47-.36.37.14.24.67-.17.63-.11,0-.11-.07-.21.02-.33.27-.68.66-.99.96-.03.03-.08.03-.06.09h1.24c.06-.31.54-.36.66-.08.16.36-.32.63-.58.36-.05-.06-.05-.14-.11-.16h-1.35s-.11.07-.13.09c-.25.23-.48.49-.74.72-.21.02-.44-.02-.64.02l-.63.61-.03.12-1.57,1.5v.74l1.52-1.43,1.16-.03,1.02-.98c.02-.05-.02-.11-.03-.16-.03-.27.24-.46.5-.34.33.16.18.68-.21.62-.05,0-.12-.05-.16-.04-.18.21-.47.4-.63.6-.01.02-.04.02-.03.05h1.62l.9-.85.14-.13.09-.09h.76c.1-.2.28-.34.51-.23.34.15.19.65-.2.62-.16-.01-.25-.13-.32-.26h-.69s-1.12,1.06-1.12,1.06h-1.83s-.31.26-.31.26h-1.09s-1.6,1.53-1.6,1.53v2.28s0,.14,0,.14l-.15.31-1.07.92s-1.07.62-1.58,1.12c-.09.09-.15.26-.18.47.52-.12,3.1-1.36,3.1-1.36l.31-.11.99-.94c.07-.1,0-.38.02-.51l.97-.93c0-.07-.05-.13-.05-.21,0-.14.13-.28.28-.3.5-.06.56.69-.02.63-.05,0-.09-.05-.13-.03l-.9.86-.03.52-.95.91.02.03h1.1s.08-.02.1-.04l2.13-2.03.12-.02.71-.66v-1.85c-.27-.07-.37-.41-.13-.58.28-.19.63.06.53.36-.05.13-.15.17-.26.23v1.24l.06-.02,1.01-.97c.04-.23.02-.48.01-.71l.6-.57h.9c.11-.41.73-.32.67.1-.03.26-.38.37-.57.19-.04-.04-.09-.16-.12-.18h-.8s-.55.5-.55.5v.61h.34c.06-.33.61-.34.66,0,.08.44-.53.55-.68.14l-.39.02-1.12,1.07c-.05.15-.03.3-.03.45l-.63.6.02.03h3.4l.57.54s.17-.04.24-.04c.44-.02.74.41.54.79-.29.54-1.18.29-1.07-.36.01-.06.09-.17.08-.21l-.5-.47h-3.46c-.76.66-1.47,1.39-2.2,2.08l-1.49.02s-3.39,1.57-3.39,1.57l.02.59c0,.17-.01.35-.04.52,0,.01,0,.02,0,.03Z"/>
  <path class="cls-5" d="M10.25,20.04h1.62c2.79,2.79,4.63-.21,4.63-.21l1.47,1.36h1.37s2.32,2.27,2.32,2.27v1.76c0,.34.28.62.62.62s.62-.28.62-.62v-6.79c0-3.59.03-6.36.04-8.45,0-.49,0-1,.01-1.5.04-3.78-.04-3.95-.05-5.24,0-.31-.7-1.59-1.85-1.86-.24-.06-.74-.05-.89-.03-.25.04-1.06.14-1.6.83-.38.47-.45.98-.47,1.24-.21.45-.11.45-.45,1.04,0-.56-.33-.88-.57-.95-.68-.68-1.73-.52-1.73-.52-2.78.43-2.31,3.31-2.31,3.31-4.69.62-2.52,4.5-2.52,4.5-3.91,1.54-1.41,5.02-1.41,5.02-.7.48-.76,1.49-.76,1.49-.32,2.06,1.92,2.73,1.92,2.73ZM21.22,22.2c-.03-.17-.04-.35-.04-.52l.02-.59s-3.39-1.57-3.39-1.57l-1.49-.02c-.74-.69-1.45-1.41-2.2-2.08h-3.46s-.5.47-.5.47c-.01.04.07.15.08.21.12.65-.78.9-1.07.36-.2-.38.1-.81.54-.79.07,0,.2.06.24.04l.57-.54h1.68s.24,0,.24,0h1.47s.02-.03.02-.03l-.63-.6c0-.15.02-.3-.03-.45l-1.12-1.07-.39-.02c-.14.4-.75.3-.68-.14.06-.33.6-.33.66,0h.34s0-.61,0-.61l-.55-.5h-.8s-.08.13-.12.17c-.19.18-.54.07-.57-.19-.06-.42.56-.51.67-.11h.9s.6.58.6.58c0,.23-.03.48.01.71l1.01.97.06.02v-1.24c-.11-.06-.22-.1-.26-.23-.11-.3.25-.56.53-.36.24.17.14.51-.14.58v1.85s.72.66.72.66l.12.02,2.13,2.03s.07.04.1.04h1.1s.02-.03.02-.03l-.95-.91-.03-.52-.9-.86s-.08.02-.13.03c-.58.06-.52-.69-.02-.63.15.02.27.16.28.3,0,.08-.04.14-.05.21l.97.93c.01.13-.04.41.02.51l.99.94.31.11s2.58,1.24,3.1,1.36c-.03-.2-.08-.38-.18-.47-.51-.51-1.58-1.12-1.58-1.12l-1.07-.92-.15-.31s0-.14,0-.14v-2.28s-1.6-1.52-1.6-1.52h-1.09s-.31-.26-.31-.26h-1.83s-1.12-1.06-1.12-1.06h-.69c-.06.12-.16.24-.32.26-.39.03-.53-.47-.2-.62.23-.1.41.03.51.22h.76s.09.1.09.1l.14.13.9.85h1.62s-.01-.03-.03-.05c-.17-.21-.45-.4-.63-.6-.04-.02-.11.03-.16.04-.39.06-.54-.46-.21-.62.26-.12.53.06.5.34,0,.06-.05.11-.03.16l1.02.98,1.16.03,1.52,1.43v-.74s-1.57-1.5-1.57-1.5l-.03-.12-.63-.61c-.2-.05-.43,0-.64-.02-.26-.23-.49-.49-.74-.72-.02-.02-.11-.09-.13-.09h-1.35c-.06.02-.06.1-.11.16-.25.27-.73,0-.58-.36.12-.28.6-.23.66.08h1.24c.02-.06-.03-.05-.06-.09-.31-.3-.67-.68-.99-.96-.11-.09-.11-.03-.21-.02-.4.04-.53-.49-.17-.63.26-.1.51.1.47.36,0,.04-.06.12-.05.15l2.1,2h.5s0-1,0-1c0-.02.02-.04,0-.07l-.73-.68s-.11.04-.16.04c-.27.03-.48-.24-.36-.48,0,0,0,0,0,0,.03-.06.1-.1.16-.12.07-.02.14-.03.21-.02.04,0,.08,0,.12.02.01,0,.03.01.04.03.02.02.03.03.05.05.03.04.07.08.08.14,0,.04,0,.08,0,.11,0,.03-.02.07-.04.1,0,.02-.02.03-.03.04,0,0-.01.01-.02.02,0,0-.01,0-.01.01,0,.01.02.02.02.02.03.01.06,0,.09.01.03,0,.06.03.08.06.05.06.07.14.14.18.12.09.23.17.34.27.06.06.11.13.17.19v1.14c.18.13.33.34.5.46.02.01.02.03.05.03l-.04-1.31v-.04s0-.24,0-.24v-.75s-2.45-2.33-2.45-2.33c0,0-2.19,0-2.19,0-.2.48-.93.61-1.14.06-.26-.73.88-1.06,1.11-.32.71-.05,1.54.08,2.22-.03.07-.73-.09-.74-.59-1.22-.45.15-.75-.45-.29-.62.38-.09.55.27.39.55.61.56.66.53.62,1.36l1.7,1.59c-.04-.83.22-1.03-.54-1.64,0,0-.01-.63-.01-.63-.29-.1-.39-.5-.06-.64.48-.18.67.5.21.64-.06.64.08.68.52,1.1v1.3s.53.54.53.54c.09.02,0-1.08.04-1.11.51-.38.37-.61.38-1.15l-.51-.51v-1.04c-.36-.09-.37-.61,0-.65.46-.06.56.52.13.65.02.73-.18.94.49,1.48,0,.6.14.91-.38,1.3v1.15c.13.06.07.74.07.89l.02.18s.01.43.01.43v1.21s.6.57.6.57l.17.14v-1.45s.51-.51.51-.51l-.56-.54v-1.02c-.13-.06-.25-.12-.28-.26-.09-.51.75-.54.67,0-.02.15-.15.21-.27.27v.95c.13.15.3.28.44.42.02.02.07.09.07.09.04.01.22-.18.25-.22v-1.77s-.63-.63-.63-.63v-1.34c-.48-.13-.29-.79.18-.64.33.11.27.56-.05.64v1.3s.6.54.6.54l.35-.33v-2.17s-.57-.55-.57-.55v-.48c-.3-.08-.39-.45-.11-.61.46-.26.77.47.25.61v.4c.16.23.41.38.58.6v2.19c-.02.12-.37.34-.43.47v1.81s-.84.82-.84.82v1.58s.66.62.66.62l.02.07v3.4s0,.06,0,.06l.12.17.22.21.4.38.12.1v-2.01s.01-.02.02-.04c.07-.11.36-.29.42-.4.03-.05.03-.46,0-.5l-.82-.77v-1.81c-.42-.12-.36-.69.1-.66.4.03.4.57.03.66v1.72s.02.04.02.04c.22.17.42.45.64.61.02.01.02.03.05.03v-1.14c-.25-.09-.39-.37-.18-.57.3-.29.79.1.52.44-.07.09-.19.07-.21.17v1.81c-.06.12-.44.38-.46.49v2.06s1.74,1.2,1.74,1.2l.2-7.13-.96-.46v-1.51s0,0,0-.01l-.83-.8h0s-.03-.97-.03-.97h0c-.07-.05-.14-.08-.18-.15-.24-.35.33-.67.54-.33.12.2.01.4-.2.47v.02s0,.9,0,.9h0c.2.21.4.42.61.6.03.03.08.07.11.08v-.78s0,0-.01-.02c-.27-.05-.34-.43-.09-.56.27-.14.57.1.46.38-.05.12-.13.14-.23.2,0,0,0,0,0,.01v2.38s.85.35.85.35l-.04-1.1s0,0,0-.01c0-.82.02-1.65-.01-2.46h0c-.59-.58-1.21-1.13-1.77-1.72h0s0-4.49,0-4.49v-.02c-.4-.11-.52-.61-.23-.89,0,0,0,0,0,0,.15-.14.39-.18.58-.11.21.08.29.24.31.46.01.15-.04.31-.15.42-.08.07-.17.1-.26.15,0,0,0,0,0,.02v2.57s.05-.02.05-.02l.94-.91h0s0-.86,0-.86c0-.05-.12-.06-.16-.11-.17-.15-.11-.43.1-.51.31-.12.58.24.37.48-.05.06-.12.07-.18.11h0s-.01.93-.01.93h0s-1.1,1.08-1.1,1.08h0v1.46s.05-.02.05-.02l.96-.92s-.02-.09-.02-.14c-.06-.42.54-.48.62-.13.04.16-.06.33-.23.38-.11.03-.18-.02-.26-.03h-.02s-1.07,1.04-1.07,1.04v.02s1.58,1.49,1.58,1.49c-.02-.15-.04-.3-.06-.46,0-.07-.02-.14-.03-.21,0-.03,0-.07-.01-.1,0-.03-.01-.06-.01-.09,0,0,0,0,0-.01,0,0,0,0-.01-.01-.05-.03-.12-.05-.16-.09-.1-.08-.13-.23-.07-.33.03-.06.09-.13.16-.15.38-.13.61.32.31.54-.04.03-.08.04-.09.08l.12.74c0,.07-.01.16,0,.22.01.05.07.06.07.12l-.05,2.54s.04,1.26.04,1.27c0,0,0,0,0,0v1.13c0,.24,0,.48,0,.72v.83c0,.3,0,.6,0,.9v.94c0,.32,0,.63,0,.95v.92c0,.29,0,.57,0,.86v.76c0,.21,0,.42,0,.62,0,.16,0,.32.01.48,0,.06,0,.12,0,.18-.06.19-.35.19-.42.01,0-.01,0-.02,0-.03Z"/>
</svg>